<svg width="375" height="160" viewBox="0 0 375 160" fill="none" xmlns="http://www.w3.org/2000/svg">
<circle cx="188" cy="-320" r="480" fill="#9BB068"/>
<path d="M188 84C192.418 84 196 80.4183 196 76C196 71.5817 192.418 68 188 68C183.582 68 180 71.5817 180 76C180 80.4183 183.582 84 188 84Z" fill="white"/>
<path d="M188 108C192.418 108 196 104.418 196 100C196 95.5817 192.418 92 188 92C183.582 92 180 95.5817 180 100C180 104.418 183.582 108 188 108Z" fill="white"/>
<path d="M200 96C195.582 96 192 92.4183 192 88C192 83.5817 195.582 80 200 80C204.418 80 208 83.5817 208 88C208 92.4183 204.418 96 200 96Z" fill="white"/>
<path d="M168 88C168 92.4183 171.582 96 176 96C180.418 96 184 92.4183 184 88C184 83.5817 180.418 80 176 80C171.582 80 168 83.5817 168 88Z" fill="white"/>
</svg>
