<svg width="234" height="234" viewBox="0 0 234 234" fill="none" xmlns="http://www.w3.org/2000/svg">
<path d="M123.792 -61.9905H165.631C166.288 -61.5468 166.66 -61.076 166.896 -60.4422C167.599 -58.4954 168.306 -56.5758 169.009 -54.6517C171.263 -48.5579 173.612 -42.2785 175.349 -35.8995C176.406 -32.1508 177.294 -28.3071 178.165 -24.6038C178.777 -22.0277 179.385 -19.4471 180.047 -16.9164C181.97 -9.11124 185.398 -2.66432 190.541 2.81828C191.974 4.33947 193.43 5.8199 194.885 7.27318C197.23 9.61833 199.624 12.0088 201.787 14.5848C208.268 22.4126 211.95 32.1147 213.056 44.352L213.292 46.9553C213.854 53.2347 214.421 59.7269 215.591 66.0108C218.267 80.1904 220.049 94.8861 221.038 110.917C221.323 115.182 221.886 120.76 223.999 126.057C226.675 132.852 231.232 136.977 237.427 138.362C239.068 138.715 240.665 138.878 242.238 138.878C247.285 138.878 252.169 137.099 256.722 133.581C263.13 128.705 267.806 121.652 271.044 112.018C273.814 103.837 274.213 95.2121 274.377 87.7601C274.563 82.0874 274.798 76.0434 275.832 69.9496C278.018 56.8701 284.027 46.1856 293.672 38.1677C297.359 35.1208 301.327 32.4044 305.177 29.7288L307.808 27.9223C324.124 16.5316 321.988 -2.73223 320.319 -10.4921C319.825 -12.6471 318.628 -14.3811 317.431 -15.9294C313.957 -20.3571 309.145 -21.3667 304.892 -21.9779C301.414 -22.4533 298.012 -22.5257 295.427 -22.5257C294.044 -22.5257 292.679 -22.5031 291.319 -22.4805C289.954 -22.4578 288.593 -22.4578 287.21 -22.4578C286.48 -22.4578 285.727 -22.4578 284.979 -22.4578C281.084 -22.5755 277.914 -22.9739 274.98 -23.7708C262.255 -27.0983 251.172 -34.3194 241.077 -45.8008C237.839 -49.5041 235.254 -54.0994 232.955 -60.3063C232.579 -61.2661 232.488 -61.6645 232.724 -61.995H252.328C253.058 -61.574 253.48 -60.7998 253.992 -59.7902C257.117 -53.6738 260.427 -49.2415 264.418 -45.846C272.118 -39.3312 281.134 -36.3069 292.824 -36.3069C294.747 -36.3069 296.861 -36.402 299.024 -36.565C304.942 -37.0585 311.277 -37.5972 317.617 -38.299C321.748 -38.7426 325.884 -39.1908 329.92 -40.3136C333.443 -41.2961 335.792 -43.4782 337.035 -46.9688C338.164 -50.1787 338.985 -53.7643 339.57 -58.2871L339.688 -59.1066C339.783 -60.2565 339.901 -61.2616 340.531 -61.9905H359.124C359.782 -61.4517 360.299 -60.75 360.861 -59.9985C363.677 -55.9193 366.779 -53.2482 370.393 -51.6546C373.776 -50.2013 377.318 -49.1917 380.769 -48.2319L381 -48.1595C382.102 -47.8562 383.209 -47.5755 384.311 -47.2902C388.723 -46.1177 393.281 -44.8998 397.507 -42.9757C403.679 -40.1642 407.579 -36.8819 410.064 -32.3365C414.291 -24.554 415.792 -16.0471 414.526 -7.02414C412.626 6.45373 406.404 15.8977 395.534 21.8965C386.519 26.8629 376.919 29.937 369.595 32.0694C368.212 32.4678 366.824 32.8662 365.418 33.242C360.698 34.5549 355.818 35.9357 351.193 38.0228C342.998 41.6311 337.951 48.146 336.214 57.3364C335.366 61.7642 335.366 66.2417 335.366 70.5563V72.9467C335.366 77.0711 336.023 81.4309 337.339 86.3068C340.908 99.5719 348.844 110.211 361.682 118.908C368.538 123.526 375.98 127.18 383.209 130.72C384.946 131.589 386.705 132.431 388.469 133.323C395.135 136.673 402.251 140.472 408.844 145.37C411.896 147.598 414.998 150.174 417.016 153.809V198.77C416.685 198.725 416.313 198.349 415.937 197.974C415.701 197.788 415.515 197.575 415.325 197.412C409.969 192.726 405.697 188.81 401.942 185.107C394.523 177.795 387.952 169.8 380.343 160.03C373.676 151.523 368.158 145.312 362.407 139.897C361.024 138.607 359.636 137.321 358.249 136.031C353.229 131.367 348.036 126.514 343.297 121.357C338.486 116.083 334.282 109.921 330.477 102.515C325.571 92.9032 323.503 82.3364 321.929 73.173L321.743 71.9552C320.945 67.2196 320.147 62.3437 318.27 57.7982C316.578 53.6738 313.476 51.3785 309.581 51.3785C308.805 51.3785 308.007 51.4735 307.209 51.6592C305.259 52.0802 303.359 52.8317 301.2 54.0949C294.815 57.7031 291.927 63.9871 289.909 69.6553C287.537 76.3331 286.947 83.4139 286.412 90.2547L286.154 93.374C285.074 106.381 281.32 118.474 275.002 129.303C270.236 137.506 264.228 143.881 257.135 148.241C250.936 152.062 243.989 153.914 235.912 153.914C232.742 153.914 229.432 153.633 225.768 153.071C218.444 151.944 213.655 147.797 211.587 140.743C210.39 136.687 210.036 132.4 209.823 128.769C209.637 125.206 209.519 121.62 209.424 118.034C209.306 114.05 209.193 109.926 208.957 105.824C208.417 97.177 206.703 88.6701 203.837 80.5345C200.975 72.426 197.171 63.9192 191.888 53.7236C186.886 44.0442 180.759 37.4116 173.082 33.4729C169.136 31.4582 165.848 30.0728 162.819 30.1C158.76 30.1 155.423 32.4904 151.713 38.1858C145.891 47.0684 140.022 54.8509 133.778 62.0222C128.123 68.5371 121.407 74.821 111.993 82.4133C103.821 88.9055 98.2564 95.3751 94.5016 102.759C93.3769 104.964 92.3203 107.214 91.2637 109.464C89.8534 112.466 88.3977 115.558 86.8014 118.51C80.7927 129.48 73.1152 136.461 63.3244 139.838C60.2271 140.893 57.0301 141.83 53.9554 142.745C49.6609 144.012 45.244 145.321 40.9495 146.964C26.9594 152.284 18.0348 161.026 13.6678 173.684C10.7564 182.028 9.98093 189.177 11.2008 196.208C12.3028 202.487 15.1235 208.395 19.5586 213.788C28.4786 224.594 35.9702 235.184 42.4958 246.158C44.8222 250.119 46.9083 253.166 49.0941 255.72C53.6017 261.039 58.5538 263.593 64.2133 263.593H64.8436C73.0608 263.267 80.4571 259.658 88.1573 252.202C94.0753 246.574 97.7848 239.172 101.376 232.001L101.658 231.44C106.913 220.963 113.516 212.081 121.239 205.027C128.939 198.069 136.639 191.173 144.385 184.26C148.707 180.389 153.051 176.5 157.391 172.611C166.17 164.711 175.136 160.867 184.786 160.867C185.516 160.867 186.264 160.89 187.04 160.94C193.656 161.338 198.377 163.448 201.946 167.572C204.34 170.384 206.358 173.594 208.168 177.392C209.152 179.434 210.113 181.449 211.056 183.463C214.294 190.354 217.677 197.457 221.881 203.922C226.552 211.048 231.296 215.897 236.814 219.18C241.721 222.109 246.347 223.539 250.995 223.539C254.024 223.539 257.076 222.906 260.033 221.665C263.085 220.352 265.806 218.989 268.295 217.468C269.914 216.508 271.511 215.499 273.089 214.494C277.03 212.035 281.115 209.477 285.319 207.39C291.518 204.298 297.881 202.75 304.221 202.75C306.946 202.75 309.758 203.031 312.533 203.615C324.741 206.123 333.38 215.472 335.611 228.646C336.459 233.567 336.482 238.937 335.729 245.565C334.509 256.63 327.652 264.598 317.349 266.893C311.689 268.161 305.821 268.392 300.139 268.604C297.554 268.7 294.929 268.817 292.344 269.003C290.888 269.098 289.432 269.121 287.977 269.121C285.723 269.121 283.401 269.143 281.075 269.519C270.508 271.045 262.668 275.73 257.131 283.794C255.231 286.56 253.562 289.675 251.757 293.921C251.335 294.954 250.841 295.583 250.088 296.031H224.829C224.502 295.655 224.362 295.375 224.362 294.954C224.362 293.944 224.221 292.939 224.081 291.975C223.963 290.92 223.845 289.937 223.845 288.928C223.94 281.616 224.199 273.037 225.677 264.625C226.616 259.373 225.7 254.334 222.906 249.205C220.181 244.189 217.6 238.611 214.852 231.625C213.868 229.14 212.907 226.632 211.941 224.151C209.265 217.21 206.517 210.039 203.139 203.289C199.806 196.584 196.658 191.875 192.971 188.031C188.632 183.364 183.512 181.001 177.784 181.001C177.453 181.001 177.127 181.001 176.8 181.023C171.825 181.327 166.937 183.015 162.243 186.062C155.577 190.422 149.142 195.388 142.947 200.192L138.907 203.334C132.853 207.952 127.266 213.362 122.377 219.365C116.695 226.396 112.986 234.74 109.82 242.685C104.841 255.063 97.6805 266.427 87.917 277.374C84.1122 281.666 80.0037 287.031 78.2713 294.179C78.0582 295.026 77.7317 295.61 77.1875 296.031H48.4048L48.3096 295.913C47.7926 295.397 47.3481 294.931 47.0897 294.32C44.8585 288.389 40.9857 283.35 35.2809 278.922L32.9319 277.093C27.8846 273.204 22.6967 269.17 18.0484 264.602C11.1917 257.734 4.9019 249.956 -1.2247 240.861C-6.62572 232.753 -12.5618 226.351 -19.4412 221.267C-22.5884 218.899 -25.7084 216.038 -29.2773 212.266C-35.1227 206.173 -40.5464 199.49 -45.7797 193.025C-47.4712 190.938 -49.1581 188.855 -50.8723 186.768C-55.779 180.788 -59.2981 175.423 -61.9056 169.918C-68.3859 156.535 -69.8189 141.979 -70.3813 129.511C-70.803 121.145 -69.7962 112.239 -67.1887 101.55C-65.5698 94.7549 -63.9962 87.4432 -64.2547 79.8237C-64.6084 68.2202 -67.6105 57.6534 -73.2473 48.4402C-78.7889 39.3946 -87.0967 34.822 -97.9214 34.822C-98.4611 34.822 -99.0007 34.8446 -99.5404 34.8446C-106.538 35.148 -113.626 37.1898 -120.6 40.9158C-126.305 43.9174 -131.493 47.5936 -137.502 52.2115C-149.542 61.4744 -163.16 67.4777 -179.191 70.5246C-179.426 70.5472 -179.685 70.6196 -179.943 70.6875C-180.388 70.7826 -180.814 70.9003 -181.213 70.9003C-181.517 70.9003 -181.775 70.8279 -182.011 70.6649V45.6559C-181.635 45.3028 -181.376 45.2349 -181.095 45.2349C-179.712 45.2349 -178.538 45.0719 -177.408 44.9315C-176.492 44.8138 -175.599 44.7188 -174.683 44.6735C-169.332 44.3928 -164.425 43.596 -159.727 42.2378C-153.646 40.5491 -147.918 37.7829 -142.354 35.1118C-140.545 34.2697 -138.762 33.4004 -136.953 32.581C-124.183 26.6728 -112.138 23.8161 -100.116 23.8161C-96.7378 23.8161 -93.3095 24.0515 -89.9492 24.5178C-79.4782 25.9258 -71.3109 31.594 -65.6514 41.441C-60.9079 49.6445 -57.5295 59.419 -54.9446 72.1906C-53.371 79.9233 -53.0445 86.8139 -53.9333 93.2835C-54.5455 97.7384 -55.6021 102.189 -56.6089 106.503C-56.9853 108.097 -57.3617 109.645 -57.7109 111.239C-60.01 121.457 -60.527 130.996 -59.3298 140.35C-56.7721 159.663 -47.521 174.101 -31.8395 183.287C-27.6856 185.727 -23.9987 186.895 -20.5704 186.895C-15.2873 186.895 -10.6617 184.106 -6.46246 178.388C-3.5284 174.499 -1.01608 170.257 1.42366 166.155C2.33971 164.657 3.23306 163.131 4.17178 161.61C10.7428 151.088 19.808 142.953 31.0998 137.47C35.7027 135.198 40.5141 133.301 45.185 131.449C47.9785 130.349 50.772 129.244 53.5428 128.076C66.6666 122.358 74.063 112.842 76.1263 98.9653C77.0923 92.4006 77.5095 85.8405 77.3961 78.9952C77.3235 76.5097 77.6047 74.0242 78.2396 71.5885C79.4368 66.8529 82.2303 64.1365 86.7878 63.3623C88.8285 62.9866 90.9191 62.9639 92.7285 62.9639H93.7851H94.8644H95.6172C103.576 62.9186 110.9 59.4462 116.273 53.212C122.146 46.3667 124.726 37.1807 123.343 27.9948C121.697 17.0749 117.521 6.8793 113.834 -2.09841C113.153 -3.76447 112.451 -5.40336 111.743 -7.01962C109.326 -12.7376 106.814 -18.596 105.027 -24.717C102.492 -33.5543 103.218 -40.5355 107.326 -46.6791C109.721 -50.2873 112.845 -53.1486 115.847 -55.7247C116.668 -56.4038 117.466 -57.1779 118.242 -57.9295C119.965 -59.6725 121.611 -61.2888 123.792 -61.9905ZM123.652 -62.9548C120.105 -61.8773 117.947 -58.7353 115.199 -56.4626C112.006 -53.7191 108.932 -50.8623 106.514 -47.2269C101.748 -40.0782 101.794 -32.4361 104.097 -24.468C106.424 -16.5678 109.825 -9.23349 112.927 -1.75886C116.895 7.94322 120.79 17.6 122.386 28.1261C125.039 45.8461 112.387 61.9226 95.6036 61.9951C95.3451 61.9951 95.0866 61.9951 94.8508 61.9951C94.1207 61.9951 93.4178 61.9951 92.7148 61.9951C90.6696 61.9951 88.6516 62.0403 86.6109 62.3935C81.6362 63.2627 78.5842 66.2372 77.2918 71.3485C76.6615 73.834 76.3531 76.4101 76.4257 78.9907C76.5436 85.6459 76.1445 92.2105 75.1604 98.8204C73.0699 112.882 65.2971 121.905 53.1618 127.18C45.7202 130.367 38.0199 132.97 30.6735 136.601C19.427 142.061 10.2258 150.079 3.34645 161.117C-0.104568 166.717 -3.27444 172.53 -7.24245 177.827C-11.3737 183.454 -15.7634 185.935 -20.5749 185.935C-23.9534 185.935 -27.5223 184.69 -31.3497 182.463C-46.9134 173.345 -55.8833 159.12 -58.373 140.227C-59.6427 130.453 -58.9126 120.936 -56.7767 111.424C-55.4389 105.471 -53.8199 99.5176 -52.9719 93.4012C-51.9879 86.2072 -52.5729 79.0359 -54.0059 72.005C-56.1871 61.1303 -59.289 50.5364 -64.8034 40.9747C-70.5309 31.0372 -78.8433 25.0384 -89.804 23.5852C-93.2777 23.0917 -96.7061 22.8608 -100.112 22.8608C-112.954 22.8608 -125.326 26.1657 -137.347 31.6981C-144.812 35.1208 -152.068 39.1501 -159.981 41.3097C-164.842 42.7177 -169.722 43.4647 -174.724 43.7227C-176.792 43.7952 -178.832 44.2615 -180.923 44.2615C-180.968 44.2615 -181.018 44.2615 -181.063 44.2615H-181.095C-181.893 44.2615 -182.433 44.7052 -182.973 45.2937C-182.973 53.9409 -182.973 62.475 -182.973 71.1222C-182.41 71.6836 -181.821 71.8737 -181.213 71.8737C-180.46 71.8737 -179.712 71.593 -179.005 71.4753C-163.722 68.5688 -149.564 62.733 -136.912 52.9811C-131.561 48.8567 -126.115 44.8953 -120.151 41.7534C-113.671 38.3081 -106.724 36.1032 -99.4905 35.8225C-98.9735 35.7773 -98.4339 35.7773 -97.9169 35.7773C-88.1035 35.7773 -79.7684 39.621 -74.0636 48.9473C-68.336 58.3234 -65.5426 68.6819 -65.2115 79.8373C-64.953 87.2214 -66.4314 94.2749 -68.1229 101.306C-70.3767 110.564 -71.8324 119.963 -71.3381 129.547C-70.7032 143.632 -68.9437 157.553 -62.7672 170.307C-59.8105 176.564 -55.8879 182.164 -51.616 187.371C-44.5008 195.995 -37.694 204.855 -29.9711 212.918C-26.8738 216.201 -23.5861 219.343 -19.9945 222.036C-12.8339 227.333 -7.01117 233.871 -2.01376 241.395C3.75911 249.974 10.1215 257.988 17.3773 265.277C22.7783 270.596 28.7643 275.051 34.705 279.669C39.7749 283.608 43.8382 288.389 46.2099 294.668C46.609 295.655 47.3345 296.266 48.0193 296.991C57.8327 296.991 67.6462 296.991 77.5049 296.991C78.421 296.38 78.938 295.538 79.2191 294.415C80.7927 287.923 84.4569 282.766 88.6562 278.008C97.8574 267.672 105.417 256.236 110.723 243.039C113.983 234.88 117.602 226.822 123.144 219.976C128.001 214 133.474 208.703 139.506 204.085C147.183 198.177 154.697 192.133 162.797 186.859C167.141 184.047 171.834 182.286 176.859 181.983C177.186 181.96 177.489 181.96 177.798 181.96C183.407 181.96 188.269 184.351 192.305 188.683C196.463 193.043 199.583 198.268 202.282 203.705C206.835 212.823 210.195 222.503 213.972 231.969C216.389 238.063 218.974 243.994 222.072 249.667C224.607 254.285 225.686 259.115 224.747 264.457C223.337 272.521 222.988 280.724 222.92 288.9C222.87 290.96 223.387 292.957 223.387 294.949C223.387 295.841 223.854 296.402 224.421 296.986C233.06 296.986 241.721 296.986 250.36 296.986C251.462 296.402 252.142 295.533 252.637 294.293C254.138 290.825 255.784 287.452 257.942 284.332C263.715 275.893 271.769 271.842 281.229 270.456C284.938 269.868 288.698 270.221 292.43 269.963C300.81 269.333 309.241 269.682 317.571 267.83C327.947 265.508 335.411 257.422 336.681 245.683C337.339 239.965 337.547 234.197 336.586 228.479C334.287 214.933 325.412 205.276 312.732 202.673C309.871 202.062 307.028 201.781 304.234 201.781C297.591 201.781 291.133 203.424 284.888 206.517C278.97 209.468 273.479 213.222 267.846 216.644C265.194 218.238 262.495 219.573 259.679 220.769C256.745 222.014 253.856 222.575 251.013 222.575C246.32 222.575 241.762 221.031 237.327 218.36C231.223 214.725 226.665 209.428 222.725 203.406C217.324 195.108 213.406 185.922 209.061 176.994C207.347 173.363 205.284 169.986 202.676 166.939C198.45 161.995 193.049 160.329 187.135 159.976C186.337 159.93 185.584 159.903 184.809 159.903C174.079 159.903 164.878 164.589 156.756 171.905C144.734 182.712 132.622 193.446 120.627 204.321C112.432 211.796 105.929 220.846 100.814 231.014C97.1273 238.371 93.4631 245.85 87.527 251.523C81.0966 257.734 73.8181 262.28 64.8482 262.633C64.635 262.633 64.4491 262.633 64.2359 262.633C58.3633 262.633 53.6924 259.631 49.8423 255.108C47.3754 252.202 45.2893 248.992 43.3393 245.664C36.5099 234.156 28.7598 223.399 20.334 213.176C16.2481 208.232 13.3141 202.582 12.1622 196.045C10.8471 188.453 12.1169 181.136 14.6019 173.988C19.2955 160.392 28.9684 152.564 41.3168 147.856C48.6633 145.067 56.2727 143.261 63.6419 140.753C74.5346 137.004 82.0489 129.221 87.6585 118.953C90.452 113.819 92.7058 108.382 95.3587 103.18C99.5353 94.9767 105.666 88.6746 112.614 83.1649C120.409 76.8855 127.919 70.2756 134.54 62.6334C141.065 55.1316 147.029 47.1182 152.521 38.7291C156.135 33.1967 159.214 31.0417 162.828 31.0417C165.626 31.0417 168.724 32.3093 172.664 34.3466C180.999 38.634 186.682 45.7148 191.021 54.199C195.529 62.8236 199.66 71.5885 202.926 80.8469C205.769 88.9101 207.456 97.2766 207.995 105.901C208.444 113.543 208.49 121.181 208.866 128.823C209.097 132.925 209.496 137.072 210.676 141.033C212.952 148.816 218.421 152.918 225.627 154.018C229.078 154.556 232.529 154.887 235.912 154.887C243.426 154.887 250.75 153.316 257.652 149.074C265.302 144.361 271.22 137.728 275.823 129.81C282.304 118.677 286.013 106.562 287.092 93.46C287.795 85.5598 288.126 77.5464 290.825 69.9994C293.006 63.8105 295.917 58.1876 301.695 54.9505C303.504 53.873 305.382 53.0264 307.422 52.6054C308.17 52.4424 308.878 52.37 309.581 52.37C313.077 52.37 315.825 54.4072 317.376 58.1604C319.372 63.0137 320.12 68.1703 320.99 73.3225C322.727 83.5406 324.89 93.6638 329.629 102.949C333.198 109.912 337.379 116.309 342.59 122.028C348.644 128.637 355.265 134.518 361.745 140.612C368.226 146.729 374.021 153.524 379.585 160.628C386.392 169.392 393.412 178.062 401.253 185.8C405.597 190.064 410.128 194.166 414.708 198.173C415.411 198.739 416.068 199.744 417.052 199.744C417.338 199.744 417.642 199.671 417.968 199.486C417.968 184.161 417.968 168.854 417.968 153.574C415.878 149.73 412.735 147.036 409.402 144.596C402.967 139.815 395.997 136.04 388.886 132.454C379.871 127.931 370.67 123.807 362.217 118.111C350.784 110.379 342.073 100.274 338.273 86.0714C337.098 81.8067 336.3 77.4016 336.3 72.9467C336.345 67.7901 336.16 62.6561 337.144 57.5266C338.858 48.5262 343.669 42.3872 351.56 38.8921C357.478 36.2436 363.722 34.7903 369.872 32.9839C378.842 30.3807 387.666 27.3338 396.002 22.7431C407.434 16.4637 413.583 6.40845 415.488 -6.8838C416.78 -16.0698 415.302 -24.7441 410.912 -32.8073C407.906 -38.2899 403.189 -41.4545 397.906 -43.8449C392.55 -46.3078 386.896 -47.5257 381.263 -49.0695C377.74 -50.0519 374.175 -51.0389 370.77 -52.5374C366.965 -54.1763 364.099 -56.9923 361.704 -60.4376C361.024 -61.3521 360.367 -62.2667 359.451 -62.9458C352.97 -62.9458 346.563 -62.9458 340.105 -62.9458C338.79 -61.7506 338.835 -60.0392 338.604 -58.4003C338.11 -54.6517 337.384 -50.8985 336.114 -47.2902C334.94 -44.0079 332.781 -42.0883 329.634 -41.2191C325.643 -40.119 321.603 -39.6979 317.521 -39.2271C311.322 -38.5706 305.128 -38.0319 298.928 -37.5157C296.883 -37.3528 294.842 -37.2577 292.824 -37.2577C282.848 -37.2577 273.388 -39.5078 265.053 -46.5613C260.663 -50.2873 257.516 -55.0229 254.841 -60.2248C254.278 -61.325 253.711 -62.3799 252.564 -62.9458C245.821 -62.9548 239.059 -62.9548 232.302 -62.9548C231.291 -62.0629 231.645 -61.0307 232.044 -59.9532C234.062 -54.5611 236.601 -49.4543 240.333 -45.1896C249.866 -34.3602 261.085 -26.4419 274.749 -22.8291C278.109 -21.9372 281.51 -21.6112 284.984 -21.5161C285.732 -21.4935 286.462 -21.4709 287.215 -21.4709C289.958 -21.4709 292.684 -21.5659 295.432 -21.5659C298.557 -21.5659 301.654 -21.4709 304.751 -21.0498C309.281 -20.3934 313.531 -19.3611 316.678 -15.3544C317.852 -13.8287 318.932 -12.2351 319.376 -10.3155C322.192 2.76395 320.288 18.0211 307.236 27.1391C302.447 30.4667 297.586 33.654 293.056 37.4298C283.056 45.7012 277.093 56.5758 274.862 69.7957C273.851 75.7491 273.597 81.7478 273.429 87.7239C273.243 95.8324 272.726 103.968 270.096 111.701C267.28 120.112 263.053 127.546 256.151 132.816C251.902 136.076 247.231 137.9 242.229 137.9C240.728 137.9 239.2 137.737 237.649 137.407C231.382 136.026 227.273 131.757 224.879 125.713C223.001 120.955 222.321 115.916 222.017 110.831C221.079 95.7146 219.337 80.7156 216.521 65.8297C215.21 58.7263 214.666 51.4871 214.031 44.2434C213.002 32.9703 209.76 22.6797 202.526 13.9601C199.003 9.79037 194.967 6.13229 191.235 2.14823C186.115 -3.31173 182.804 -9.70885 180.95 -17.1654C179.331 -23.4946 178.016 -29.8691 176.279 -36.1711C173.952 -44.5829 170.737 -52.6008 167.78 -60.7817C167.404 -61.8139 166.746 -62.4478 165.903 -62.9594C151.822 -62.9548 137.737 -62.9548 123.652 -62.9548Z" fill="#CFD9B5"/>
<path d="M-54.3006 -61.9904H-45.4984C-44.7456 -61.5467 -44.4645 -60.7499 -44.1833 -59.3419C-42.7503 -52.5464 -40.0974 -45.7735 -35.5671 -37.3572C-33.4992 -33.5587 -31.3905 -29.7648 -29.2999 -25.9664C-25.9668 -19.9903 -22.5385 -13.8014 -19.2734 -7.63975C-15.5412 -0.491085 -11.3374 6.98354 -4.99763 12.7966C2.58466 19.7325 10.0762 23.1325 17.917 23.1325C18.6199 23.1325 19.3274 23.1099 20.0529 23.0601C27.2588 22.544 33.1042 19.3567 37.4713 13.5436C43.0809 6.13692 44.9856 -2.72306 46.1329 -10.4105C47.0036 -16.4318 47.4026 -22.5981 47.7745 -28.5515L47.9876 -31.6437C48.5726 -40.6666 49.8877 -49.7621 51.1575 -58.5496L51.3933 -60.098C51.5112 -60.8721 51.7924 -61.4109 52.3547 -61.9949H73.2241C72.2854 -57.282 70.7345 -52.6414 68.5759 -48.1911C63.5059 -37.7601 59.8916 -26.487 57.5426 -13.6928L57.1662 -11.7687C55.6153 -3.47007 53.9963 5.08206 51.2255 13.1226C49.7245 17.6907 47.9604 22.4489 44.6772 26.107C39.3941 31.8748 32.8231 34.6863 24.556 34.6863C22.6559 34.6863 20.6107 34.546 18.5247 34.2155C4.29883 32.151 -7.74575 24.278 -18.2848 10.2161C-22.9783 3.93665 -26.9962 -3.09431 -30.8463 -9.84456L-31.3406 -10.7138C-32.7509 -13.1269 -34.1794 -15.5671 -35.6124 -17.9575C-40.2833 -25.7853 -45.0948 -33.8938 -48.691 -42.5681C-51.8336 -50.0609 -53.5705 -56.1094 -54.3006 -61.9904ZM-55.3799 -62.9547C-54.6271 -55.6431 -52.3506 -48.7977 -49.5798 -42.1878C-44.859 -30.8423 -38.2427 -20.7192 -32.1841 -10.2203C-28.0755 -3.04903 -23.9896 4.17207 -19.0602 10.7774C-9.34201 23.7618 2.72523 32.9025 18.3841 35.1752C20.4747 35.4786 22.538 35.6687 24.5606 35.6687C32.2608 35.6687 39.4667 33.233 45.3846 26.7408C48.7404 23.0148 50.5498 18.2566 52.1461 13.4531C55.1527 4.71082 56.7717 -4.4525 58.4858 -13.5253C60.6943 -25.5001 64.168 -36.918 69.4511 -47.7655C71.7503 -52.5464 73.4418 -57.6079 74.3805 -62.9547C66.9116 -62.9547 59.4472 -62.9547 51.9602 -62.9547C51.162 -62.2303 50.6451 -61.4562 50.4319 -60.2338C49.0715 -50.7671 47.6611 -41.2959 47.0262 -31.7116C46.5546 -24.6082 46.2054 -17.5546 45.1715 -10.5463C43.9289 -2.06207 41.9064 6.09618 36.6959 12.9868C32.424 18.6595 26.7192 21.6114 19.9804 22.0822C19.2775 22.1546 18.5972 22.1773 17.9125 22.1773C9.31892 22.1773 2.11304 18.0302 -4.3446 12.0994C-10.4485 6.49911 -14.5798 -0.744621 -18.4299 -8.0789C-23.7084 -18.0934 -29.2954 -27.8679 -34.7191 -37.828C-38.4059 -44.6733 -41.5985 -51.7496 -43.2401 -59.532C-43.5212 -60.94 -43.875 -62.2982 -45.2581 -62.9547C-48.6411 -62.9547 -51.9969 -62.9547 -55.3799 -62.9547Z" fill="#CFD9B5"/>
<path d="M-114.963 -61.9905H-95.9711C-95.7579 -61.4065 -95.9257 -60.7726 -96.1842 -59.8128L-96.3021 -59.3918C-98.8825 -49.8527 -103.98 -41.9525 -109.072 -34.831C-110.623 -32.7213 -112.197 -30.6115 -113.793 -28.5018C-117.031 -24.2371 -120.369 -19.8048 -123.253 -15.0964C-125.012 -12.2351 -127.175 -8.34612 -128.064 -3.75087C-128.885 0.654221 -127.828 4.03162 -124.776 6.56239C-122.781 8.20129 -120.6 8.9981 -118.908 9.51421C-113.249 11.2029 -107.403 11.624 -101.771 12.045L-98.7192 12.2804L-97.3588 12.3755C-92.452 12.7965 -87.3594 13.2176 -82.498 14.2498C-69.8186 16.9209 -61.3475 23.8115 -56.5813 35.3427C-51.5794 47.2948 -47.5207 60.913 -43.7386 78.1395C-41.3669 89.0595 -41.6254 99.4225 -44.4914 109.826C-46.1103 115.78 -47.498 121.217 -48.015 126.913C-49.0943 139.711 -46.6319 149.25 -40.2422 156.96C-35.8525 162.235 -30.4288 165.119 -24.9598 165.119C-20.8285 165.119 -16.7426 163.43 -13.1283 160.265C-10.1217 157.594 -7.28291 154.593 -4.3942 151.125C0.956924 144.818 5.65503 140.155 10.3486 136.452C15.7723 132.255 21.8535 128.927 27.7216 125.717L29.0594 124.966L31.0774 123.843C36.1701 121.099 41.4078 118.265 46.0561 114.304C52.3958 108.912 55.4477 101.953 55.1394 93.6321C54.8809 86.3431 53.1667 78.8911 49.7157 70.2665C46.0515 61.0806 40.1381 55.4531 31.5899 52.9449C26.6151 51.5143 20.3933 49.735 14.6386 47.485C-3.53258 40.4314 -18.7697 29.0632 -30.6692 13.6884C-42.5233 -1.5687 -52.7584 -19.3113 -63.8643 -43.8268C-66.0456 -48.6077 -67.855 -53.8096 -69.2154 -59.2243L-69.356 -59.7404C-69.6372 -60.75 -69.7778 -61.4065 -69.4513 -61.9905H-55.7877C-55.2254 -61.3567 -55.0123 -60.4693 -54.8037 -59.4597C-52.9716 -50.2013 -49.5432 -41.038 -44.3327 -31.4989C-39.426 -22.5438 -34.1429 -13.6612 -29.0502 -5.0638L-26.869 -1.40571C-21.3999 7.92059 -16.3299 15.3771 -9.30998 21.3758C1.88658 30.8923 12.2396 35.2974 23.2729 35.2974C23.7899 35.2974 24.3069 35.2974 24.8465 35.2974C38.111 34.736 46.3735 28.8052 50.8811 16.595C54.0737 8.01567 55.9284 -1.02994 57.5247 -9.5368C59.4248 -19.6871 61.8646 -31.4491 66.7985 -42.1608L67.1749 -42.9802C69.7371 -48.6303 72.3627 -54.4661 73.891 -60.7455C73.9636 -61.1439 74.1721 -61.3567 74.5486 -61.7551C74.6438 -61.8275 74.7118 -61.9181 74.7798 -61.9905H121.262C119.97 -60.75 118.704 -59.5276 117.457 -58.3098C116.428 -57.3002 115.367 -56.363 114.288 -55.4032C111.843 -53.2482 109.286 -50.9981 107.29 -48.0916C103.817 -43.0798 102.334 -38.4846 102.619 -33.6313C102.9 -28.8278 104.143 -23.6938 106.56 -17.5275C108.111 -13.5888 109.73 -9.67715 111.349 -5.76101C113.276 -1.12049 115.199 3.52003 117.031 8.23298C119.893 15.6171 122.831 24.4273 122.713 33.8713C122.618 46.3169 114.047 58.0608 102.805 61.153C99.9392 61.9724 97.1004 62.0222 94.0711 62.0675C92.756 62.0901 91.4182 62.1128 90.0804 62.2079C82.3576 62.7692 78.4123 64.6707 76.9339 74.0197C76.3716 77.3925 76.3943 80.7699 76.4169 84.0749C76.4396 86.7686 76.4396 89.5846 76.1357 92.2784C75.5236 97.5527 74.6801 103.647 72.3582 109.224C68.9299 117.333 62.826 123.1 53.1304 127.365C50.1238 128.678 47.0265 129.896 44.0199 131.091C37.6122 133.599 30.9913 136.225 24.8647 139.929C17.491 144.406 11.6728 149.653 7.09258 155.96C4.62561 159.287 2.44435 162.923 0.35379 166.413C-2.08597 170.47 -4.59827 174.662 -7.55954 178.366C-11.8087 183.803 -15.3776 186.008 -19.9533 186.008C-21.9713 186.008 -24.2251 185.587 -26.878 184.695C-33.966 182.372 -40.2604 177.546 -46.6908 169.46C-56.7627 156.734 -60.6582 140.866 -58.6175 120.945C-58.1459 116.305 -57.0212 111.687 -55.9419 107.21C-55.4975 105.43 -55.0712 103.647 -54.6721 101.867C-52.772 93.1975 -52.2777 86.4472 -53.0033 80.0229C-54.7628 64.9741 -58.7535 52.0847 -65.2112 40.6034C-69.483 32.9613 -75.5642 27.8046 -83.2644 25.3237C-88.2165 23.73 -93.4316 22.9332 -99.2271 22.9332C-101.667 22.9332 -104.252 23.0736 -106.905 23.3543C-119.253 24.6446 -131.18 28.3208 -142.286 34.324C-154.892 41.0607 -167.781 44.343 -181.703 44.343H-182.006V-20.3888C-181.793 -20.5744 -181.562 -20.6695 -181.208 -20.6695C-180.995 -20.6695 -180.787 -20.6242 -180.551 -20.5744C-179 -20.339 -177.499 -20.0357 -175.975 -19.7324C-174.261 -19.4019 -172.524 -19.0759 -170.787 -18.7952C-167.499 -18.3017 -164.756 -18.0708 -162.171 -18.0708C-157.477 -18.0708 -153.319 -18.8903 -149.469 -20.579C-142.168 -23.8613 -135.569 -28.9228 -129.325 -36.0262C-122.659 -43.6412 -118.314 -51.6138 -116.015 -60.4467C-115.852 -61.171 -115.503 -61.6645 -114.963 -61.9905ZM-115.194 -62.9548C-116.133 -62.484 -116.695 -61.7143 -116.954 -60.7047C-119.348 -51.469 -123.974 -43.5959 -130.055 -36.6601C-135.76 -30.1905 -142.168 -24.9433 -149.868 -21.4709C-153.904 -19.6916 -158.012 -19.0351 -162.171 -19.0351C-164.987 -19.0351 -167.803 -19.3158 -170.647 -19.7595C-173.912 -20.2756 -177.127 -21 -180.387 -21.5388C-180.669 -21.584 -180.95 -21.6112 -181.208 -21.6112C-181.888 -21.6112 -182.478 -21.4256 -182.968 -20.7691C-182.968 1.26089 -182.968 23.2683 -182.968 45.2756C-182.546 45.2756 -182.124 45.2756 -181.698 45.2756C-167.658 45.2756 -154.444 41.9028 -141.837 35.1525C-130.803 29.1991 -119.112 25.5908 -106.809 24.3005C-104.274 24.0424 -101.739 23.8794 -99.2271 23.8794C-93.944 23.8794 -88.7108 24.5585 -83.5683 26.2246C-75.9361 28.6875 -70.068 33.8441 -66.0546 41.0607C-59.2932 53.0626 -55.5837 66.1874 -53.9647 80.1089C-53.1212 87.4206 -54.06 94.5466 -55.6063 101.673C-57.0167 108.024 -58.8941 114.304 -59.5743 120.846C-61.4291 138.914 -58.7309 155.792 -47.4391 170.04C-41.97 176.93 -35.5124 182.884 -27.1773 185.6C-24.4519 186.515 -22.0847 186.959 -19.9488 186.959C-14.7382 186.959 -10.9561 184.265 -6.80222 178.968C-1.23795 171.982 2.56679 163.688 7.87257 156.517C12.6841 149.907 18.6247 144.845 25.3635 140.744C34.2836 135.351 44.1197 132.354 53.5114 128.23C62.1049 124.459 69.3108 118.949 73.2561 109.595C75.5326 104.135 76.426 98.2998 77.1062 92.3916C77.791 86.2978 76.8931 80.204 77.8817 74.1555C79.2421 65.5762 82.4574 63.7019 90.1575 63.1405C94.4792 62.8598 98.7738 63.2808 103.068 62.063C114.809 58.8305 123.566 46.8285 123.702 33.8894C123.797 24.6763 121.167 16.1694 117.929 7.87532C114.551 -0.771885 110.859 -9.27874 107.458 -17.9078C105.463 -22.9694 103.889 -28.1985 103.585 -33.7037C103.281 -38.9056 105.231 -43.4058 108.116 -47.5302C110.886 -51.5867 114.759 -54.3257 118.142 -57.608C119.97 -59.3873 121.829 -61.171 123.661 -62.9503C107.272 -62.9503 90.8378 -62.9503 74.3853 -62.9503C73.8683 -62.2938 73.1382 -61.9181 72.975 -60.9583C71.4014 -54.4887 68.6532 -48.5579 65.955 -42.5592C61.1662 -32.1508 58.7219 -20.9955 56.6087 -9.69979C54.9398 -0.912231 53.135 7.85268 50.0105 16.269C45.7613 27.7548 38.1564 33.7988 24.8193 34.3149C24.3024 34.3602 23.8081 34.3602 23.2911 34.3602C11.0152 34.3602 0.752853 28.6422 -8.66151 20.6243C-15.9626 14.3902 -21.1732 6.39941 -26.0345 -1.87656C-31.9253 -11.8367 -37.8887 -21.7968 -43.4756 -31.9471C-48.2191 -40.6441 -51.9014 -49.7848 -53.8513 -59.6725C-54.1098 -60.8903 -54.4137 -62.1082 -55.3796 -62.9548C-60.2138 -62.9548 -65.0751 -62.9548 -69.9093 -62.9548C-71.0611 -61.6872 -70.4716 -60.329 -70.1451 -58.9934C-68.7846 -53.624 -66.9979 -48.4221 -64.7214 -43.4329C-55.4703 -22.9739 -45.0492 -3.26192 -31.4083 14.2951C-19.1778 30.091 -3.77747 41.3414 14.2985 48.3723C19.8854 50.55 25.6356 52.216 31.3405 53.8549C39.8615 56.3404 45.4484 62.1535 48.8314 70.588C51.7655 77.972 53.9014 85.587 54.1825 93.6502C54.4864 101.854 51.4571 108.441 45.4257 113.57C40.2605 117.976 34.3697 120.955 28.5923 124.119C22.1347 127.682 15.6589 131.127 9.76361 135.696C4.27191 140.01 -0.566788 145.117 -5.14246 150.509C-7.81802 153.742 -10.6614 156.766 -13.7587 159.532C-17.3503 162.719 -21.2004 164.15 -24.9552 164.15C-30.2383 164.15 -35.3809 161.289 -39.4849 156.345C-46.4822 147.906 -47.9606 137.783 -47.0445 126.976C-46.5276 121.208 -45.0719 115.63 -43.5708 110.053C-40.6141 99.4135 -40.4463 88.7244 -42.7954 77.9222C-46.0106 63.2265 -49.9332 48.7888 -55.6834 34.9624C-60.8486 22.4715 -70.1224 15.8842 -82.2804 13.3081C-87.6542 12.1582 -93.1504 11.7598 -98.6421 11.3161C-105.331 10.7773 -112.07 10.5419 -118.623 8.59517C-120.595 8.01115 -122.473 7.21433 -124.164 5.80634C-127.144 3.32082 -127.828 0.18338 -127.121 -3.56978C-126.323 -7.64891 -124.541 -11.1621 -122.427 -14.5848C-118.178 -21.5478 -112.99 -27.7548 -108.297 -34.2742C-102.828 -41.9163 -97.8984 -49.8346 -95.3634 -59.1654C-95.0369 -60.4331 -94.5426 -61.6962 -95.4088 -62.9639C-101.98 -62.9548 -108.623 -62.9548 -115.194 -62.9548Z" fill="#CFD9B5"/>
<path d="M167.273 -61.9904H187.181C188.119 -61.3792 188.546 -60.2791 188.967 -59.0386L189.271 -58.2644C191.266 -53.2481 194.178 -48.7027 198.264 -44.3881C199.484 -43.1205 200.917 -41.7623 202.867 -41.7623C203.334 -41.7623 203.805 -41.8573 204.3 -41.9977C206.671 -42.8669 207.116 -45.0899 207.47 -46.9189L207.587 -47.4803C208.127 -50.1741 208.082 -52.8723 208.032 -55.4937C207.986 -56.8292 207.986 -58.1648 208.032 -59.523V-59.9984C208.082 -60.9355 208.127 -61.5467 208.503 -61.9904H231.554C232.683 -57.7936 234.651 -53.6239 237.563 -49.2641C241.975 -42.5138 248.034 -36.7731 256.555 -31.2181C264.795 -25.826 272.635 -22.829 280.544 -22.0321C283.669 -21.7062 286.698 -21.6564 289.02 -21.6564C290.285 -21.6564 291.6 -21.6564 292.893 -21.7016C294.185 -21.7016 295.473 -21.7016 296.765 -21.7016C297.613 -21.7016 298.457 -21.7016 299.3 -21.7016C303.527 -21.6066 306.905 -21.1403 309.867 -20.1533C315.404 -18.3741 318.741 -14.5304 319.821 -8.71726C320.551 -4.96862 320.714 -1.05248 320.288 4.03172C319.63 13.2448 315.921 20.389 308.928 25.8987C306.23 28.0311 303.386 30.0458 300.616 32.0152C299.114 33.0927 297.609 34.1702 296.108 35.2477C285.029 43.2882 278.009 54.4436 275.238 68.433C273.973 74.8075 273.737 81.3721 273.524 87.6742C273.429 89.9016 273.338 92.1517 273.22 94.352C272.635 104.688 270.64 112.751 266.903 119.737C261.103 130.544 254.083 136.329 244.742 137.923C243.803 138.086 242.814 138.158 241.853 138.158C233.985 138.158 226.992 132.907 224.457 125.056C222.394 118.682 221.877 111.791 221.428 105.743L221.169 101.899C220.748 95.9456 220.321 89.7839 219.315 83.8033C217.179 70.7737 214.807 55.6071 213.397 40.6307C212.313 29.2399 207.787 19.3477 199.896 11.1713C198.654 9.85839 197.361 8.54546 196.092 7.23254C193.933 5.02773 191.797 2.82745 189.707 0.554722C186.772 -2.63252 184.496 -6.29061 182.99 -10.3652C180.832 -15.9655 179.539 -21.919 178.297 -27.6868C176.206 -37.2711 172.873 -46.4616 169.658 -55.3216C168.869 -57.54 168.071 -59.7675 167.273 -61.9904ZM165.912 -62.9547C169.998 -51.2832 174.692 -39.7974 177.367 -27.5645C178.637 -21.6564 179.902 -15.7075 182.088 -10.0347C183.684 -5.76996 186.011 -2.0168 189.013 1.21571C192.346 4.824 195.847 8.3191 199.225 11.8549C206.83 19.728 211.388 29.4799 212.444 40.7303C213.809 55.2358 216.036 69.6056 218.362 83.9482C219.609 91.1648 219.959 98.5262 220.476 105.815C220.97 112.402 221.509 119.012 223.527 125.36C226.248 133.704 233.717 139.118 241.862 139.118C242.869 139.118 243.903 139.023 244.937 138.86C255.784 137.009 262.613 129.792 267.756 120.18C272.028 112.235 273.674 103.538 274.191 94.4245C274.658 85.7999 274.522 77.1527 276.186 68.6187C278.93 54.7922 285.741 43.9628 296.679 36.0173C300.956 32.898 305.368 29.9462 309.545 26.6412C316.633 21.0409 320.578 13.6342 321.285 4.07246C321.612 -0.332638 321.612 -4.59739 320.791 -8.91193C319.594 -15.2864 315.834 -19.2478 310.157 -21.0995C306.66 -22.2223 303.019 -22.5981 299.309 -22.6479C298.461 -22.6931 297.618 -22.6931 296.774 -22.6931C294.194 -22.6931 291.609 -22.6207 289.029 -22.6207C286.213 -22.6207 283.437 -22.6931 280.648 -22.9738C272.082 -23.8431 264.332 -27.2884 257.104 -32.0194C249.875 -36.7052 243.277 -42.3327 238.37 -49.7847C235.694 -53.814 233.486 -58.1286 232.316 -62.9547C224.285 -62.9547 216.213 -62.9547 208.136 -62.9547C207.034 -62.1126 207.152 -60.8223 207.08 -59.5818C206.916 -55.5978 207.456 -51.6364 206.658 -47.675C206.259 -45.8006 206.073 -43.6683 204.005 -42.9394C203.606 -42.799 203.229 -42.7266 202.876 -42.7266C201.302 -42.7266 200.06 -43.8992 198.98 -45.0491C195.248 -49.0105 192.219 -53.4383 190.178 -58.5949C189.543 -60.2338 189.122 -62.0628 187.453 -62.9547C180.274 -62.9547 173.068 -62.9547 165.912 -62.9547Z" fill="#CFD9B5"/>
<path d="M177.975 181.802C182.038 181.802 185.58 182.997 188.868 185.456C191.988 187.801 194.736 190.87 197.552 195.112C202.998 203.434 206.708 212.945 210.277 222.136L211.17 224.454L211.501 225.323C214.739 233.572 218.072 242.106 222.394 250.002C224.929 254.597 225.727 259.305 224.834 264.417C223.568 271.941 222.956 280.145 223.006 289.494C223.051 290.571 223.147 291.603 223.237 292.681C223.355 293.758 223.473 294.886 223.473 296.008H195.679C194.645 295.257 194.01 294.134 193.33 292.916C193.071 292.468 192.813 292.002 192.532 291.581C189.738 287.103 186.945 282.603 185.208 277.659C180.605 264.417 179.081 249.771 180.487 232.943L180.673 230.647C181.072 226.242 181.449 221.67 180.696 217.102C179.662 210.351 174.687 205.806 168.347 205.806C167.735 205.806 167.128 205.851 166.52 205.924C159.545 206.883 152.575 209.577 144.617 214.408C140.345 217.034 136.472 220.339 133.066 224.205C127.711 230.416 123.652 238.127 121.022 247.104C116.138 263.887 112.428 278.931 109.707 293.111L109.639 293.509C109.403 294.8 109.24 295.569 108.487 296.018H78.6933C79.7771 291.305 81.3915 287.461 83.6227 284.251C86.2529 280.498 89.2096 276.985 91.7446 274.033C97.0277 267.867 101.209 261.913 104.469 255.824C107.077 251.088 109.258 246.049 111.394 241.173C112.777 237.986 114.21 234.681 115.761 231.494C119.566 223.666 124.872 216.681 132.078 210.12C141.143 201.894 151.21 194.605 160.742 187.95C164.688 185.157 168.538 183.377 172.456 182.486C174.383 182.037 176.238 181.802 177.975 181.802ZM177.975 180.842C176.097 180.842 174.17 181.1 172.247 181.544C167.835 182.526 163.917 184.518 160.207 187.144C150.321 194.057 140.463 201.206 131.447 209.41C124.731 215.503 119.004 222.557 114.895 231.064C111 239.15 107.875 247.566 103.626 255.367C100.08 261.954 95.8079 267.812 91.019 273.39C88.1576 276.718 85.3641 280.095 82.8246 283.703C80.0538 287.687 78.4847 292.21 77.4961 296.968C87.8718 296.968 98.2975 296.968 108.723 296.968C110.224 296.244 110.365 294.745 110.646 293.288C113.63 277.727 117.548 262.465 121.96 247.349C124.405 238.96 128.205 231.317 133.792 224.825C137.125 221.027 140.884 217.817 145.106 215.214C151.822 211.157 158.842 207.947 166.633 206.87C167.223 206.802 167.785 206.752 168.347 206.752C174.125 206.752 178.773 210.854 179.757 217.251C180.605 222.48 179.948 227.682 179.526 232.861C178.233 248.281 179.245 263.403 184.292 277.981C186.074 283.065 188.918 287.615 191.734 292.092C192.813 293.781 193.566 295.818 195.375 296.968C205.021 296.968 214.716 296.968 224.416 296.968C224.557 294.437 224.04 291.952 223.995 289.494C223.945 281.172 224.394 272.806 225.804 264.58C226.743 259.188 225.827 254.221 223.242 249.535C218.829 241.427 215.446 232.753 212.068 224.105C208.1 213.932 204.318 203.692 198.359 194.574C195.847 190.775 193.003 187.352 189.439 184.681C185.866 181.992 182.015 180.842 177.975 180.842Z" fill="#CFD9B5"/>
<path d="M162.719 30.7973C163.776 30.7973 164.928 30.9829 166.098 31.4085C174.596 34.22 181.122 38.9103 186.006 45.7511C190.278 51.7046 193.475 58.5001 196.549 65.0647L197.887 67.926C205.211 83.3732 208.684 99.0288 208.544 115.784C208.499 123.707 208.92 130.525 209.836 136.642C211.269 146.253 215.963 151.641 224.557 153.61C228.103 154.384 231.694 154.783 235.218 154.783C239.349 154.783 243.48 154.244 247.448 153.189C260.005 149.744 269.633 141.142 277.755 126.098C284.938 112.692 286.865 97.9739 287.85 85.3155C288.484 76.6909 290.149 69.9633 293.133 64.1276C296.207 58.1288 300.665 54.3304 306.678 52.5512C307.712 52.2478 308.746 52.0803 309.685 52.0803C314.193 52.0803 316.492 55.5981 317.666 58.5272C319.594 63.4711 320.482 68.8405 321.303 74.0198C321.516 75.378 321.752 76.7407 321.988 78.0989C324.428 92.4415 329.688 105.145 337.647 115.834C343.447 123.567 350.535 130.086 357.392 136.411L360.679 139.435C366.502 144.945 372.044 150.966 377.585 157.857C378.896 159.496 380.211 161.139 381.526 162.778C385.285 167.464 389.131 172.295 393.122 176.935C400.754 185.723 409.438 193.41 417.02 199.929V232.531C416.689 233.115 416.481 233.726 416.245 234.337C415.941 235.157 415.655 235.931 415.161 236.587L412.789 239.96C410.794 242.753 408.799 245.542 406.899 248.399C399.974 258.644 390.936 265.648 379.268 269.773C376.356 270.805 373.35 271.742 370.438 272.657C367.667 273.499 364.947 274.345 362.244 275.278C353.065 278.488 347.85 284.419 346.326 293.464C346.159 294.451 345.995 295.388 345.433 296.022H326.722C325.974 295.529 325.457 294.945 325.126 294.148C323.294 290.159 320.387 287.375 316.442 285.849C310.501 283.644 304.565 282.544 298.788 282.544C294.516 282.544 290.221 283.155 286.017 284.369C279.56 286.198 274.984 289.553 271.978 294.564C271.646 295.08 271.179 295.411 270.613 295.782C270.499 295.877 270.381 295.95 270.286 296.018H251.834C251.974 295.664 252.115 295.338 252.255 294.985C253.031 293.179 253.829 291.305 254.695 289.525C259.389 279.986 266.694 273.82 276.39 271.199C281.814 269.7 287.446 269.673 292.892 269.628C295.219 269.628 297.658 269.605 300.007 269.487L302.824 269.302C307.916 268.971 313.154 268.645 318.269 267.405C327.144 265.227 332.917 259.717 335.452 250.998C336.98 245.606 337.47 239.675 337.003 232.811C336.531 226.858 335.357 222.24 333.221 218.279C327.189 207.241 317.562 201.894 303.712 201.894C296.434 201.962 289.487 203.936 282.961 207.757C280.285 209.301 277.61 210.922 274.93 212.515C271.175 214.766 267.252 217.133 263.357 219.311C259.248 221.606 255.09 222.779 250.986 222.779C246.247 222.779 241.385 221.185 236.569 218.093C231.359 214.743 226.924 210.075 222.579 203.42C218.072 196.624 214.575 189.028 211.17 181.716L209.387 177.895C207.886 174.708 206.594 172.363 205.184 170.28C201.451 164.865 197.062 161.75 191.824 160.741C189.475 160.297 187.176 160.084 184.899 160.084C178.183 160.084 171.589 162.008 165.295 165.78C159.332 169.365 154.166 174.169 149.192 178.809L147.759 180.145C141.587 185.935 135.129 191.581 128.885 197.064L126.939 198.752C120.813 204.163 113.793 210.772 108.088 218.953C104.918 223.503 102.288 228.492 99.7527 233.296C98.2245 236.202 96.6554 239.177 94.9866 242.038C89.0686 252.048 81.1825 258.54 70.8748 261.913C68.9293 262.57 66.934 262.896 64.9386 262.896C58.9526 262.896 53.2478 259.894 49.3251 254.669C46.0872 250.427 43.2439 245.882 40.8495 241.966C36.2738 234.582 30.6823 225.957 23.8528 217.921C21.4131 215.037 18.8781 211.895 16.715 208.31C12.2527 200.88 10.6836 192.98 11.9715 184.125C13.3819 174.069 17.0642 165.888 23.2406 159.116C28.7596 153.067 35.9654 149.762 41.6476 147.539C45.8015 145.923 50.1459 144.633 54.3497 143.392C57.6375 142.432 61.0432 141.423 64.3536 140.273C72.4302 137.439 79.0738 132.024 84.6607 123.68C87.5721 119.343 89.8032 114.562 91.9845 109.922C92.7328 108.305 93.4856 106.689 94.261 105.095C96.9139 99.7033 99.9432 95.1805 103.535 91.3142C107.199 87.3301 111.403 83.9075 115.439 80.5572C118.092 78.3796 120.84 76.1521 123.42 73.7617C128.703 68.8858 133.751 63.4982 138.821 57.3094C142.952 52.3157 146.734 46.8784 150.371 41.5814C151.636 39.7524 152.906 37.9505 154.176 36.1441C156.683 32.5539 159.477 30.7973 162.719 30.7973ZM162.719 29.8602C159.15 29.8602 156.076 31.7571 153.373 35.5782C148.348 42.7042 143.605 50.0385 138.09 56.6937C133.324 62.5068 128.254 67.9667 122.763 73.0509C116.237 79.0723 108.913 84.0433 102.827 90.6532C98.9546 94.8229 95.9026 99.5585 93.3903 104.67C90.3384 110.904 87.7082 117.419 83.8581 123.137C78.7836 130.707 72.4257 136.425 64.0226 139.354C56.4857 142.002 48.7401 143.736 41.2984 146.643C34.351 149.364 27.7301 152.782 22.5423 158.455C16.0393 165.603 12.4023 174.182 11.0147 183.98C9.72222 192.957 11.3185 201.206 15.8987 208.798C18.0119 212.316 20.5243 215.454 23.1273 218.528C29.4443 225.98 34.8408 234.088 40.0287 242.455C42.6816 246.792 45.4297 251.152 48.5497 255.253C52.6809 260.741 58.6443 263.833 64.9386 263.833C67.002 263.833 69.0926 263.502 71.1831 262.823C81.772 259.351 89.894 252.533 95.812 242.527C100.27 234.908 103.839 226.731 108.863 219.488C114.219 211.823 120.745 205.494 127.597 199.472C134.594 193.333 141.591 187.217 148.421 180.842C153.94 175.731 159.386 170.457 165.771 166.59C171.852 162.959 178.215 161.035 184.904 161.035C187.112 161.035 189.343 161.248 191.643 161.669C197.184 162.746 201.175 166.169 204.39 170.81C206.009 173.177 207.324 175.731 208.544 178.284C212.63 187.027 216.48 195.909 221.763 203.927C225.658 209.881 230.166 215.082 236.061 218.881C240.991 222.091 245.97 223.734 250.995 223.734C255.271 223.734 259.543 222.562 263.837 220.149C270.458 216.423 276.889 212.389 283.442 208.568C289.736 204.914 296.588 202.922 303.631 202.85C303.676 202.85 303.699 202.85 303.726 202.85C315.748 202.85 325.983 206.974 332.391 218.718C334.735 223.1 335.679 227.931 336.028 232.875C336.477 238.851 336.218 244.877 334.527 250.735C332.019 259.45 326.31 264.448 318.047 266.459C312.129 267.912 306.075 268.102 299.971 268.523C292.04 268.944 284.008 268.102 276.168 270.257C266.023 273.001 258.654 279.33 253.865 289.1C252.596 291.676 251.516 294.347 250.369 296.973C257.103 296.973 263.842 296.973 270.603 296.973C271.379 296.389 272.245 295.963 272.812 295.049C275.982 289.752 280.793 286.845 286.312 285.274C290.489 284.079 294.67 283.495 298.801 283.495C304.624 283.495 310.397 284.622 316.129 286.732C319.816 288.158 322.564 290.761 324.251 294.514C324.745 295.642 325.471 296.389 326.482 296.973C332.935 296.973 339.37 296.973 345.85 296.973C346.862 296.131 347.07 294.863 347.306 293.623C348.852 284.319 354.421 279.022 362.566 276.183C368.198 274.241 373.953 272.666 379.608 270.674C391.158 266.572 400.572 259.468 407.71 248.924C410.386 244.94 413.179 241.069 415.95 237.135C416.934 235.772 417.215 234.133 417.991 232.748C417.991 221.661 417.991 210.555 417.991 199.468C409.561 192.228 401.23 184.795 393.883 176.288C388.528 170.076 383.508 163.634 378.343 157.232C373.037 150.645 367.45 144.461 361.346 138.715C353.342 131.286 345.075 124.115 338.436 115.232C330.264 104.24 325.289 91.7262 322.94 77.9178C321.766 71.2853 321.063 64.4897 318.573 58.1605C316.791 53.6377 313.712 51.1296 309.698 51.1296C308.669 51.1296 307.59 51.2699 306.411 51.6231C300.143 53.4747 295.468 57.5041 292.276 63.6929C288.852 70.4432 287.441 77.7095 286.875 85.234C285.818 99.3185 283.637 113.077 276.921 125.618C270.064 138.367 261.098 148.445 247.199 152.243C243.258 153.298 239.268 153.814 235.227 153.814C231.753 153.814 228.23 153.438 224.756 152.664C216.353 150.74 212.172 145.561 210.811 136.492C209.777 129.624 209.474 122.666 209.519 115.798C209.687 98.7119 205.977 82.6806 198.794 67.4914C195.152 59.8492 191.751 52.0713 186.822 45.1807C181.566 37.8464 174.614 33.1787 166.447 30.4623C165.114 30.0458 163.889 29.8602 162.719 29.8602Z" fill="#CFD9B5"/>
<path d="M-98.2933 35.6234C-96.6743 35.6234 -95.0282 35.7412 -93.4092 35.9494C-86.5798 36.7915 -81.0835 39.698 -77.1155 44.574C-69.887 53.2936 -65.987 64.2135 -65.1435 77.8997C-64.6039 86.2436 -66.2001 94.1166 -68.0095 101.433C-70.5218 111.769 -71.5785 120.511 -71.2746 128.95C-71.0388 135.112 -70.4538 141.3 -69.4924 147.372C-67.2613 161.669 -62.3546 173.435 -54.4684 183.323C-49.8656 189.159 -45.172 194.945 -40.5011 200.69C-34.8688 207.676 -28.715 215.01 -21.0647 220.918C-13.2012 227.012 -7.07466 233.454 -2.30852 240.653C2.03587 247.24 6.47096 253.098 11.2598 258.581C17.858 266.151 25.6489 272.317 33.1631 278.293L36.2876 280.779C41.5934 285.021 45.0218 290.014 46.7586 296.013H20.9598C20.8419 295.732 20.724 295.429 20.5607 295.166C15.7719 286.424 9.12839 279.416 2.69342 273.159C-4.96141 265.775 -13.7636 260.012 -24.2119 255.511C-34.7055 250.989 -42.1699 243.043 -46.3737 231.978L-47.8067 228.135C-50.0379 222.272 -52.3371 216.205 -54.7814 210.297C-57.6474 203.452 -61.6108 197.218 -65.4609 191.196C-66.3044 189.861 -67.1524 188.525 -67.9732 187.19C-71.8959 180.955 -74.5216 174.441 -75.7913 167.853C-78.1857 155.199 -79.0791 142.446 -79.8999 128.289C-80.5575 116.803 -79.4555 105.041 -76.6121 93.3424C-73.9366 82.2097 -74.0998 72.8834 -77.1064 64.0234C-80.884 53.0537 -88.6567 46.7743 -98.4248 46.7743C-101.218 46.7743 -104.13 47.2904 -107.086 48.3226C-115.585 51.3695 -122.301 57.0423 -128.967 63.0636C-138.227 71.3894 -145.905 76.9897 -153.886 81.2816C-157.337 83.1106 -160.833 84.8899 -164.334 86.6736C-170.18 89.6481 -176.211 92.7222 -182.011 96.1177V71.8829L-181.989 71.8602L-180.392 71.5343C-165.368 68.5598 -154.38 64.4309 -144.825 58.1741C-141.701 56.1594 -138.676 53.9546 -135.715 51.7996C-131.724 48.8931 -127.57 45.8914 -123.271 43.3154C-114.469 38.1542 -106.297 35.6234 -98.2933 35.6234ZM-98.2933 34.6863C-107.377 34.6863 -115.784 37.8056 -123.766 42.514C-131.28 46.9689 -138.041 52.5919 -145.342 57.3728C-156.212 64.4761 -168.207 68.1523 -180.578 70.5926C-181.354 70.7556 -182.175 70.9185 -182.973 71.1087C-182.973 79.9687 -182.973 88.8966 -182.973 97.8018C-173.372 92.0612 -163.251 87.3709 -153.442 82.1237C-144.286 77.2025 -136.141 70.7782 -128.323 63.797C-121.797 57.8889 -115.081 52.2206 -106.746 49.219C-103.858 48.2366 -101.064 47.7205 -98.4112 47.7205C-89.1828 47.7205 -81.6504 53.6966 -78.0089 64.3358C-74.7438 73.97 -75.2381 83.5317 -77.5372 93.1387C-80.3534 104.715 -81.5279 116.459 -80.8477 128.343C-80.0722 141.631 -79.2061 154.968 -76.7164 168.048C-75.356 175.151 -72.5625 181.689 -68.7804 187.71C-64.1095 195.185 -59.1076 202.429 -55.6566 210.677C-52.6998 217.826 -49.9971 225.092 -47.2535 232.309C-42.9091 243.768 -35.3041 251.763 -24.5747 256.403C-14.7839 260.623 -5.88652 266.223 2.02226 273.843C8.76106 280.38 15.1235 287.225 19.749 295.66C19.9848 296.058 20.1254 296.552 20.2887 296.973C29.5171 296.973 38.741 296.973 48.0148 296.973C46.2779 289.869 42.3326 284.364 36.9089 280.027C28.2473 273.114 19.418 266.481 11.9989 257.947C7.06956 252.302 2.62994 246.371 -1.50131 240.114C-6.73454 232.214 -13.1695 225.817 -20.4706 220.167C-27.7944 214.494 -33.8303 207.418 -39.7438 200.083C-44.4147 194.343 -49.1128 188.552 -53.7111 182.739C-61.9056 172.449 -66.4813 160.451 -68.5492 147.231C-69.4879 141.16 -70.0729 135.044 -70.3087 128.905C-70.6352 119.624 -69.2521 110.578 -67.0708 101.673C-65.148 93.8449 -63.6651 85.9946 -64.1821 77.8589C-64.9576 65.2503 -68.4313 53.5788 -76.3673 43.9673C-80.757 38.6024 -86.6024 35.8362 -93.2959 34.9896C-94.9828 34.7814 -96.6517 34.6863 -98.2933 34.6863Z" fill="#CFD9B5"/>
<path d="M-44.0606 -61.9904H-34.2245C-33.4037 -57.1371 -31.6895 -52.311 -29.1319 -47.6252C-23.8487 -37.7601 -18.7561 -27.5645 -13.8494 -17.6723C-12.2078 -14.3674 -10.5389 -11.0624 -8.89733 -7.73483C-5.3284 -0.6586 -1.03388 4.43012 4.22655 7.75771C7.84083 10.0078 11.7408 11.203 15.5183 11.203C21.6449 11.203 27.046 8.13348 30.7328 2.57845C35.2858 -4.26688 36.2517 -12.0448 36.6236 -19.4063C36.8594 -24.2324 36.551 -29.1084 36.2472 -33.7987C35.9887 -37.5247 35.7529 -41.3684 35.7755 -45.117V-61.9904H50.8494C50.5683 -59.9033 50.2372 -57.7936 49.9334 -55.711C49.2305 -50.8577 48.4777 -45.8188 47.9607 -40.8523C47.4891 -36.1891 47.1399 -31.4309 46.7862 -26.8356C46.4597 -22.4305 46.1286 -18.0254 45.6842 -13.6158C44.7908 -4.75583 42.986 2.11213 40.0247 7.9705C35.4944 17.1565 27.5357 22.4308 18.2166 22.4308C14.9061 22.4308 11.5503 21.7743 8.26257 20.484C6.48499e-05 17.2017 -6.87931 11.1306 -12.7474 1.94462C-15.754 -2.74117 -18.4296 -7.78009 -21.0326 -12.656C-21.926 -14.3447 -22.8148 -16.0289 -23.7308 -17.6723C-25.5629 -21.0452 -27.4177 -24.3773 -29.2951 -27.6823C-31.431 -31.526 -33.5896 -35.347 -35.6802 -39.236C-39.4623 -46.3122 -42.2784 -53.9544 -44.0606 -61.9904ZM-45.2578 -62.9547C-43.4756 -54.4252 -40.5869 -46.3847 -36.5237 -38.7652C-32.601 -31.5486 -28.5197 -24.4226 -24.5743 -17.2241C-20.9827 -10.6368 -17.5997 -3.84132 -13.5637 2.46526C-8.09466 10.9948 -1.26063 17.7224 7.91792 21.3805C11.3236 22.716 14.7973 23.3951 18.2256 23.3951C27.3362 23.3951 35.9025 18.5192 40.9045 8.39606C44.3555 1.55074 45.8792 -5.90125 46.6547 -13.5162C47.548 -22.5845 48.0151 -31.6799 48.9312 -40.7481C49.7066 -48.1549 50.9492 -55.5389 51.9605 -62.9411C46.2783 -62.9411 40.5281 -62.9411 34.8232 -62.9411C34.8232 -56.9877 34.8232 -51.0569 34.8232 -45.1306C34.7507 -36.5739 36.093 -28.0218 35.6667 -19.4425C35.2903 -11.8502 34.2337 -4.39365 29.9392 2.07139C26.2523 7.62643 21.0191 10.2296 15.5229 10.2296C11.9313 10.2296 8.19909 9.10686 4.74806 6.94732C-0.979465 3.33904 -4.97014 -2.07566 -8.0221 -8.16945C-14.711 -21.507 -21.2412 -34.9124 -28.2838 -48.0824C-30.7735 -52.6279 -32.6056 -57.5989 -33.4037 -62.9411C-37.349 -62.9547 -41.2943 -62.9547 -45.2578 -62.9547Z" fill="#CFD9B5"/>
<path d="M143.795 -40.3136C145.695 -40.3136 147.409 -39.7748 148.865 -38.6747C151.074 -37.0811 152.643 -34.9261 153.84 -31.8792C156.048 -26.1611 156.611 -20.0221 155.531 -13.0817L155.486 -12.7557C154.806 -8.46832 154.121 -4.03607 152.008 -0.242161C150.928 1.7725 149.613 2.75946 147.994 2.75946C147.124 2.75946 146.162 2.50141 145.083 1.96265C140.457 -0.242157 136.607 -4.0587 133.274 -9.70881C130.268 -14.7704 128.767 -19.2705 128.531 -23.816C128.436 -25.4096 128.835 -26.958 129.261 -28.5516L129.374 -29.0903C130.88 -34.8763 137.877 -40.3136 143.795 -40.3136ZM143.795 -41.296C137.174 -41.296 129.991 -35.2022 128.463 -29.3212C127.991 -27.4695 127.451 -25.6903 127.592 -23.7662C127.851 -18.4239 129.801 -13.6657 132.431 -9.18817C135.483 -4.03154 139.333 0.278481 144.661 2.85906C145.858 3.42045 146.988 3.75095 147.994 3.75095C149.94 3.75095 151.586 2.62817 152.851 0.233208C155.082 -3.79612 155.763 -8.39136 156.465 -12.9368C157.499 -19.5467 157.168 -25.9936 154.729 -32.2278C153.604 -35.1343 152.003 -37.5972 149.423 -39.4715C147.736 -40.7346 145.79 -41.296 143.795 -41.296Z" fill="#CFD9B5"/>
<path d="M-98.1977 47.39C-92.6334 47.39 -87.7494 49.7125 -83.6635 54.2353C-78.6616 59.7677 -76.0812 67.0567 -75.5416 77.2025C-75.2377 83.2238 -76.4123 89.1093 -77.7228 94.5467C-80.4211 105.657 -81.4097 117.609 -80.6796 130.1C-80.0946 139.802 -79.106 149.459 -78.2398 157.64C-76.8567 170.271 -73.3558 180.679 -67.533 189.467C-63.3065 195.819 -58.9395 202.782 -55.5837 210.514C-53.026 216.278 -50.8402 222.326 -48.727 228.185L-48.1873 229.733C-43.5618 242.6 -36.1427 251.106 -25.4405 255.77C-23.2819 256.707 -21.146 257.762 -19.0554 258.794L-17.4591 259.591C-7.4099 264.675 1.86386 272.362 11.7 283.803C14.6794 287.176 17.0284 290.458 18.8832 293.835C19.0011 294.021 19.119 294.211 19.2369 294.419C19.7085 295.166 19.9171 295.565 19.7539 296.013H-5.01549C-6.11746 295.474 -7.08339 294.677 -8.09012 293.835L-8.44385 293.532C-10.5344 291.653 -12.8563 290.367 -15.5092 289.616C-16.4025 289.335 -17.2914 289.195 -18.162 289.195C-21.3092 289.195 -23.9395 290.974 -25.4178 294.116C-25.8169 294.958 -26.3338 295.547 -27.0594 296.013H-47.108C-47.6023 295.52 -47.9515 294.84 -48.2599 293.808C-49.9015 287.647 -53.0714 282.368 -57.9554 277.659C-61.3339 274.354 -65.2792 271.896 -69.0839 269.528C-69.9773 268.962 -70.8933 268.401 -71.7822 267.839C-76.1492 265.028 -80.7249 261.931 -84.3437 257.829C-89.1325 252.437 -92.443 245.547 -94.7195 236.125C-95.962 230.969 -96.7874 225.577 -97.5855 220.352C-98.1478 216.721 -98.7102 212.968 -99.4403 209.292C-101.34 199.545 -104.701 191.622 -109.698 185.012C-114.959 178.071 -121.062 171.955 -126.368 166.871C-132.989 160.564 -140.735 155.199 -150.104 150.464C-159.142 145.873 -169.663 140.458 -179.544 134.437C-180.669 133.735 -181.444 133.029 -182.011 132.164V98.0373C-181.517 97.1227 -180.859 96.4436 -179.898 95.8596C-175.177 93.0481 -170.978 90.798 -167.032 88.969C-150.879 81.4219 -137.288 72.2813 -125.457 61.0806C-118.695 54.6609 -112.029 50.5319 -105.077 48.472C-102.705 47.7657 -100.384 47.39 -98.1977 47.39ZM-98.1977 46.4528C-100.497 46.4528 -102.891 46.8286 -105.358 47.5303C-113.294 49.8981 -120.078 54.6563 -126.11 60.3744C-138.458 72.0911 -152.335 81.0462 -167.427 88.0998C-171.839 90.1371 -176.161 92.5275 -180.387 95.0628C-181.512 95.7193 -182.36 96.5613 -182.968 97.8064C-182.968 109.36 -182.968 120.941 -182.968 132.445C-182.215 133.685 -181.208 134.532 -180.034 135.256C-170.433 141.115 -160.502 146.271 -150.525 151.333C-142.027 155.62 -134.046 160.872 -127.026 167.577C-121.135 173.227 -115.453 179.013 -110.474 185.6C-105.122 192.654 -102.093 200.74 -100.379 209.482C-98.6421 218.387 -97.7986 227.528 -95.6582 236.365C-93.6629 244.569 -90.6109 252.234 -85.0693 258.468C-81.4051 262.619 -76.8975 265.689 -72.2991 268.641C-67.5784 271.66 -62.7215 274.359 -58.613 278.343C-54.1053 282.703 -50.8402 287.855 -49.1759 294.066C-48.8494 295.239 -48.3778 296.248 -47.4617 296.973C-40.5597 296.973 -33.703 296.973 -26.7783 296.973C-25.7942 296.389 -25.0868 295.637 -24.5471 294.514C-23.2093 291.653 -20.8603 290.155 -18.162 290.155C-17.3866 290.155 -16.5884 290.272 -15.7676 290.53C-13.21 291.255 -11.0015 292.522 -9.05151 294.279C-7.83163 295.289 -6.65712 296.321 -5.22409 296.973C3.29689 296.973 11.7952 296.973 20.2935 296.973C21.4227 295.52 20.2935 294.397 19.7312 293.365C17.6905 289.661 15.1782 286.288 12.4301 283.169C3.88641 273.232 -5.52792 264.539 -17.0329 258.726C-19.7084 257.413 -22.3386 256.077 -25.0596 254.882C-36.1654 250.052 -43.0901 241.078 -47.2667 229.407C-49.6158 222.915 -51.915 216.423 -54.6858 210.143C-57.9735 202.573 -62.2454 195.683 -66.7303 188.933C-72.9975 179.461 -76.0268 168.895 -77.2693 157.549C-78.2534 148.336 -79.1468 139.245 -79.7091 130.059C-80.412 118.175 -79.5912 106.363 -76.7751 94.7866C-75.3919 89.0188 -74.2627 83.1604 -74.5666 77.1617C-75.0382 68.4421 -77.0335 60.1208 -82.947 53.606C-87.3549 48.7029 -92.5155 46.4528 -98.1977 46.4528Z" fill="#CFD9B5"/>
<path d="M-33.0046 -61.9904H-17.7947C-17.0918 -61.592 -16.5749 -60.9355 -16.1531 -59.9259C-15.1691 -57.5581 -14.1351 -55.3805 -13.0059 -53.3613C-8.57084 -45.3705 -4.03598 -36.6735 -0.843445 -27.3699C0.684803 -22.8244 2.25386 -19.284 4.13129 -16.2598C5.40105 -14.15 6.90208 -11.995 9.34184 -10.6368C10.5844 -9.95773 11.8088 -9.6046 12.9788 -9.6046C15.4186 -9.6046 17.4864 -11.1031 18.8016 -13.7743C20.3978 -17.1019 20.9602 -20.8777 20.4432 -24.9794C19.7403 -30.5571 18.5431 -36.0171 17.3459 -41.1058C15.6544 -48.2318 14.6476 -54.561 14.2213 -60.5099C14.1488 -61.2615 14.2667 -61.6825 14.5252 -61.9859H34.4332C34.8323 -61.4924 34.8776 -60.7906 34.9048 -59.8082V-59.2921C34.9275 -56.8564 34.9048 -54.3709 34.8822 -51.9306C34.8368 -47.8062 34.7869 -43.5415 35.0001 -39.3673C35.0953 -37.9593 35.1633 -36.5558 35.2585 -35.1705C35.6123 -29.7558 35.9614 -24.1555 35.7302 -18.6955C35.4036 -10.7727 33.9706 -4.77393 31.2452 0.242352C28.0073 6.10072 23.5904 9.45095 18.144 10.2251C17.2053 10.3655 16.2666 10.4107 15.3505 10.4107C9.20126 10.4107 3.65966 7.54947 -1.55089 1.66846C-5.11982 -2.36087 -8.267 -7.49487 -11.4323 -14.4579C-15.5409 -23.4809 -20.0939 -32.4812 -25.3543 -41.9479C-29.0412 -48.5125 -31.4583 -54.2305 -32.9865 -60.0165C-33.2631 -61.1257 -33.3357 -61.592 -33.0046 -61.9904ZM-33.4037 -62.9547C-34.483 -62.0628 -34.2245 -60.9627 -33.9207 -59.7675C-32.1838 -53.2526 -29.413 -47.2267 -26.1978 -41.4861C-21.2231 -32.531 -16.5703 -23.4401 -12.2985 -14.064C-9.62293 -8.18302 -6.49841 -2.48764 -2.27192 2.29323C2.63479 7.82563 8.38499 11.3886 15.3596 11.3886C16.321 11.3886 17.2824 11.3162 18.2936 11.1759C24.5155 10.284 28.9506 6.34972 32.0978 0.676975C35.3356 -5.25383 36.4195 -11.909 36.7006 -18.6593C37.0045 -25.5499 36.3741 -32.4857 35.9751 -39.4261C35.6486 -46.0361 35.9524 -52.6912 35.8798 -59.3238C35.8345 -60.6593 35.975 -62.0175 34.8232 -62.9547C27.9211 -62.9547 21.0191 -62.9547 14.1171 -62.9547C13.3915 -62.2982 13.1783 -61.5014 13.2736 -60.4466C13.7452 -53.8367 14.8925 -47.3445 16.4208 -40.9021C17.6633 -35.6051 18.8151 -30.3307 19.4954 -24.8934C19.967 -21.1448 19.5679 -17.5591 17.9445 -14.2044C16.7699 -11.8139 15.0331 -10.5961 12.9924 -10.5961C12.0083 -10.5961 10.9245 -10.8768 9.82253 -11.488C7.64127 -12.6832 6.23092 -14.6299 4.96116 -16.7623C2.84792 -20.185 1.34689 -23.911 0.0771332 -27.7094C-3.09273 -36.9225 -7.50515 -45.4294 -12.1534 -53.8412C-13.3279 -55.9283 -14.3346 -58.0607 -15.2507 -60.3334C-15.7677 -61.506 -16.4479 -62.3978 -17.5272 -62.9592C-22.8148 -62.9547 -28.0753 -62.9547 -33.4037 -62.9547Z" fill="#CFD9B5"/>
<path d="M162.95 66.7941H163.327C169.993 66.9119 175.979 69.841 181.144 75.5138C192.812 88.3578 196.944 102.981 193.42 119.012C191.683 126.795 188.164 132.3 182.573 135.841C179.661 137.692 177.199 139.168 174.777 140.481C165.83 145.38 157.994 151.401 151.441 158.409C147.45 162.746 143.836 166.635 140.267 170.692C132.753 179.316 123.787 187.565 112.895 195.954C101.249 204.91 92.9865 213.511 86.9053 223.001L86.6242 223.422C84.4429 226.727 82.1891 230.172 79.0872 232.608C75.6135 235.374 72.5616 236.66 69.5096 236.66C68.1265 236.66 66.6935 236.379 65.2831 235.84C61.3605 234.319 57.8868 231.53 54.9527 227.542C48.3092 218.519 42.4184 208.088 36.3598 194.732C33.7069 188.896 32.9314 184.256 33.8475 179.683C35.3259 172.276 39.6929 167.378 48.028 163.838C51.5969 162.289 55.3291 161.117 58.9661 159.971C61.6915 159.102 64.485 158.215 67.2331 157.16C75.4004 154.158 82.1891 149.73 87.9846 143.614C92.9866 138.294 97.1405 131.684 101.059 122.802C106.46 110.379 113.48 100.491 122.54 92.6362L125.429 90.1054C131.769 84.5051 138.367 78.7373 145.382 73.8613C150.906 70.1489 156.425 66.7941 162.95 66.7941ZM162.95 65.8344C156.098 65.8344 150.366 69.3521 144.852 73.1007C136.73 78.701 129.379 85.406 121.914 91.9208C112.337 100.242 105.34 110.555 100.202 122.412C96.8684 129.937 92.9004 136.99 87.2908 142.967C81.4181 149.155 74.6113 153.443 66.9111 156.277C60.5261 158.69 53.9505 160.261 47.6607 162.955C40.3595 166.074 34.6547 170.76 32.9178 179.502C31.7887 185.057 33.2716 190.259 35.4982 195.135C40.7586 206.757 46.7174 217.962 54.1863 228.112C57.075 232.028 60.5941 235.048 64.9385 236.737C66.5121 237.343 68.0358 237.629 69.5141 237.629C73.201 237.629 76.5568 235.867 79.704 233.359C83.0371 230.711 85.3635 227.08 87.708 223.517C94.6327 212.737 103.648 204.276 113.461 196.706C123.37 189.086 132.712 180.815 140.997 171.321C144.661 167.152 148.416 163.095 152.148 159.066C158.932 151.799 166.705 145.986 175.226 141.323C177.924 139.87 180.509 138.299 183.09 136.66C189.379 132.653 192.762 126.464 194.359 119.198C198.163 101.949 193.089 87.2305 181.87 74.88C176.94 69.4653 170.791 65.9521 163.372 65.8344C163.231 65.8344 163.091 65.8344 162.95 65.8344Z" fill="#CFD9B5"/>
<path d="M306.764 105.562C307.658 105.562 308.692 105.842 309.912 106.454C313.29 108.188 315.684 111.257 317.988 114.236L319.185 115.735C324.704 122.67 330.618 130.032 337.075 137.04C339.021 139.105 340.948 141.142 342.921 143.179C350.435 151.125 358.249 159.306 364.869 168.419C368.438 173.363 372.22 178.262 375.88 182.997C381 189.63 386.306 196.475 391.095 203.551C396.165 211.053 398.042 217.332 397.199 223.942C395.366 238.335 386.564 249.137 374.261 252.139C372.592 252.56 370.901 252.768 369.259 252.768C364.938 252.768 357.26 251.247 354.213 241.096C353.083 237.298 352.167 233.386 351.279 229.611C350.834 227.641 350.363 225.672 349.868 223.702C346.395 209.944 339.492 200.781 328.786 195.719C320.519 191.848 311.599 189.974 301.554 189.974C297.726 189.974 293.663 190.254 289.437 190.793C282.068 191.753 275.256 194.8 268.685 197.734C264.273 199.726 259.434 201.6 254.269 201.763C246.12 201.763 237.762 194.895 235.631 186.438C234.501 182.006 236.03 177.764 239.717 175.092C242.442 173.123 245.539 171.529 248.945 170.357C261.316 165.974 271.433 157.771 279.818 145.28C284.63 138.063 289.301 130.281 294.538 120.787L295.55 118.935C297.754 114.834 299.867 110.945 302.919 107.662C304.279 106.195 305.454 105.562 306.764 105.562ZM306.764 104.579C305.168 104.579 303.758 105.353 302.211 107.015C298.597 110.881 296.248 115.662 293.69 120.325C289.088 128.669 284.276 136.85 279.02 144.746C271.27 156.277 261.434 164.924 248.641 169.447C245.308 170.597 242.115 172.19 239.154 174.323C235.186 177.207 233.472 181.797 234.719 186.673C236.95 195.533 245.752 202.727 254.296 202.727C259.534 202.56 264.368 200.735 269.089 198.603C275.732 195.647 282.399 192.695 289.582 191.758C293.595 191.219 297.586 190.938 301.554 190.938C310.71 190.938 319.725 192.532 328.364 196.584C339.538 201.881 345.828 211.633 348.929 223.938C350.385 229.746 351.555 235.587 353.297 241.373C355.927 250.138 362.38 253.723 369.259 253.723C370.996 253.723 372.756 253.488 374.492 253.067C388.297 249.694 396.396 237.597 398.133 224.051C399.189 216.038 396.092 209.215 391.888 203.003C383.671 190.839 374.234 179.733 365.64 167.849C357.305 156.363 347.329 146.566 337.774 136.37C331.502 129.575 325.684 122.376 319.934 115.114C317.117 111.597 314.51 107.708 310.356 105.598C309.023 104.95 307.871 104.579 306.764 104.579Z" fill="#CFD9B5"/>
<path d="M-94.6559 -61.9904H-70.6847C-69.2063 -55.1722 -66.7167 -48.0688 -62.9391 -39.7476C-58.6673 -30.5118 -53.9465 -21.421 -48.8539 -12.656C-40.9678 1.10253 -32.2109 15.4678 -19.7673 26.7635C-13.4276 32.5041 -6.57541 37.543 0.612335 41.7625C10.5663 47.6209 21.6949 50.8579 31.5083 53.7373C39.5622 56.0598 45.385 61.6375 48.8587 70.33C52.2372 78.8368 53.8833 85.6097 54.2098 92.3374C54.5862 99.5539 53.1759 104.901 49.7974 109.165C47.0992 112.538 43.8341 115.422 40.1019 117.745C35.7575 120.416 31.2045 122.901 26.7921 125.314C25.2185 126.184 23.6449 127.026 22.0713 127.89C13.3145 132.694 6.27185 138.109 0.521652 144.393C-0.748116 145.801 -2.01333 147.204 -3.25588 148.612C-6.04935 151.731 -8.93806 154.941 -11.8721 157.988C-15.7948 162.09 -19.7129 164.105 -24.1979 164.317C-24.479 164.34 -24.7602 164.34 -25.0413 164.34C-33.7755 164.34 -41.004 156.535 -44.2918 148.802C-47.6022 141.137 -48.355 132.699 -46.6182 122.996C-45.8427 118.732 -44.8088 114.395 -43.802 110.198C-43.3576 108.323 -42.886 106.449 -42.4643 104.575C-41.2217 99.0197 -40.868 93.5371 -41.385 88.2854C-42.1151 81.0915 -43.4982 73.9202 -45.6341 66.3731L-46.4776 63.2311C-49.3164 52.9179 -52.2278 42.2786 -56.9939 32.5267C-58.3544 29.7606 -60.5175 25.7312 -63.7781 22.6345C-67.9547 18.7908 -73.0519 15.9793 -78.8973 14.3359C-85.7041 12.4616 -92.7467 11.9455 -99.5581 11.4294C-102.61 11.194 -105.78 10.9585 -108.855 10.6099C-113.244 10.0938 -117.634 9.60033 -121.602 7.68074C-124.069 6.46289 -128.105 3.67405 -127.47 -1.64557C-127.094 -5.1633 -125.992 -8.5588 -124.114 -12.0539C-120.944 -17.6768 -117.19 -22.7656 -113.598 -27.4287C-105.453 -37.9684 -97.8938 -48.5623 -94.6559 -61.9904ZM-95.4042 -62.9547C-98.5287 -49.3139 -106.229 -38.5569 -114.351 -27.9856C-118.178 -23.0644 -121.865 -18.0255 -124.962 -12.4931C-126.772 -9.14283 -128.014 -5.64773 -128.436 -1.75875C-129.048 3.4658 -125.643 6.79791 -122.028 8.53188C-117.874 10.5465 -113.412 11.0627 -108.977 11.5788C-99.023 12.7061 -88.9284 12.5612 -79.1603 15.2821C-73.6913 16.8305 -68.6893 19.4292 -64.4402 23.3453C-61.6467 25.9938 -59.606 29.3938 -57.8646 32.9568C-52.6541 43.6187 -49.72 55.177 -46.5502 66.6357C-44.5548 73.7391 -43.0991 80.9783 -42.3463 88.385C-41.8067 93.7499 -42.2284 99.1419 -43.403 104.394C-44.8133 110.533 -46.4549 116.649 -47.5569 122.838C-49.1758 131.816 -48.8267 140.744 -45.1852 149.183C-41.5936 157.599 -34.0113 165.309 -25.0413 165.309C-24.7602 165.309 -24.4563 165.309 -24.148 165.286C-18.8875 165.028 -14.7336 162.38 -11.1647 158.654C-6.91552 154.249 -2.87949 149.585 1.22908 145.058C7.42824 138.263 14.6795 133.056 22.5475 128.746C28.5788 125.396 34.7099 122.209 40.6234 118.573C44.3556 116.251 47.7114 113.299 50.5547 109.786C54.5454 104.724 55.5068 98.7481 55.1803 92.3011C54.8039 84.4281 52.5999 77.1119 49.7566 69.9904C46.3056 61.3206 40.5055 55.3174 31.7986 52.8364C21.2596 49.7442 10.7659 46.6022 1.11572 40.9295C-6.11285 36.71 -12.829 31.7435 -19.0961 26.0708C-31.2087 15.0784 -39.825 1.13422 -48.0195 -13.1178C-53.0894 -21.8827 -57.7875 -30.9057 -62.0594 -40.1415C-65.3925 -47.4758 -68.2313 -54.9549 -69.9001 -62.9457C-78.3849 -62.9547 -86.8832 -62.9547 -95.4042 -62.9547Z" fill="#CFD9B5"/>
<path d="M169.055 206.576C171.64 206.576 173.962 207.49 175.912 209.342C180.324 213.557 180.465 218.999 180.184 225.16C180.066 227.786 179.857 230.412 179.667 233.015C179.435 236.107 179.172 239.272 179.054 242.414C178.823 248.884 179.571 255.258 180.369 261.211C181.78 271.642 184.664 280.267 189.149 287.579C189.571 288.28 190.015 288.941 190.464 289.62C191.775 291.635 193.14 293.722 194.033 296.018H109.989C111.916 284.577 114.873 273.164 117.739 262.103L119.335 255.914C122.645 242.998 127.198 229.756 138.114 220.384C147.433 212.321 157.128 207.821 167.74 206.653C168.162 206.598 168.611 206.576 169.055 206.576ZM169.055 205.616C168.588 205.616 168.116 205.638 167.645 205.684C156.258 206.947 146.331 212.013 137.479 219.651C126.654 228.954 121.915 241.961 118.392 255.674C114.963 269.057 111.304 282.395 109 296.058C108.95 296.362 108.814 296.67 108.719 296.973C137.592 296.973 166.47 296.973 195.371 296.973C194.269 293.247 191.942 290.25 189.97 287.081C185.113 279.135 182.573 270.325 181.331 261.067C180.46 254.878 179.803 248.666 179.993 242.459C180.229 236.719 180.859 231.001 181.168 225.21C181.403 219.184 181.403 213.258 176.565 208.64C174.293 206.48 171.708 205.616 169.055 205.616Z" fill="#CFD9B5"/>
<path d="M82.5704 -6.70261C83.9535 -6.70261 85.2958 -6.23177 86.493 -5.29461C91.2138 -1.68633 93.9121 3.56538 94.4971 10.293C94.8463 14.44 93.9574 17.7676 91.9621 19.9724C90.2479 21.8015 87.7129 22.7839 84.6111 22.7839C84.2846 22.8292 84.0261 22.8292 83.7676 22.8292C77.9675 22.8292 74.4938 18.5871 73.7183 14.6257C72.3352 7.35928 73.5551 1.26549 77.4777 -3.95905C78.7656 -5.72018 80.6204 -6.70261 82.5704 -6.70261ZM82.5704 -7.68958C80.3619 -7.68958 78.226 -6.61207 76.6978 -4.5476C72.376 1.21569 71.4419 7.80296 72.7751 14.8113C73.6911 19.5469 77.7544 23.7663 83.7631 23.7663C84.0442 23.7663 84.3254 23.7663 84.6065 23.7663C91.9575 23.7663 96.1568 18.655 95.4539 10.2206C94.8689 3.56538 92.284 -2.0621 87.0735 -6.06879C85.6677 -7.15082 84.1168 -7.68958 82.5704 -7.68958Z" fill="#CFD9B5"/>
<path d="M230.633 -17.532V-16.5496C238.03 -16.5496 244.669 -14.1591 252.582 -10.9719C261.457 -7.38623 272.018 -3.37953 282.938 -0.939301C284.702 -0.613333 286.698 -0.142494 288.267 0.817301C292.679 3.5835 293.387 5.6706 291.482 10.216C290.661 12.1402 289.863 13.5889 288.874 14.8339L287.981 15.9839C285.07 19.642 282.158 23.2502 279.247 26.9536C271.569 36.7281 266.309 46.2672 263.144 56.1549C260.609 64.1456 259.529 73.2637 259.951 83.2238C259.951 84.9352 259.951 86.4835 259.974 87.9368C259.996 90.703 260.019 92.9033 259.901 95.1307C259.67 99.9342 259.08 105.539 256.428 110.764C254.927 113.67 252.954 115.988 250.559 117.609C248.868 118.782 247.036 119.415 245.322 119.415C241.73 119.415 238.633 116.767 236.846 112.126C235.204 107.721 234.946 102.94 234.687 98.2727L234.638 97.2404C234.452 93.6322 234.452 89.9514 234.474 86.3884C234.474 82.4995 234.497 78.4656 234.239 74.4815C233.654 65.3635 233.653 56.0598 233.699 47.0368V41.8349C233.676 36.5832 233.159 30.9829 232.08 24.2327C231.304 19.4065 230.085 14.6936 228.865 10.1255C228.252 7.78034 227.645 5.43971 227.105 3.04928C226.847 1.9265 226.52 0.776558 226.234 -0.373384C225.25 -4.07674 224.312 -7.54468 224.452 -11.3431C224.548 -13.6385 225.486 -16.382 229.336 -16.545C229.758 -16.545 230.184 -16.545 230.629 -16.545V-17.532M230.633 -17.532C230.184 -17.532 229.74 -17.532 229.296 -17.4867C225.727 -17.3464 223.659 -15.1415 223.495 -11.3929C223.282 -6.23628 225.024 -1.55049 226.171 3.28017C227.835 10.3338 229.998 17.2017 231.128 24.373C232.066 30.1635 232.724 35.9494 232.747 41.8349C232.747 52.7322 232.583 63.6567 233.286 74.554C233.753 82.169 233.286 89.716 233.708 97.2903C233.966 102.374 234.13 107.604 235.962 112.452C237.98 117.749 241.503 120.375 245.331 120.375C247.231 120.375 249.204 119.719 251.131 118.406C253.711 116.649 255.779 114.141 257.285 111.189C259.842 106.173 260.618 100.736 260.899 95.1805C261.039 91.7352 260.899 88.3125 260.899 83.2057C260.595 75.2376 261.157 65.6759 264.069 56.4401C267.52 45.6334 273.202 36.2392 280.009 27.5648C283.224 23.4857 286.439 19.4563 289.654 15.4225C290.806 13.9692 291.65 12.3303 292.38 10.5963C294.375 5.83811 293.745 3.12171 288.788 0.00238037C287.097 -1.02985 285.079 -1.49617 283.151 -1.87194C272.776 -4.19446 262.822 -7.87065 252.94 -11.8547C245.73 -14.7658 238.497 -17.532 230.633 -17.532Z" fill="#CFD9B5"/>
<path d="M-31.032 39.2815C-30.2339 39.2815 -29.3179 39.4219 -28.3338 39.6573C-23.7808 40.8978 -19.6722 43.501 -15.7042 46.0318L-14.7655 46.643C-6.19464 52.1029 2.23113 57.7757 10.3757 63.2583C15.9627 66.9616 21.3138 70.6876 25.7307 75.6586C30.3064 80.8605 32.3516 86.1123 32.0932 92.1608C32.397 96.6836 30.778 100.763 27.1864 104.769C22.5155 109.903 16.8334 113.394 12.4209 115.879L9.15584 117.709C2.6982 121.339 -4.01338 125.115 -10.2352 129.52C-12.9833 131.49 -15.2371 132.871 -17.491 133.948C-18.8288 134.582 -20.0985 134.908 -21.2458 134.908C-24.4837 134.908 -26.5063 132.259 -26.6922 127.854C-26.8101 125.206 -26.597 122.394 -26.012 118.994C-24.393 108.495 -24.7195 98.816 -26.9734 89.3946C-28.03 84.9895 -29.3224 80.5799 -30.565 76.3649C-31.9753 71.6067 -33.4038 66.6855 -34.5103 61.7416C-35.5669 56.8883 -36.5283 51.6411 -36.365 46.2717C-36.2199 41.6267 -34.4377 39.2815 -31.032 39.2815ZM-31.032 38.2946C-34.9774 38.2946 -37.1587 41.0155 -37.3219 46.2174C-37.4852 51.5596 -36.5691 56.7887 -35.4445 61.968C-33.3539 71.3441 -30.116 80.2946 -27.9075 89.6028C-25.5812 99.3049 -25.4406 108.984 -26.9461 118.831C-27.4631 121.806 -27.7896 124.83 -27.6491 127.877C-27.4359 132.988 -24.9508 135.868 -21.2413 135.868C-19.9715 135.868 -18.5657 135.515 -17.0647 134.813C-14.4345 133.545 -12.0174 131.979 -9.66834 130.29C-2.46246 125.179 5.26041 121.032 12.8926 116.722C18.3389 113.675 23.5495 110.207 27.8939 105.426C31.2723 101.677 33.4128 97.3853 33.0591 92.206C33.3402 85.243 30.71 79.8328 26.4609 75.052C21.9079 69.8953 16.4615 66.1467 10.9199 62.466C2.58485 56.8657 -5.7729 51.2382 -14.2486 45.8235C-18.6383 43.0347 -23.028 40.1281 -28.0753 38.7473C-29.1546 38.4621 -30.1432 38.2946 -31.032 38.2946Z" fill="#CFD9B5"/>
<path d="M159.196 88.8739C160.09 88.8739 160.979 89.1093 161.922 89.3448L162.298 89.4398C166.171 90.3317 169.645 93.0028 171.83 96.8013C174.107 100.808 174.669 105.471 173.331 109.573C172.157 113.091 170.234 116.346 167.604 119.207C165.042 121.973 162.298 124.599 159.668 127.175C158.167 128.583 156.711 129.987 155.256 131.44C147.415 139.313 139.293 148.431 129.67 160.152C124.573 166.318 118.26 173.277 110.043 178.153C104.946 181.2 100.488 182.748 95.9305 183.029C95.672 183.052 95.4181 183.052 95.1324 183.052C92.4568 183.052 90.6247 182.182 89.3595 180.285C87.9492 178.176 88.4208 176.138 89.7133 173.327C90.9331 170.656 92.2709 167.867 94.1257 165.522C102.792 154.484 109.481 142.364 114.034 129.547C117.457 120.149 121.829 112.837 127.416 107.21C133.289 101.301 140.046 96.2897 147.51 92.3283C151.668 90.1959 155.21 89.1184 158.661 88.9056C158.865 88.8739 159.01 88.8739 159.196 88.8739ZM159.196 87.8915C159.01 87.8915 158.797 87.9141 158.584 87.9368C154.498 88.1722 150.698 89.6028 147.079 91.4771C139.61 95.4386 132.803 100.405 126.749 106.526C120.455 112.855 116.233 120.706 113.131 129.212C108.456 142.36 101.79 154.172 93.3638 164.933C91.4637 167.324 90.1214 170.09 88.8335 172.924C87.6363 175.527 86.7429 178.126 88.5523 180.824C90.1985 183.282 92.5657 184.011 95.1233 184.011C95.409 184.011 95.7129 184.011 95.994 183.989C101.205 183.658 105.993 181.693 110.501 178.972C118.296 174.382 124.541 167.862 130.386 160.763C138.536 150.871 146.939 141.169 155.927 132.124C160.035 128.022 164.357 124.178 168.298 119.868C170.928 116.984 172.946 113.679 174.238 109.885C177.127 100.98 171.422 90.5264 162.52 88.5117C161.423 88.2175 160.325 87.8915 159.196 87.8915Z" fill="#CFD9B5"/>
</svg>
