<svg width="375" height="130" viewBox="0 0 375 130" fill="none" xmlns="http://www.w3.org/2000/svg">
<path d="M263.829 128V118.32L261.661 119.64V117.776L263.829 116.48H265.533V128H263.829ZM268.011 127.992L268.019 126.504L273.035 122.008C273.44 121.651 273.715 121.309 273.859 120.984C274.008 120.659 274.083 120.333 274.083 120.008C274.083 119.597 273.992 119.229 273.811 118.904C273.63 118.573 273.379 118.312 273.059 118.12C272.739 117.928 272.371 117.832 271.955 117.832C271.528 117.832 271.147 117.933 270.811 118.136C270.48 118.333 270.222 118.597 270.035 118.928C269.848 119.259 269.758 119.616 269.763 120H268.051C268.051 119.253 268.219 118.6 268.555 118.04C268.896 117.475 269.363 117.035 269.955 116.72C270.547 116.4 271.224 116.24 271.987 116.24C272.712 116.24 273.363 116.405 273.939 116.736C274.515 117.061 274.968 117.509 275.299 118.08C275.635 118.651 275.803 119.301 275.803 120.032C275.803 120.56 275.734 121.008 275.595 121.376C275.456 121.744 275.248 122.085 274.971 122.4C274.694 122.715 274.347 123.056 273.931 123.424L270.059 126.88L269.875 126.4H275.803V127.992H268.011ZM281.226 116.248C281.967 116.248 282.636 116.427 283.234 116.784C283.831 117.136 284.306 117.621 284.658 118.24C285.01 118.859 285.186 119.565 285.186 120.36V124.024C285.186 124.867 285.01 125.605 284.658 126.24C284.311 126.869 283.826 127.36 283.202 127.712C282.583 128.064 281.868 128.24 281.058 128.24C280.45 128.24 279.879 128.125 279.346 127.896C278.812 127.667 278.348 127.325 277.954 126.872L279.186 125.728C279.404 126.011 279.679 126.237 280.01 126.408C280.34 126.579 280.69 126.664 281.058 126.664C281.532 126.664 281.951 126.549 282.314 126.32C282.682 126.091 282.967 125.792 283.17 125.424C283.372 125.056 283.474 124.661 283.474 124.24V122.128L283.81 122.496C283.479 122.928 283.068 123.269 282.578 123.52C282.087 123.771 281.562 123.896 281.002 123.896C280.282 123.896 279.642 123.731 279.082 123.4C278.522 123.069 278.079 122.619 277.754 122.048C277.428 121.477 277.266 120.832 277.266 120.112C277.266 119.392 277.447 118.741 277.81 118.16C278.172 117.579 278.652 117.115 279.25 116.768C279.847 116.421 280.506 116.248 281.226 116.248ZM281.226 117.864C280.81 117.864 280.428 117.965 280.082 118.168C279.74 118.365 279.468 118.635 279.266 118.976C279.063 119.317 278.962 119.696 278.962 120.112C278.962 120.528 279.063 120.909 279.266 121.256C279.468 121.597 279.74 121.869 280.082 122.072C280.423 122.275 280.802 122.376 281.218 122.376C281.634 122.376 282.012 122.275 282.354 122.072C282.695 121.869 282.967 121.597 283.17 121.256C283.372 120.909 283.474 120.528 283.474 120.112C283.474 119.701 283.372 119.325 283.17 118.984C282.972 118.643 282.703 118.371 282.362 118.168C282.02 117.965 281.642 117.864 281.226 117.864Z" fill="#4B5363"/>
<path d="M347.782 128V118.32L345.614 119.64V117.776L347.782 116.48H349.486V128H347.782ZM355.508 128.216C354.937 128.216 354.401 128.109 353.9 127.896C353.399 127.677 352.964 127.368 352.596 126.968C352.233 126.568 351.969 126.096 351.804 125.552L353.42 125.104C353.575 125.6 353.844 125.981 354.228 126.248C354.612 126.509 355.039 126.637 355.508 126.632C355.929 126.627 356.3 126.528 356.62 126.336C356.94 126.144 357.191 125.885 357.372 125.56C357.553 125.229 357.644 124.851 357.644 124.424C357.644 123.784 357.444 123.256 357.044 122.84C356.649 122.424 356.132 122.216 355.492 122.216C355.311 122.216 355.124 122.243 354.932 122.296C354.745 122.349 354.569 122.419 354.404 122.504L353.62 121.184L357.684 117.592L357.86 118.072H352.26V116.48H359.188V118.072L355.812 121.32L355.796 120.776C356.521 120.776 357.151 120.939 357.684 121.264C358.217 121.584 358.628 122.021 358.916 122.576C359.209 123.125 359.356 123.741 359.356 124.424C359.356 125.16 359.183 125.813 358.836 126.384C358.495 126.955 358.033 127.403 357.452 127.728C356.876 128.053 356.228 128.216 355.508 128.216ZM365.216 128.24C364.432 128.24 363.739 128.069 363.136 127.728C362.534 127.381 362.059 126.907 361.712 126.304C361.371 125.701 361.2 125.008 361.2 124.224V120.256C361.2 119.472 361.371 118.779 361.712 118.176C362.059 117.573 362.534 117.101 363.136 116.76C363.739 116.413 364.432 116.24 365.216 116.24C366 116.24 366.694 116.413 367.296 116.76C367.899 117.101 368.371 117.573 368.712 118.176C369.059 118.779 369.232 119.472 369.232 120.256V124.224C369.232 125.008 369.059 125.701 368.712 126.304C368.371 126.907 367.899 127.381 367.296 127.728C366.694 128.069 366 128.24 365.216 128.24ZM365.216 126.64C365.643 126.64 366.03 126.539 366.376 126.336C366.728 126.128 367.008 125.851 367.216 125.504C367.424 125.152 367.528 124.76 367.528 124.328V120.136C367.528 119.709 367.424 119.323 367.216 118.976C367.008 118.624 366.728 118.347 366.376 118.144C366.03 117.936 365.643 117.832 365.216 117.832C364.79 117.832 364.4 117.936 364.048 118.144C363.702 118.347 363.424 118.624 363.216 118.976C363.008 119.323 362.904 119.709 362.904 120.136V124.328C362.904 124.76 363.008 125.152 363.216 125.504C363.424 125.851 363.702 126.128 364.048 126.336C364.4 126.539 364.79 126.64 365.216 126.64Z" fill="#4B5363"/>
<path d="M92.1102 128V118.32L89.9422 119.64V117.776L92.1102 116.48H93.8142V128H92.1102ZM96.2922 127.992L96.3002 126.504L101.316 122.008C101.722 121.651 101.996 121.309 102.14 120.984C102.29 120.659 102.364 120.333 102.364 120.008C102.364 119.597 102.274 119.229 102.092 118.904C101.911 118.573 101.66 118.312 101.34 118.12C101.02 117.928 100.652 117.832 100.236 117.832C99.8095 117.832 99.4282 117.933 99.0922 118.136C98.7615 118.333 98.5029 118.597 98.3162 118.928C98.1295 119.259 98.0389 119.616 98.0442 120H96.3322C96.3322 119.253 96.5002 118.6 96.8362 118.04C97.1775 117.475 97.6442 117.035 98.2362 116.72C98.8282 116.4 99.5055 116.24 100.268 116.24C100.994 116.24 101.644 116.405 102.22 116.736C102.796 117.061 103.25 117.509 103.58 118.08C103.916 118.651 104.084 119.301 104.084 120.032C104.084 120.56 104.015 121.008 103.876 121.376C103.738 121.744 103.53 122.085 103.252 122.4C102.975 122.715 102.628 123.056 102.212 123.424L98.3402 126.88L98.1562 126.4H104.084V127.992H96.2922ZM106.363 128L110.411 118.072H105.283V116.48H112.211V118.072L108.171 128H106.363Z" fill="#4B5363"/>
<path d="M7.82894 128V118.32L5.66094 119.64V117.776L7.82894 116.48H9.53294V128H7.82894ZM12.0109 127.992L12.0189 126.504L17.0349 122.008C17.4403 121.651 17.7149 121.309 17.8589 120.984C18.0083 120.659 18.0829 120.333 18.0829 120.008C18.0829 119.597 17.9923 119.229 17.8109 118.904C17.6296 118.573 17.3789 118.312 17.0589 118.12C16.7389 117.928 16.3709 117.832 15.9549 117.832C15.5283 117.832 15.1469 117.933 14.8109 118.136C14.4803 118.333 14.2216 118.597 14.0349 118.928C13.8483 119.259 13.7576 119.616 13.7629 120H12.0509C12.0509 119.253 12.2189 118.6 12.5549 118.04C12.8963 117.475 13.3629 117.035 13.9549 116.72C14.5469 116.4 15.2243 116.24 15.9869 116.24C16.7123 116.24 17.3629 116.405 17.9389 116.736C18.5149 117.061 18.9683 117.509 19.2989 118.08C19.6349 118.651 19.8029 119.301 19.8029 120.032C19.8029 120.56 19.7336 121.008 19.5949 121.376C19.4563 121.744 19.2483 122.085 18.9709 122.4C18.6936 122.715 18.3469 123.056 17.9309 123.424L14.0589 126.88L13.8749 126.4H19.8029V127.992H12.0109ZM25.4416 128.24C24.6949 128.24 24.0229 128.064 23.4256 127.712C22.8282 127.355 22.3536 126.867 22.0016 126.248C21.6549 125.629 21.4816 124.925 21.4816 124.136V120.464C21.4816 119.627 21.6549 118.891 22.0016 118.256C22.3536 117.621 22.8389 117.128 23.4576 116.776C24.0816 116.424 24.7989 116.248 25.6096 116.248C26.2176 116.248 26.7882 116.363 27.3216 116.592C27.8549 116.821 28.3162 117.163 28.7056 117.616L27.4816 118.76C27.2629 118.477 26.9882 118.253 26.6576 118.088C26.3322 117.917 25.9829 117.832 25.6096 117.832C25.1296 117.832 24.7082 117.947 24.3456 118.176C23.9829 118.4 23.6976 118.696 23.4896 119.064C23.2869 119.432 23.1856 119.827 23.1856 120.248V122.36L22.8576 121.992C23.1882 121.56 23.5989 121.219 24.0896 120.968C24.5802 120.717 25.1056 120.592 25.6656 120.592C26.3802 120.592 27.0176 120.76 27.5776 121.096C28.1429 121.427 28.5856 121.877 28.9056 122.448C29.2309 123.019 29.3936 123.661 29.3936 124.376C29.3936 125.096 29.2122 125.749 28.8496 126.336C28.4922 126.917 28.0122 127.381 27.4096 127.728C26.8122 128.069 26.1562 128.24 25.4416 128.24ZM25.4416 126.632C25.8576 126.632 26.2362 126.531 26.5776 126.328C26.9189 126.125 27.1909 125.853 27.3936 125.512C27.5962 125.171 27.6976 124.792 27.6976 124.376C27.6976 123.96 27.5962 123.581 27.3936 123.24C27.1962 122.899 26.9269 122.627 26.5856 122.424C26.2442 122.221 25.8656 122.12 25.4496 122.12C25.0336 122.12 24.6522 122.221 24.3056 122.424C23.9642 122.627 23.6922 122.899 23.4896 123.24C23.2869 123.581 23.1856 123.96 23.1856 124.376C23.1856 124.787 23.2869 125.163 23.4896 125.504C23.6922 125.845 23.9642 126.12 24.3056 126.328C24.6469 126.531 25.0256 126.632 25.4416 126.632Z" fill="#4B5363"/>
<rect x="-2.5" y="51" width="4" height="24" rx="1.5" fill="#E5E8EB"/>
<rect x="13.5" y="31" width="8" height="64" rx="3" fill="#D1D5DB"/>
<rect x="33.5" y="51" width="4" height="24" rx="1.5" fill="#E5E8EB"/>
<rect x="49.5" y="51" width="4" height="24" rx="1.5" fill="#E5E8EB"/>
<rect x="65.5" y="51" width="4" height="24" rx="1.5" fill="#E5E8EB"/>
<rect x="81.5" y="51" width="4" height="24" rx="1.5" fill="#E5E8EB"/>
<rect x="97.5" y="31" width="8" height="64" rx="3" fill="#D1D5DB"/>
<rect x="117.5" y="51" width="4" height="24" rx="1.5" fill="#E5E8EB"/>
<rect x="133.5" y="51" width="4" height="24" rx="1.5" fill="#E5E8EB"/>
<rect x="149.5" y="51" width="4" height="24" rx="1.5" fill="#E5E8EB"/>
<rect x="165.5" y="51" width="4" height="24" rx="1.5" fill="#E5E8EB"/>
<g filter="url(#filter0_d_12065_3792)">
<rect x="181.5" y="4" width="12" height="118" rx="4" fill="#9BB068"/>
</g>
<rect x="205.5" y="51" width="4" height="24" rx="1.5" fill="#E5E8EB"/>
<rect x="221.5" y="51" width="4" height="24" rx="1.5" fill="#E5E8EB"/>
<rect x="237.5" y="51" width="4" height="24" rx="1.5" fill="#E5E8EB"/>
<rect x="253.5" y="51" width="4" height="24" rx="1.5" fill="#E5E8EB"/>
<rect x="269.5" y="31" width="8" height="64" rx="3" fill="#D1D5DB"/>
<rect x="289.5" y="51" width="4" height="24" rx="1.5" fill="#E5E8EB"/>
<rect x="305.5" y="51" width="4" height="24" rx="1.5" fill="#E5E8EB"/>
<rect x="321.5" y="51" width="4" height="24" rx="1.5" fill="#E5E8EB"/>
<rect x="337.5" y="51" width="4" height="24" rx="1.5" fill="#E5E8EB"/>
<rect x="353.5" y="31" width="8" height="64" rx="3" fill="#D1D5DB"/>
<rect x="373.5" y="51" width="4" height="24" rx="1.5" fill="#E5E8EB"/>
<defs>
<filter id="filter0_d_12065_3792" x="177.5" y="0" width="20" height="126" filterUnits="userSpaceOnUse" color-interpolation-filters="sRGB">
<feFlood flood-opacity="0" result="BackgroundImageFix"/>
<feColorMatrix in="SourceAlpha" type="matrix" values="0 0 0 0 0 0 0 0 0 0 0 0 0 0 0 0 0 0 127 0" result="hardAlpha"/>
<feMorphology radius="4" operator="dilate" in="SourceAlpha" result="effect1_dropShadow_12065_3792"/>
<feOffset/>
<feComposite in2="hardAlpha" operator="out"/>
<feColorMatrix type="matrix" values="0 0 0 0 0.0313726 0 0 0 0 0.741176 0 0 0 0 0.741176 0 0 0 0.25 0"/>
<feBlend mode="normal" in2="BackgroundImageFix" result="effect1_dropShadow_12065_3792"/>
<feBlend mode="normal" in="SourceGraphic" in2="effect1_dropShadow_12065_3792" result="shape"/>
</filter>
</defs>
</svg>
