<svg width="375" height="539" viewBox="0 0 375 539" fill="none" xmlns="http://www.w3.org/2000/svg">
<path d="M-17.7751 133.567C-23.7055 131.128 -27.2316 123.922 -25.6021 117.664C-23.9459 111.406 -17.3209 106.963 -10.9899 107.857C-7.73081 108.318 -4.79233 109.97 -1.93399 111.596C1.69904 113.654 5.33208 115.741 8.96511 117.799C-0.0907593 114.576 -4.47177 103.251 -2.49497 93.7153C-1.05244 86.8612 3.56899 80.3052 10.2474 78.5171C15.6969 77.0542 21.4937 78.8964 26.4891 81.5243C42.0097 89.5975 52.882 104.471 62.1249 119.479C59.2398 115.442 62.4455 109.239 67.1203 107.613C71.7952 106.015 76.9241 107.694 81.3319 109.916C91.1624 114.901 99.3367 124.437 105 134L-17.7751 133.567Z" fill="#F2F5EB"/>
<path d="M382.452 158.45C390.057 155.359 394.58 146.223 392.49 138.288C390.366 130.354 381.87 124.721 373.75 125.854C369.571 126.438 365.802 128.533 362.137 130.594C357.478 133.205 352.818 135.85 348.159 138.46C359.773 134.373 365.391 120.015 362.856 107.925C361.006 99.2348 355.079 90.9226 346.515 88.6557C339.526 86.8009 332.092 89.1365 325.686 92.4683C305.781 102.704 291.838 121.561 279.985 140.59C283.685 135.472 279.574 127.606 273.579 125.545C267.583 123.519 261.006 125.648 255.353 128.465C242.746 134.785 232.263 146.875 225 159L382.452 158.45Z" fill="#F2F5EB"/>
<path d="M-34.0657 375.211C-41.2164 372.326 -45.5027 363.713 -43.5119 356.258C-41.5211 348.802 -33.4969 343.5 -25.8587 344.557C-21.9381 345.105 -18.3627 347.076 -14.9093 349.026C-10.5214 351.484 -6.13351 353.942 -1.74561 356.4C-12.6747 352.54 -17.9768 339.072 -15.5797 327.716C-13.853 319.55 -8.2462 311.749 -0.181404 309.616C6.40044 307.869 13.3886 310.083 19.4626 313.191C38.2127 322.82 51.3561 340.514 62.5086 358.391C59.0146 353.576 62.8946 346.182 68.542 344.272C74.1691 342.363 80.3853 344.353 85.7076 347.015C97.5712 352.967 107.464 364.302 114.29 375.698L-34.0657 375.211Z" fill="#F2F5EB"/>
<path d="M462.436 322.232C473.639 317.691 480.354 304.132 477.235 292.395C474.116 280.659 461.544 272.312 449.577 273.975C443.435 274.838 437.833 277.94 432.422 281.01C425.548 284.88 418.673 288.75 411.798 292.619C428.921 286.543 437.228 265.34 433.473 247.464C430.767 234.608 421.983 222.327 409.347 218.97C399.035 216.219 388.087 219.705 378.57 224.598C349.194 239.756 328.601 267.611 311.128 295.753C316.602 288.174 310.523 276.533 301.675 273.527C292.859 270.521 283.12 273.655 274.781 277.844C256.194 287.215 240.694 305.059 230 323L462.436 322.232Z" fill="#F2F5EB"/>
<path d="M217.01 138.958C219.438 147.582 229.302 151.669 237.112 147.282C247.126 141.64 259.218 149.964 257.59 161.347C256.314 170.222 263.649 177.969 272.561 177.117C284.002 176.039 291.662 188.574 285.554 198.302C280.772 205.899 284.352 215.953 292.839 218.811C303.704 222.496 305.656 237.063 296.093 243.456C288.658 248.445 287.832 259.076 294.416 265.168C302.852 272.965 298.697 287.056 287.381 289.011C278.569 290.541 273.487 299.917 277.017 308.166C281.573 318.721 272.035 329.903 260.92 327.095C252.233 324.889 243.797 331.407 243.671 340.358C243.546 351.866 230.303 358.209 221.266 351.089C214.231 345.548 203.867 348.055 200.137 356.203C195.355 366.658 180.66 367.059 175.303 356.88C171.122 348.957 160.633 347.002 153.923 352.944C145.312 360.541 131.743 354.924 130.967 343.442C130.366 334.491 121.579 328.449 113.042 331.132C102.077 334.566 91.9635 323.886 95.944 313.105C99.0482 304.681 93.4656 295.58 84.5534 294.552C73.1628 293.223 68.231 279.359 76.242 271.11C82.4755 264.692 81.0736 254.087 73.3881 249.523C63.5246 243.657 64.6511 228.99 75.3157 224.728C83.6271 221.393 86.6562 211.164 81.4742 203.843C74.8401 194.466 81.8246 181.529 93.2903 181.981C102.228 182.332 109.162 174.208 107.385 165.408C105.132 154.126 116.773 145.176 127.062 150.24C135.098 154.201 144.711 149.588 146.688 140.838C149.217 129.631 163.487 126.171 170.822 134.996C176.554 141.891 187.219 141.59 192.551 134.395C199.436 125.219 213.881 127.901 217.01 138.958Z" fill="#4B3425"/>
<path d="M358.203 409.53C348.815 376.636 319.901 353.169 285.829 350.763C207.847 345.222 74.6899 343.216 46.4262 373.452C37.1886 383.331 56.0394 365.379 46.4262 373.452C3.19199 409.731 -3.54224 497.732 -3.54224 497.732L97.4461 497.03L378.706 497.833C380.259 489.81 368.618 446.085 358.203 409.53Z" fill="#9BB068"/>
<path d="M226.673 314.233L219.713 292.07C225.546 293.449 231.955 291.995 236.687 287.607C244.272 280.587 244.748 268.753 237.738 261.157C230.728 253.56 218.912 253.084 211.327 260.104C210.876 260.53 210.451 260.956 210.05 261.407L201.839 235.283C200.812 232.049 197.608 230.043 194.254 230.544C177.631 233.026 131.217 244.685 127.838 297.335C127.587 301.321 130.716 304.731 134.722 304.731L155.2 304.706L153.573 318.947C178.257 323.685 202.84 321.103 226.673 314.233Z" fill="#CFD9B5"/>
<path d="M226.673 314.233C202.865 321.128 178.257 323.685 153.598 318.947L148.741 361.493C146.288 382.929 158.755 403.639 179.158 410.583C180.109 410.909 181.085 411.21 182.062 411.511C217.41 421.79 249.78 387.768 238.714 352.593L226.673 314.233Z" fill="#9BB068"/>
<path d="M163.261 246.791C153.147 252.031 143.008 257.246 132.895 262.485C131.568 263.162 131.443 265.093 132.419 266.096C135.423 269.155 138.402 272.188 141.406 275.247C143.484 277.353 146.713 274.119 144.636 272.013C141.632 268.954 138.652 265.92 135.648 262.862C135.498 264.065 135.348 265.268 135.173 266.472C145.287 261.232 155.425 256.017 165.539 250.777C168.193 249.398 165.865 245.437 163.261 246.791Z" fill="#4B3425"/>
<path d="M160.382 282.292C160.658 284.649 157.904 286.805 155.751 285.476C153.222 283.947 150.919 287.908 153.448 289.437C158.329 292.421 165.639 288.159 164.988 282.292C164.838 281.064 164.037 280.011 162.685 280.011C161.559 279.985 160.257 281.038 160.382 282.292Z" fill="#4B3425"/>
<path d="M227.524 269.43C223.594 270.759 219.663 272.088 215.733 273.417C212.954 274.369 214.156 278.782 216.96 277.829C220.89 276.5 224.82 275.172 228.751 273.843C231.53 272.915 230.328 268.478 227.524 269.43Z" fill="#4B3425"/>
<path d="M172.198 260.505C176.579 270.408 190.248 272.94 198.284 266.071C200.537 264.14 197.283 260.906 195.055 262.836C189.046 267.976 179.283 265.218 176.179 258.198C174.977 255.49 171.022 257.822 172.198 260.505Z" fill="#4B3425"/>
<path d="M175.953 262.335C174.276 264.04 172.574 265.72 170.896 267.425C168.819 269.505 172.048 272.765 174.126 270.659C175.803 268.954 177.505 267.274 179.183 265.569C181.286 263.488 178.056 260.254 175.953 262.335Z" fill="#4B3425"/>
<path d="M183.188 268.954C183.213 270.659 183.238 272.339 183.264 274.043C183.289 277.002 187.895 277.002 187.845 274.043C187.82 272.339 187.795 270.659 187.77 268.954C187.72 266.021 183.138 265.996 183.188 268.954Z" fill="#4B3425"/>
<path d="M192.201 268.904C192.751 270.408 193.277 271.937 193.828 273.442C194.254 274.595 195.38 275.397 196.657 275.046C197.783 274.745 198.685 273.392 198.259 272.213C197.708 270.709 197.183 269.18 196.632 267.675C196.206 266.497 195.08 265.72 193.803 266.071C192.676 266.397 191.8 267.75 192.201 268.904Z" fill="#4B3425"/>
<path d="M207.972 437.335C207.972 441.722 204.417 445.308 200.011 445.308C195.63 445.308 192.051 441.747 192.051 437.335C192.051 432.947 195.605 429.362 200.011 429.362C204.417 429.362 207.972 432.922 207.972 437.335Z" fill="#4B3425"/>
<path d="M92.7646 412.163C67.2546 425.275 41.7447 438.388 16.2097 451.5C10.3517 454.509 4.49365 457.517 -1.36438 460.526C-10.9775 465.49 -18.7882 472.034 -23.019 482.313C-26.7742 491.414 -27.2248 503.975 -22.969 513.051C-18.5629 522.453 -11.278 531.077 -1.2392 534.738C8.29886 538.198 20.065 539.502 29.4528 534.688C45.4498 526.464 61.4717 518.241 77.4686 509.992C100.475 498.158 123.482 486.35 146.488 474.516C133.32 451.35 120.252 428.108 107.91 404.391C102.853 406.998 97.7965 409.581 92.7646 412.163Z" fill="#9BB068"/>
<path d="M171.573 461.629C181.186 456.69 188.996 450.146 193.227 439.867C196.982 430.766 197.433 418.205 193.177 409.129C188.771 399.727 181.486 391.103 171.447 387.442C161.909 383.982 170.246 370.218 160.858 375.057C149.893 380.698 118.85 398.775 107.885 404.391C120.227 428.133 133.27 451.375 146.463 474.516C148.967 473.237 151.495 471.934 153.998 470.655C159.856 467.646 165.714 464.638 171.573 461.629Z" fill="#CFD9B5"/>
<path d="M175.878 405.569C178.908 385.236 181.937 364.878 184.966 344.545C185.842 338.628 181.586 332.109 175.428 331.432C169.294 330.755 163.286 334.641 162.335 340.985C159.306 361.318 156.276 381.676 153.247 402.009C152.371 407.926 156.627 414.444 162.785 415.121C168.919 415.823 174.927 411.912 175.878 405.569Z" fill="#CFD9B5"/>
<path d="M176.98 405.87C179.258 390.501 181.561 375.107 183.839 359.738C185.191 350.612 190.048 336.221 178.757 331.182C174.777 329.402 169.87 330.129 166.34 332.586C161.959 335.619 161.284 340.182 160.558 345.147C158.279 360.54 155.976 375.909 153.698 391.303C153.473 392.757 155.701 393.359 155.901 391.905C157.754 379.495 159.581 367.084 161.434 354.674C161.884 351.69 162.31 348.707 162.761 345.748C163.161 343.066 163.261 340.132 164.638 337.7C167.467 332.736 174.577 330.856 179.333 334.115C185.016 338.026 183.864 344.269 182.988 350.161C182.112 356.103 181.211 362.07 180.335 368.012C178.482 380.422 176.655 392.808 174.802 405.218C174.552 406.722 176.755 407.324 176.98 405.87Z" fill="#4B3425"/>
<path d="M181.361 444.154C186.543 410.985 191.725 377.79 196.907 344.62C197.833 338.703 193.628 332.159 187.444 331.432C181.311 330.705 175.278 334.566 174.276 340.909C169.094 374.079 163.912 407.274 158.73 440.444C157.804 446.361 162.009 452.904 168.193 453.631C174.326 454.358 180.359 450.497 181.361 444.154Z" fill="#CFD9B5"/>
<path d="M188.27 411.386C190.173 398.549 192.101 385.712 194.003 372.901C194.954 366.482 195.906 360.064 196.857 353.646C197.533 349.033 199.16 343.843 197.783 339.205C195.63 331.934 187.995 328.323 181.035 331.106C177.531 332.51 174.752 335.419 173.675 339.054C171.948 344.896 171.698 351.565 170.796 357.607C168.618 372.174 166.465 386.715 164.287 401.282C164.062 402.736 166.29 403.338 166.49 401.884C168.543 388.069 170.596 374.255 172.649 360.44C173.6 354.047 174.226 347.528 175.503 341.185C176.73 335.093 182.963 330.755 189.172 332.861C196.607 335.394 196.106 343.066 195.155 349.308C194.153 355.977 193.177 362.646 192.176 369.29C190.123 383.105 188.07 396.919 186.017 410.759C185.842 412.213 188.045 412.84 188.27 411.386Z" fill="#4B3425"/>
<path d="M182.638 352.919C178.958 377.639 175.277 402.36 171.597 427.08C170.721 432.997 174.977 439.516 181.136 440.193C187.269 440.87 193.277 436.984 194.228 430.641C197.908 405.92 201.589 381.199 205.269 356.479C206.145 350.562 201.889 344.043 195.731 343.366C189.597 342.689 183.589 346.576 182.638 352.919Z" fill="#CFD9B5"/>
<path d="M193.402 443.954C197.483 416.601 201.538 389.247 205.619 361.894C206.395 356.755 207.321 351.941 204.142 347.378C201.238 343.216 196.356 341.386 191.4 342.464C179.834 344.971 180.56 359.136 179.183 368.413C177.13 382.278 175.052 396.142 172.999 410.032C172.774 411.486 175.002 412.088 175.202 410.633C176.729 400.304 178.282 389.975 179.809 379.645C180.635 374.004 181.486 368.363 182.312 362.747C182.988 358.184 182.863 351.841 185.992 348.205C190.699 342.765 199.436 343.391 202.915 349.81C205.644 354.874 203.291 361.869 202.49 367.235C200.662 379.52 198.835 391.83 197.007 404.115C195.055 417.177 193.127 430.265 191.174 443.327C190.974 444.781 193.177 445.408 193.402 443.954Z" fill="#4B3425"/>
<path d="M293.239 413.341C318.749 426.454 344.259 439.566 369.794 452.679C375.652 455.687 381.51 458.696 387.368 461.704C396.981 466.643 404.792 473.187 409.023 483.466C412.778 492.567 413.228 505.128 408.973 514.204C404.566 523.606 397.282 532.256 387.243 535.891C377.705 539.351 365.939 540.655 356.551 535.841C340.554 527.618 324.532 519.394 308.535 511.146C285.528 499.312 262.522 487.503 239.515 475.669C252.683 452.503 265.751 429.262 278.093 405.544C283.15 408.151 288.207 410.759 293.239 413.341Z" fill="#9BB068"/>
<path d="M214.431 462.782C204.818 457.843 197.007 451.3 192.776 441.02C189.021 431.919 188.571 419.358 192.826 410.283C197.232 400.881 204.517 392.231 214.556 388.596C224.094 385.136 215.758 371.371 225.146 376.21C236.111 381.851 267.153 399.928 278.118 405.569C265.776 429.312 252.733 452.553 239.54 475.694C237.037 474.416 234.509 473.112 232.005 471.833C226.147 468.825 220.289 465.816 214.431 462.782Z" fill="#CFD9B5"/>
<path d="M210.125 406.747C207.096 386.414 204.067 366.056 201.038 345.723C200.162 339.806 204.417 333.288 210.576 332.611C216.709 331.934 222.718 335.82 223.669 342.163C226.698 362.496 229.727 382.854 232.756 403.187C233.633 409.104 229.377 415.623 223.218 416.3C217.085 416.977 211.077 413.091 210.125 406.747Z" fill="#CFD9B5"/>
<path d="M211.227 406.447C209.374 394.036 207.547 381.651 205.694 369.24C204.818 363.298 203.917 357.331 203.04 351.389C202.164 345.498 200.988 339.255 206.695 335.344C211.452 332.059 218.537 333.965 221.391 338.929C222.768 341.311 222.868 344.294 223.268 346.977C223.719 349.96 224.144 352.944 224.595 355.902C226.448 368.313 228.275 380.723 230.128 393.134C230.353 394.588 232.556 393.961 232.331 392.532C230.052 377.138 227.749 361.769 225.471 346.375C224.72 341.411 224.069 336.848 219.688 333.814C216.158 331.357 211.252 330.63 207.271 332.41C195.956 337.45 200.837 351.816 202.189 360.967C204.467 376.336 206.771 391.73 209.049 407.098C209.224 408.502 211.452 407.876 211.227 406.447Z" fill="#4B3425"/>
<path d="M204.643 445.333C199.461 412.163 194.278 378.968 189.096 345.798C188.17 339.882 192.376 333.338 198.559 332.611C204.693 331.884 210.726 335.745 211.727 342.088C216.909 375.258 222.092 408.452 227.274 441.622C228.2 447.539 223.994 454.083 217.811 454.81C211.677 455.537 205.644 451.676 204.643 445.333Z" fill="#CFD9B5"/>
<path d="M199.936 411.937C197.883 398.123 195.831 384.308 193.778 370.469C192.827 364.05 191.875 357.632 190.924 351.214C189.973 344.795 189.046 336.672 196.807 334.04C202.64 332.059 209.074 335.945 210.376 341.837C211.777 348.306 212.378 355.05 213.33 361.593C215.382 375.408 217.435 389.222 219.488 403.037C219.713 404.491 221.916 403.864 221.691 402.435C219.788 389.598 217.861 376.762 215.958 363.95C215.007 357.532 214.056 351.114 213.104 344.695C212.478 340.558 211.677 336.973 208.298 334.215C202.39 329.376 193.427 330.68 189.497 337.324C187.144 341.311 187.694 345.222 188.345 349.584C189.297 356.002 190.248 362.421 191.199 368.839C193.377 383.406 195.53 397.947 197.708 412.514C197.933 414.018 200.162 413.391 199.936 411.937Z" fill="#4B3425"/>
<path d="M203.366 354.097C207.046 378.818 210.726 403.538 214.406 428.259C215.282 434.176 211.026 440.694 204.868 441.371C198.735 442.048 192.726 438.162 191.775 431.819C188.095 407.098 184.415 382.378 180.735 357.657C179.859 351.74 184.115 345.222 190.273 344.545C196.406 343.868 202.415 347.754 203.366 354.097Z" fill="#CFD9B5"/>
<path d="M194.804 444.505C191.249 420.662 187.695 396.794 184.165 372.951C183.364 367.51 181.786 361.644 181.786 356.153C181.761 348.807 188.871 343.743 195.756 346.375C201.814 348.707 202.29 354.423 203.116 360.014C203.917 365.429 204.718 370.845 205.544 376.26C207.296 388.094 209.074 399.928 210.826 411.787C211.052 413.241 213.255 412.614 213.029 411.185C211.202 398.975 209.399 386.765 207.572 374.53C206.696 368.588 205.794 362.646 204.918 356.705C204.142 351.565 202.64 347.127 197.683 344.695C187.544 339.731 178.357 348.682 179.784 358.936C181.661 372.324 183.764 385.662 185.742 399.025C188.02 414.394 190.323 429.738 192.601 445.107C192.802 446.586 195.03 445.959 194.804 444.505Z" fill="#4B3425"/>
<path d="M5.64528 458.244C35.0355 442.55 64.4508 426.855 93.8411 411.16C97.9968 408.929 102.152 406.722 106.308 404.491C107.61 403.789 106.458 401.808 105.157 402.51C75.7663 418.205 46.351 433.9 16.9608 449.595C12.8051 451.826 8.64939 454.032 4.4937 456.264C3.16688 456.966 4.3435 458.946 5.64528 458.244Z" fill="#4B3425"/>
<path d="M365.288 449.093C339.978 435.931 314.694 422.743 289.384 409.581C285.854 407.75 282.324 405.895 278.769 404.065C277.468 403.388 276.291 405.369 277.618 406.045C302.928 419.208 328.212 432.396 353.522 445.558C357.052 447.389 360.581 449.244 364.136 451.074C365.438 451.751 366.59 449.77 365.288 449.093Z" fill="#4B3425"/>
<path d="M22.8189 435.73C28.2263 437.209 33.6337 438.664 39.0661 440.143C40.4931 440.519 41.0939 438.313 39.6669 437.936C34.2595 436.457 28.8521 435.003 23.4197 433.524C21.9927 433.123 21.3919 435.329 22.8189 435.73Z" fill="#4B3425"/>
<path d="M342.281 438.137C346.612 436.783 350.843 435.154 354.974 433.248C356.301 432.646 355.149 430.666 353.822 431.267C349.867 433.073 345.811 434.627 341.68 435.931C340.279 436.357 340.879 438.588 342.281 438.137Z" fill="#4B3425"/>
<path d="M292.964 224.878C297.17 234.029 308.735 233.528 315.77 228.213C323.305 222.496 330.891 210.236 327.586 200.483C325.133 193.238 314.068 188.85 309.887 197.224C308.085 200.809 309.512 205.097 312.29 207.779C315.845 211.189 321.278 211.766 325.959 211.916C337.049 212.292 350.017 207.303 351.719 194.892C352.12 192.009 347.714 190.756 347.313 193.664C346.062 202.665 337.55 206.927 329.214 207.303C325.258 207.478 320.351 207.503 316.822 205.422C314.894 204.294 313.292 202.213 313.843 199.932C314.393 197.575 317.122 196.798 319.225 197.475C323.531 198.879 324.157 204.294 323.431 208.055C322.554 212.568 320.026 217.031 317.122 220.541C312.391 226.232 301.25 231.948 296.944 222.521C295.668 219.889 291.737 222.22 292.964 224.878Z" fill="#4B3425"/>
<path d="M46.0507 163.754C45.2245 174.585 54.2369 183.961 65.1518 182.883C75.8165 181.805 83.0764 171.3 80.3477 160.895C79.3463 157.11 76.1669 152.647 71.811 155.104C67.455 157.561 66.5287 164.105 67.1296 168.542C68.8069 180.827 80.2225 187.12 91.0373 190.329C93.8662 191.182 95.0678 186.744 92.264 185.917C85.5047 183.911 78.2698 180.953 74.2643 174.81C72.2616 171.726 71.0599 167.79 71.6608 164.08C71.7859 163.352 71.9612 162.6 72.2366 161.923C72.537 161.096 73.8137 159.115 75.0154 159.692C76.1169 160.219 76.3422 164.481 76.3422 165.283C76.3922 172.704 70.384 178.596 62.9739 178.395C55.2383 178.195 50.0812 171.175 50.632 163.754C50.8573 160.82 46.276 160.82 46.0507 163.754Z" fill="#4B3425"/>
<path d="M50.0311 338.302C55.8641 343.818 65.1268 344.846 71.9612 340.483C75.6913 338.101 77.9444 334.341 79.4965 330.304C81.0486 326.167 82.9512 320.601 80.4728 316.414C78.7455 313.481 74.6899 311.576 71.5356 313.381C68.3312 315.211 67.8806 319.348 68.8819 322.557C71.3353 330.505 80.5479 334.466 88.2835 334.065C99.2736 333.488 107.585 325.164 113.518 316.64C115.195 314.208 111.24 311.927 109.563 314.334C105.232 320.551 99.6241 326.669 92.1138 328.825C86.0054 330.58 77.9944 329.051 74.3394 323.409C73.6635 322.356 72.587 320.451 72.9625 319.122C74.064 315.186 76.3672 318.495 76.7928 319.874C77.1933 321.178 76.9931 322.382 76.7177 323.685C75.9666 327.446 74.4646 331.783 71.811 334.642C66.9793 339.831 58.2924 339.806 53.2605 335.018C51.1326 333.012 47.8782 336.271 50.0311 338.302Z" fill="#4B3425"/>
<path d="M241.168 158.589C237.012 151.97 237.588 142.769 243.571 137.378C248.728 132.74 261.07 130.584 265.226 137.83C266.628 140.287 265.601 143.621 262.247 142.894C259.643 142.317 258.466 139.635 258.266 137.203C257.941 133.392 259.393 129.431 261.32 126.221C265.226 119.753 272.11 115.315 279.62 114.588C282.524 114.312 282.549 109.724 279.62 110C270.433 110.853 262.147 115.942 257.365 123.89C253.359 130.534 250.631 143.596 260.169 147.031C263.523 148.234 267.554 147.457 269.507 144.273C271.96 140.312 270.107 135.473 266.803 132.665C259.768 126.748 248.578 127.701 241.593 133.091C233.157 139.61 231.655 152.045 237.212 160.895C238.79 163.403 242.745 161.096 241.168 158.589Z" fill="#4B3425"/>
<path d="M127.916 39.5502C121.487 37.1727 117.649 30.0723 119.441 23.9357C121.232 17.7991 128.428 13.3975 135.272 14.2971C138.791 14.7469 141.989 16.3855 145.091 17.9919C149.025 20.016 152.959 22.0401 156.893 24.0963C147.074 20.9156 142.309 9.7991 144.484 0.449675C146.019 -6.26521 151.072 -12.7231 158.301 -14.4901C164.218 -15.9359 170.486 -14.1046 175.924 -11.5343C192.747 -3.59853 204.549 11.02 214.56 25.7349C211.425 21.7509 214.912 15.6786 219.965 14.0722C225.018 12.4979 230.584 14.1365 235.349 16.3533C246 21.269 254.891 30.6184 261 40L127.916 39.5502Z" fill="#F2F5EB"/>
</svg>
