<svg width="375" height="653" viewBox="0 0 375 653" fill="none" xmlns="http://www.w3.org/2000/svg">
<g opacity="0.48" clip-path="url(#clip0_504_5922)">
<path d="M177.321 -6.05268C81.3962 17.7063 -9.13109 90.181 -60.9676 184.799C-74.4621 209.444 -85.6825 236.41 -86.3745 263.409C-87.0523 290.384 -75.1852 299.803 -52.5633 308.151C-22.493 319.272 64.3021 302.268 95.6875 303.325C112.699 303.884 168.633 298.248 170.744 316.27C172.133 328.317 162.759 335.191 154.292 344.766C132.664 369.2 109.929 380.028 100.166 411.086C93.8369 431.157 99.0308 452.389 110.035 467.323C121.025 482.281 137.137 491.778 153.858 498.897C196.375 517.009 244.31 521.511 292.15 520.887C351.386 520.116 413.633 510.975 468.238 477.108C482.788 468.088 498.188 454.748 500.096 437.551C502.197 418.645 487.189 405.658 473.586 395.887C451.513 380.023 429.427 364.183 407.332 348.307C394.001 338.725 379.4 326.46 380.303 308C381.081 292.556 392.76 278.791 404.754 268.652C423.771 252.558 446.412 244.537 467.23 232.602C485.078 222.399 515.147 200.139 513.938 175.618C513.69 170.502 511.614 165.955 508.933 162.1C496.177 143.685 470.738 136.603 450.066 131.494C423.255 124.855 395.378 121.436 367.083 121.285C335.33 121.12 302.154 124.945 273.353 114.069C263.877 110.483 254.27 104.222 252.569 93.3268C249.407 73.1052 273.864 56.5444 280.216 35.7708C287.883 10.6858 265.933 -10.2752 243.12 -13.6629C220.316 -17.0134 205.555 -11.8527 177.321 -6.05268Z" fill="#EDEBFF"/>
</g>
<path d="M207.499 178.082C214.3 164.406 224.628 152.966 237.545 144.857C238.813 144.069 237.646 142.061 236.377 142.849C223.131 151.161 212.473 162.88 205.495 176.912C204.81 178.26 206.814 179.429 207.499 178.082Z" fill="white"/>
<path d="M285.454 356.152C287.89 322.496 265.255 289.271 236.631 275.163C233.611 273.688 230.413 276.815 231.505 280.171C232.342 282.713 233.915 285.178 235.59 287.212C237.823 289.932 242.112 293.974 244.573 297.914C245.842 299.948 244.066 302.566 241.858 301.905C223.613 296.363 206.966 286.5 206.966 286.5C198.719 280.577 188.594 275.341 181.133 273.841C177.429 273.104 174.815 277.527 177.023 280.806C180.296 285.687 184.534 291.279 187.376 292.423C182.834 291.711 178.418 286.78 173.521 288.432C171.491 289.119 169.968 291.076 169.943 293.389C169.866 300.202 181.666 300.99 184.204 307.192C181.108 306.379 174.536 305.184 171.465 304.32C171.389 304.295 171.313 304.269 171.211 304.244C164.715 302.49 161.746 312.505 167.938 315.276L198.389 328.927C201.967 330.528 200.495 336.273 196.663 335.638L178.063 332.562C175.779 332.232 173.495 333.503 172.683 335.816C171.11 340.214 176.287 342.756 180.118 344.255C190.497 348.323 198.719 358.338 201.13 369.905C201.586 372.091 212.904 541.037 213.031 543.198C215.721 584.887 274.289 609.164 297 564.5L285.454 356.152Z" fill="#FEAF8F"/>
<path d="M229.323 332.537C235.235 336.808 242.975 340.85 246.731 347.307C250.309 353.458 250.918 360.906 251.501 367.821C251.628 369.295 253.937 369.321 253.811 367.821C253.202 360.474 252.491 352.645 248.71 346.137C244.726 339.274 236.707 335.054 230.465 330.529C229.297 329.639 228.13 331.648 229.323 332.537Z" fill="#4B3425"/>
<path d="M243.94 280.222C240.946 279.841 238.485 277.883 237.038 275.265C236.302 273.968 234.298 275.138 235.033 276.434C236.911 279.815 240.109 282.052 243.94 282.535C245.438 282.738 245.412 280.4 243.94 280.222Z" fill="#4B3425"/>
<path d="M212.118 305.184C202.83 299.591 193.543 293.999 184.255 288.406C182.961 287.644 181.794 289.652 183.088 290.415C192.375 296.007 201.663 301.6 210.951 307.192C212.219 307.955 213.412 305.946 212.118 305.184Z" fill="#4B3425"/>
<path d="M208.007 317.081C198.922 313.573 190.117 309.48 181.565 304.828C180.246 304.116 179.078 306.125 180.398 306.836C189.127 311.59 198.136 315.759 207.398 319.318C208.794 319.852 209.377 317.615 208.007 317.081Z" fill="#4B3425"/>
<path d="M232.165 305.138C230.11 307.247 228.587 309.688 227.496 312.408C226.938 313.806 229.196 314.391 229.729 313.018C230.668 310.679 232.038 308.569 233.815 306.764C234.855 305.722 233.206 304.07 232.165 305.138Z" fill="white"/>
<path d="M221.584 317.437C219.858 319.42 218.158 321.403 216.433 323.36C215.468 324.479 217.092 326.131 218.082 325.012C219.808 323.03 221.508 321.047 223.233 319.089C224.198 317.946 222.548 316.293 221.584 317.437Z" fill="white"/>
<path d="M204.912 341.078C204.303 343.137 203.364 345.018 202.095 346.772C201.207 347.992 203.237 349.136 204.1 347.941C205.47 346.035 206.485 343.925 207.145 341.688C207.576 340.264 205.343 339.654 204.912 341.078Z" fill="white"/>
<path d="M173.927 365.913C188.898 338.077 182.275 300.989 163.218 277.933C161.213 275.492 157.255 276.967 156.925 280.246C156.671 282.737 157.077 285.457 157.711 287.847C158.574 291.024 160.68 296.134 161.289 300.455C161.594 302.692 159.082 304.243 157.458 302.819C143.983 291.075 133.528 276.229 133.528 276.229C128.732 267.993 122.084 259.63 116.298 255.486C113.43 253.427 109.472 256.198 110.106 259.859C111.045 265.299 112.517 271.705 114.522 273.764C110.918 271.425 109.04 265.502 104.219 265.019C102.214 264.816 100.159 265.934 99.2707 267.866C96.5808 273.662 106.376 278.873 106.173 285.152C103.838 283.271 98.687 279.737 96.3778 277.806C96.3271 277.755 96.2509 277.704 96.2002 277.653C91.328 273.662 84.9333 281.085 89.1711 285.838L109.954 309.225C112.39 311.971 108.939 316.317 105.919 314.309L91.2011 304.548C89.3741 303.378 86.938 303.607 85.3647 305.26C82.3449 308.412 85.7961 312.581 88.4859 315.326C95.8195 322.8 98.9915 334.518 96.6062 345.322C96.1494 347.381 -6.22922 571.42 -6.93975 573.301C-20.6174 609.957 33.4841 634.462 70 605L173.927 365.913Z" fill="#4B3425"/>
<path d="M134.874 324.096C138.326 330.096 143.502 336.654 144.162 343.696C144.796 350.279 142.436 356.863 140.305 362.964C139.797 364.388 142.056 364.998 142.538 363.574C144.898 356.838 147.334 349.644 146.344 342.424C145.355 335.358 140.356 328.977 136.879 322.927C136.143 321.631 134.139 322.8 134.874 324.096Z" fill="#4B3425"/>
<path d="M167.685 285.05C165.3 283.576 163.853 281.084 163.6 278.288C163.473 276.814 161.138 276.788 161.29 278.288C161.595 281.898 163.397 285.126 166.518 287.058C167.787 287.846 168.954 285.838 167.685 285.05Z" fill="#4B3425"/>
<path d="M130.891 294.199C125.08 285.861 119.295 277.497 113.483 269.159C112.646 267.939 110.616 269.109 111.479 270.329C117.29 278.667 123.076 287.03 128.887 295.368C129.724 296.588 131.729 295.444 130.891 294.199Z" fill="#4B3425"/>
<path d="M122.821 302.744C116.4 296.261 110.437 289.398 104.905 282.128C104.017 280.958 101.987 282.102 102.9 283.297C108.534 290.72 114.624 297.761 121.171 304.371C122.237 305.464 123.886 303.811 122.821 302.744Z" fill="#4B3425"/>
<path d="M147.993 301.73C145.43 302.747 143.146 304.196 141.141 306.128C140.076 307.17 141.7 308.823 142.791 307.78C144.466 306.153 146.42 304.832 148.602 303.993C149.998 303.433 149.389 301.171 147.993 301.73Z" fill="white"/>
<path d="M133.96 308.286C131.727 309.328 129.519 310.345 127.286 311.387C125.941 312.022 127.109 314.031 128.454 313.395C130.687 312.353 132.894 311.336 135.127 310.294C136.472 309.658 135.305 307.65 133.96 308.286Z" fill="white"/>
<path d="M110.868 321.938C109.548 323.463 108.051 324.734 106.3 325.751C105.006 326.488 106.173 328.496 107.467 327.759C109.371 326.666 111.071 325.268 112.492 323.59C113.482 322.446 111.832 320.794 110.868 321.938Z" fill="white"/>
<path d="M89.857 356.431C85.3401 355.287 81.1785 357.931 79.2499 362.074C77.1437 366.65 78.7424 371.759 81.1024 375.903C87.0657 386.401 96.5817 395.68 106.098 402.925C115.867 410.398 127.007 416.118 138.934 419.168C143.806 420.414 149.846 421.609 154.134 418.177C158.067 415.05 158.474 409.687 158.677 405.035C158.753 403.535 156.418 403.535 156.367 405.035C156.114 410.729 155.124 417.287 148.222 418.024C143.629 418.507 138.604 416.779 134.29 415.381C125.688 412.559 117.593 408.314 110.234 403.077C102.799 397.815 96.1249 391.511 90.2884 384.52C87.0403 380.631 83.4116 376.36 81.5845 371.556C79.5798 366.268 81.6606 356.71 89.248 358.642C90.6944 359.049 91.3035 356.812 89.857 356.431Z" fill="#FE814B"/>
<path d="M88.2081 365.126C80.773 365.1 69.1762 368.837 72.0944 378.7C73.2617 382.589 76.6875 385.36 79.9102 387.521C84.554 390.622 89.5784 393.291 94.679 395.579C114.32 404.4 137.031 407.933 158.347 404.273C162.433 403.587 167.127 402.112 168.98 397.994C170.477 394.689 169.665 390.724 166.442 388.868C165.148 388.131 163.981 390.139 165.275 390.876C168.447 392.707 167.685 397.028 165.249 399.138C163.346 400.816 160.707 401.451 158.271 401.909C153.17 402.849 147.867 403.18 142.69 403.256C132.591 403.383 122.491 402.112 112.747 399.519C102.977 396.926 93.5878 393.012 84.8839 387.851C80.9252 385.487 75.2918 382.462 74.1753 377.556C72.3482 369.472 82.5239 367.413 88.2081 367.439C89.7053 367.464 89.7053 365.126 88.2081 365.126Z" fill="#FE814B"/>
<path d="M303.573 138.122C301.289 134.716 298.929 131.716 296.544 129.098C256.932 77.6471 200.978 131.665 184.738 170.457C182.149 166.364 179.129 162.221 178.419 161.077C172.253 151.061 165.579 141.63 157.027 133.852C148.983 126.531 139.619 120.43 129.621 116.82C115.537 109.931 99.8297 107.542 84.6803 113.414C64.4811 121.243 52.7575 141.707 55.9548 164.737C60.3702 196.64 79.5037 225.848 96.7085 251.37C117.618 282.434 175.831 329.741 175.831 329.741C176.719 329.284 177.582 328.826 178.47 328.343C179.459 329.182 179.992 329.639 179.992 329.639C211.839 313.726 242.848 286.959 266.727 256.378C288.068 229.051 326.157 171.753 303.573 138.122Z" fill="#A28FFF"/>
<path d="M364.805 463.604C362.217 459.359 300.96 358.059 298.397 353.814C285.582 332.715 276.218 310.014 267.159 287.034C257.998 263.775 262.947 236.066 279.847 218.043C280.608 217.23 283.755 215.756 284.846 215.501C287.104 214.993 289.185 217.408 289.211 219.721C289.236 222.034 287.891 224.144 286.521 226C284.237 229.127 281.725 232.203 280.507 235.888C279.289 239.574 279.695 244.099 282.613 246.641C286.825 246.921 288.754 241.557 289.414 237.388C291.824 222.314 293.804 206.604 298.321 192.013C299.386 188.581 303.7 185.073 306.999 186.471C309.08 187.361 309.664 190.005 309.917 192.267C311.415 205.892 309.486 219.416 308.293 233.092C308.775 221.882 311.338 210.926 311.821 199.715C311.947 196.69 311.643 192.547 313.013 189.852C314.384 187.158 317.352 185.022 320.296 185.582C322.935 186.09 324.813 188.581 325.447 191.174C326.107 193.767 326.234 197.529 325.955 200.198C324.635 212.4 324.382 224.729 325.194 236.982C325.346 227.144 326.437 217.332 328.493 207.723C329.178 204.571 330.269 201.012 333.187 199.664C336.689 198.063 340.901 200.758 342.424 204.266C343.972 207.774 343.591 211.79 343.388 215.628C341.713 245.574 343.769 294.076 456.286 441.184L364.805 463.604Z" fill="#4B3425"/>
<path d="M319.154 185.865C317.784 191.228 319.458 196.846 323.696 200.456C324.838 201.422 326.488 199.795 325.346 198.803C321.742 195.702 320.22 191.101 321.412 186.475C321.768 185.026 319.535 184.416 319.154 185.865Z" fill="white"/>
<path d="M304.638 187.185C302.227 192.04 303.597 197.709 307.886 201.013C309.079 201.929 310.221 199.895 309.053 199.005C305.831 196.514 304.866 191.989 306.643 188.354C307.302 187.007 305.298 185.837 304.638 187.185Z" fill="white"/>
<path d="M334.734 199.257C333.871 202.613 334.176 206.044 335.673 209.196C336.434 210.798 337.5 212.298 338.794 213.518C339.657 214.357 342.169 215.246 342.601 216.111C342.728 215.577 342.88 215.043 343.007 214.509C342.931 214.56 342.829 214.611 342.753 214.662C343.286 214.789 343.819 214.941 344.352 215.069C344.301 215.018 344.275 214.941 344.225 214.891C343.387 213.67 341.357 214.84 342.22 216.06C342.271 216.111 342.296 216.187 342.347 216.238C342.702 216.746 343.362 217 343.946 216.645C344.022 216.594 344.123 216.543 344.199 216.492C344.758 216.162 344.91 215.475 344.605 214.891C344.225 214.128 343.641 214.001 342.931 213.594C341.256 212.603 339.835 211.433 338.743 209.807C336.739 206.858 336.13 203.273 336.993 199.816C337.348 198.418 335.115 197.808 334.734 199.257Z" fill="white"/>
<path d="M325.016 218.02C324.991 225.316 325.473 232.561 326.463 239.806C326.666 241.28 328.899 240.645 328.696 239.196C327.757 232.18 327.3 225.138 327.326 218.046C327.351 216.521 325.016 216.521 325.016 218.02Z" fill="white"/>
<path d="M309.054 207.06C308.191 218.88 307.328 230.701 306.44 242.521C306.339 244.021 308.648 243.996 308.775 242.521C309.638 230.701 310.5 218.88 311.389 207.06C311.49 205.586 309.155 205.586 309.054 207.06Z" fill="white"/>
<path d="M340.165 248.978C337.576 249.08 335.115 249.588 332.704 250.554C331.334 251.088 331.943 253.35 333.313 252.791C335.521 251.901 337.779 251.393 340.139 251.291C341.662 251.24 341.662 248.902 340.165 248.978Z" fill="white"/>
<path d="M322.631 251.825C320.094 252.359 317.556 252.588 314.968 252.511C313.471 252.461 313.471 254.799 314.968 254.825C317.759 254.901 320.525 254.647 323.24 254.062C324.687 253.757 324.078 251.52 322.631 251.825Z" fill="white"/>
<path d="M304.283 252.007C301.264 252.287 298.244 252.567 295.224 252.846C293.752 252.973 293.727 255.312 295.224 255.16C298.244 254.88 301.264 254.6 304.283 254.321C305.755 254.194 305.755 251.88 304.283 252.007Z" fill="white"/>
<path d="M272.614 259.555C270.584 260.546 268.402 261.106 266.144 261.207C264.646 261.284 264.646 263.597 266.144 263.521C268.833 263.393 271.371 262.733 273.782 261.538C275.127 260.902 273.959 258.894 272.614 259.555Z" fill="white"/>
<path d="M276.066 224.628C281.395 226.993 287.155 222.29 285.404 216.545C284.973 215.121 282.715 215.731 283.171 217.155C284.262 220.765 280.837 224.222 277.259 222.62C275.888 222.036 274.696 224.018 276.066 224.628Z" fill="white"/>
<path d="M409.232 544L308.851 382.589L391.145 333.934L503.448 500.4L409.232 544Z" fill="#A28FFF"/>
<path d="M292.078 325.927C292.687 329.588 290.2 333.07 286.546 333.68C282.892 334.291 279.416 331.799 278.807 328.139C278.197 324.478 280.684 320.996 284.338 320.386C287.993 319.775 291.469 322.267 292.078 325.927Z" fill="white"/>
<path d="M305.781 323.082C306.39 326.742 303.903 330.225 300.249 330.835C296.595 331.445 293.118 328.954 292.509 325.293C291.9 321.633 294.387 318.15 298.041 317.54C301.721 316.93 305.172 319.396 305.781 323.082Z" fill="white"/>
<path d="M328.162 313.931C328.771 317.592 326.284 321.074 322.63 321.685C318.976 322.295 315.499 319.803 314.89 316.143C314.281 312.482 316.768 309 320.422 308.39C324.102 307.78 327.553 310.271 328.162 313.931Z" fill="white"/>
<path d="M347.398 305.819C348.007 309.479 345.52 312.962 341.866 313.572C338.212 314.182 334.735 311.691 334.126 308.03C333.517 304.37 336.004 300.887 339.658 300.277C343.338 299.667 346.789 302.133 347.398 305.819Z" fill="white"/>
<path d="M363.917 294.584C364.526 298.244 362.04 301.727 358.385 302.337C354.731 302.947 351.255 300.456 350.646 296.795C350.037 293.135 352.524 289.652 356.178 289.042C359.832 288.432 363.308 290.923 363.917 294.584Z" fill="white"/>
<path d="M1.37152 463.604C3.95986 459.359 65.2173 358.059 67.7803 353.814C80.5951 332.715 89.9588 310.014 99.018 287.034C108.179 263.775 103.23 236.066 86.3301 218.043C85.5688 217.23 82.4222 215.756 81.331 215.501C79.0726 214.993 76.9917 217.408 76.9664 219.721C76.941 222.034 78.2859 224.144 79.6562 226C81.94 229.127 84.4523 232.203 85.6703 235.888C86.8884 239.574 86.4823 244.099 83.5641 246.641C79.3517 246.921 77.4231 241.557 76.7634 237.388C74.3526 222.314 72.3733 206.604 67.8564 192.013C66.7906 188.581 62.4767 185.073 59.1778 186.471C57.097 187.361 56.5134 190.005 56.2596 192.267C54.7624 205.892 56.691 219.416 57.8837 233.092C57.4015 221.882 54.8386 210.926 54.3564 199.715C54.2295 196.69 54.5341 192.547 53.1638 189.852C51.7935 187.158 48.8245 185.022 45.8809 185.582C43.2418 186.09 41.364 188.581 40.7296 191.174C40.0698 193.767 39.9429 197.529 40.222 200.198C41.5416 212.4 41.7953 224.729 40.9833 236.982C40.8311 227.144 39.7399 217.332 37.6845 207.723C36.9993 204.571 35.9081 201.012 32.9899 199.664C29.488 198.063 25.2756 200.758 23.7531 204.266C22.2051 207.774 22.5858 211.79 22.7888 215.628C24.4636 245.574 22.4081 294.076 -90.1086 441.184L1.37152 463.604Z" fill="#BDA193"/>
<path d="M44.7891 186.475C45.9817 191.101 44.4592 195.702 40.8558 198.803C39.7139 199.769 41.3633 201.422 42.5052 200.456C46.743 196.846 48.4178 191.228 47.0475 185.865C46.6669 184.416 44.4084 185.026 44.7891 186.475Z" fill="#4B3425"/>
<path d="M59.5321 188.354C61.3338 191.964 60.3441 196.514 57.1214 199.005C55.9541 199.895 57.1214 201.929 58.2887 201.013C62.5518 197.709 63.9221 192.04 61.5368 187.185C60.877 185.837 58.8723 187.007 59.5321 188.354Z" fill="#4B3425"/>
<path d="M29.1836 199.869C30.0717 203.326 29.4374 206.885 27.4327 209.859C26.443 211.334 25.1234 212.528 23.6009 213.444C22.7889 213.927 22.0022 214.079 21.5454 214.943C21.2663 215.503 21.3932 216.189 21.9515 216.545C22.0276 216.596 22.1291 216.647 22.2052 216.697C22.7635 217.053 23.4486 216.799 23.8039 216.291C23.8547 216.24 23.88 216.164 23.9308 216.113C24.7936 214.893 22.7635 213.723 21.9261 214.943C21.8753 214.994 21.85 215.071 21.7992 215.121C22.3321 214.994 22.865 214.842 23.3979 214.715C23.3218 214.664 23.2203 214.613 23.1441 214.562C23.271 215.096 23.4233 215.63 23.5501 216.164C23.9815 215.299 26.4684 214.41 27.3565 213.571C28.6507 212.351 29.7165 210.851 30.4778 209.249C31.9749 206.097 32.2795 202.665 31.4167 199.31C31.0614 197.81 28.8283 198.42 29.1836 199.869Z" fill="#4B3425"/>
<path d="M38.8522 218.018C38.8776 225.11 38.4462 232.152 37.4819 239.168C37.2789 240.642 39.512 241.252 39.715 239.778C40.6793 232.559 41.1868 225.314 41.1614 217.993C41.1614 216.518 38.8268 216.518 38.8522 218.018Z" fill="#4B3425"/>
<path d="M54.8125 207.06C55.6753 218.88 56.5381 230.701 57.4262 242.521C57.5277 243.996 59.8623 244.021 59.7354 242.521C58.8727 230.701 58.0099 218.88 57.1217 207.06C57.0202 205.586 54.711 205.586 54.8125 207.06Z" fill="#4B3425"/>
<path d="M26.011 251.291C28.371 251.393 30.6548 251.901 32.8625 252.791C34.2582 253.35 34.8418 251.088 33.4715 250.554C31.0608 249.588 28.5993 249.08 26.011 248.978C24.5138 248.902 24.5138 251.24 26.011 251.291Z" fill="white"/>
<path d="M42.9361 254.062C45.6767 254.647 48.4173 254.901 51.2086 254.825C52.7058 254.774 52.7058 252.461 51.2086 252.511C48.6203 252.588 46.0827 252.384 43.5451 251.825C42.0987 251.52 41.4896 253.757 42.9361 254.062Z" fill="white"/>
<path d="M61.892 254.345C64.9117 254.624 67.9315 254.904 70.9512 255.183C72.4484 255.311 72.423 252.997 70.9512 252.87C67.9315 252.591 64.9117 252.311 61.892 252.031C60.4202 251.879 60.4202 254.192 61.892 254.345Z" fill="white"/>
<path d="M92.3699 261.564C94.7807 262.759 97.3182 263.42 100.008 263.547C101.505 263.623 101.505 261.285 100.008 261.234C97.7496 261.132 95.5673 260.573 93.5372 259.582C92.2177 258.895 91.025 260.903 92.3699 261.564Z" fill="white"/>
<path d="M88.9429 222.618C85.3395 224.22 81.9137 220.763 83.0303 217.153C83.4617 215.729 81.2286 215.094 80.7972 216.543C79.0463 222.288 84.8066 226.991 90.1355 224.627C91.4805 224.017 90.2878 222.034 88.9429 222.618Z" fill="#4B3425"/>
<path d="M57.3248 382.589L-24.9693 333.934L-40.3978 355.973C-12.7635 372.802 14.4141 390.316 42.2007 406.662L57.3248 382.589Z" fill="white"/>
<path d="M-40.3722 356.001L-128 478.851L-40.3722 535.48L42.2265 406.689C14.4398 390.344 -12.7632 372.829 -40.3722 356.001Z" fill="#A28FFF"/>
<path d="M25.4283 410.654C25.4283 413.247 23.3221 415.357 20.7337 415.357C18.1454 415.357 16.0392 413.247 16.0392 410.654C16.0392 408.061 18.1454 405.951 20.7337 405.951C23.3221 405.951 25.4283 408.061 25.4283 410.654Z" fill="#4B3425"/>
<path d="M16.0388 428.297C16.0388 430.89 13.9326 433 11.3443 433C8.75592 433 6.64972 430.89 6.64972 428.297C6.64972 425.704 8.75592 423.594 11.3443 423.594C13.9326 423.594 16.0388 425.704 16.0388 428.297Z" fill="#4B3425"/>
<path d="M207.423 170.836C213.614 156.88 223.003 144.755 234.981 135.298C236.148 134.383 234.499 132.731 233.331 133.646C221.227 143.204 211.66 155.533 205.418 169.641C204.809 171.014 206.814 172.209 207.423 170.836Z" fill="white"/>
<path d="M247.214 128.029C251.35 126.173 255.664 124.928 260.13 124.241C261.602 124.013 260.967 121.776 259.521 122.004C254.826 122.716 250.36 124.089 246.046 126.046C244.676 126.631 245.843 128.639 247.214 128.029Z" fill="white"/>
<path d="M83.0817 136.367C92.7246 126.733 105.971 121.903 119.547 123.022C121.044 123.149 121.019 120.81 119.547 120.708C105.413 119.539 91.4811 124.674 81.4323 134.715C80.3919 135.783 82.0413 137.41 83.0817 136.367Z" fill="white"/>
<defs>
<clipPath id="clip0_504_5922">
<rect width="680.504" height="493.194" fill="white" transform="translate(74.8441 -114.696) rotate(30)"/>
</clipPath>
</defs>
</svg>
