<svg width="338" height="181" viewBox="0 0 338 181" fill="none" xmlns="http://www.w3.org/2000/svg">
<path d="M188.01 148.237C178.136 146.643 168.886 153.269 167.145 163.183C164.703 177.093 193.732 187.879 200.85 175.707C206.825 165.49 199.638 150.114 188.01 148.237Z" fill="#DCE1E8"/>
<path d="M108.525 38.9998C121.755 38.9381 132.525 25.4454 129.48 12.7483C125.757 -2.77676 93.7642 -4.72167 88.1355 10.2348C83.2998 23.0843 94.627 39.0647 108.525 38.9998Z" fill="#DCE1E8"/>
<path d="M191.919 131.891C154.527 128.704 138.183 163.273 100.675 162.033C60.4585 160.703 21.0586 158.194 6.25813 120.786C-6.02844 89.7315 -0.834463 55.9241 27.2838 37.8954C59.0804 17.5082 82.4609 75.8994 119.321 67.6408C151.667 60.3935 152.127 11.5113 185.175 14.0991C217.408 16.6231 209.64 76.475 241.904 74.3831C262.958 73.018 265.643 44.838 286.733 44.2411C317.371 43.3738 336.24 73.1349 337.908 103.732C339.918 140.589 308.562 166.037 272.054 171.551C237.527 176.767 226.712 134.856 191.919 131.891Z" fill="#DCE1E8"/>
<path d="M121.211 46.0412C120.446 47.9557 119.701 49.8701 118.955 51.7846C117.827 54.6754 122.282 56.4176 123.43 53.5459C123.659 52.9716 123.888 52.3972 124.118 51.8037L131.136 55.0966C130.39 58.6192 130.773 62.1992 132.13 65.3581L125.705 68.8424C125.495 68.5361 125.304 68.2489 125.189 68.0192C124.577 66.8322 123.315 66.277 122.034 66.7748C120.886 67.2151 120.217 68.8233 120.791 69.9337C121.651 71.5992 122.741 72.9968 124.118 74.2795C125.112 75.1984 126.719 74.7198 127.484 73.8009C128.344 72.7671 127.942 71.3886 127.082 70.5271L133.106 67.2534C134.96 70.4314 137.829 73.0159 141.519 74.4709C142.246 74.7581 142.992 74.9687 143.718 75.1601L143.087 81.7267C142.82 81.6502 142.552 81.5736 142.265 81.4779C141.022 81.1141 139.665 81.5353 139.148 82.8371C138.708 83.9666 139.263 85.5939 140.506 85.9577C142.131 86.4363 143.776 86.9149 145.401 87.3935C146.644 87.7573 148.002 87.3361 148.518 86.0343C148.958 84.9047 148.403 83.2774 147.161 82.9137C146.491 82.7222 145.841 82.5308 145.172 82.3394L145.822 75.543C151.463 76.1939 157.047 73.954 160.68 69.6656L166.034 75.543C165.767 75.7536 165.48 75.9451 165.174 76.1557C164.046 76.8832 164.065 78.5679 164.772 79.5251C165.575 80.6546 167.086 80.5972 168.138 79.9271C169.476 79.0848 170.624 77.9935 171.618 76.7874C172.479 75.7536 172.115 74.222 171.14 73.418C170.107 72.5565 168.578 72.9202 167.775 73.8966C167.717 73.9732 167.66 74.0306 167.583 74.088L161.961 67.9235C162.573 66.9854 163.109 65.9707 163.529 64.8795C164.6 62.161 164.925 59.3467 164.6 56.6473L171.331 53.9479C171.503 54.4074 171.656 54.8477 171.828 55.3072C172.287 56.5707 173.836 56.9919 174.984 56.5516C176.246 56.073 176.666 54.5797 176.227 53.3927C175.672 51.8612 175.118 50.3296 174.563 48.798C174.104 47.5345 172.555 47.1133 171.408 47.5536C170.146 48.0322 169.725 49.5255 170.165 50.7125C170.318 51.1145 170.471 51.5357 170.605 51.9377L164.179 54.5031C163.204 50.5976 160.852 47.0942 157.468 44.7202C157.487 44.6819 157.525 44.6628 157.544 44.6054L159.743 38.996C159.973 39.1874 160.202 39.3789 160.431 39.6086C161.368 40.5276 163.09 40.0681 163.797 39.13C164.638 38.0005 164.256 36.6604 163.319 35.7606C161.732 34.2099 159.705 33.3101 157.544 32.908C156.263 32.6783 155.039 33.827 154.905 35.0331C154.752 36.3923 155.766 37.4453 157.028 37.675C157.315 37.7325 157.601 37.809 157.869 37.9048L155.67 43.6098C155.115 43.3227 154.561 43.0547 153.968 42.8249C149.723 41.1402 145.21 41.3125 141.29 42.9206L137.561 36.1243C137.752 36.086 137.963 36.0477 138.154 36.0094C139.473 35.7989 140.296 34.5545 140.162 33.2718C140.028 31.9891 138.67 31.0701 137.427 31.2616C135.706 31.5296 134.004 32.0657 132.474 32.908C131.289 33.5589 130.734 34.765 131.232 36.0669C131.671 37.1964 133.278 37.9239 134.387 37.3113C134.75 37.1198 135.113 36.9284 135.477 36.7752L139.359 43.8587C136.089 45.7158 133.392 48.6449 131.92 52.4164C131.843 52.627 131.786 52.8184 131.71 53.029L124.883 49.8318C125.151 49.1618 125.418 48.4917 125.686 47.8025C126.814 44.9308 122.34 43.1695 121.211 46.0412ZM150.851 63.3096C151.463 61.7589 153.203 61.0123 154.733 61.6249C156.282 62.2375 157.028 63.9797 156.416 65.5113C155.804 67.062 154.064 67.8086 152.534 67.196C151.004 66.6025 150.258 64.8603 150.851 63.3096ZM150.717 50.8465C151.195 49.6404 152.572 49.0278 153.777 49.5064C154.982 49.985 155.594 51.3634 155.115 52.5695C154.637 53.7756 153.261 54.3883 152.056 53.9096C150.832 53.431 150.239 52.0718 150.717 50.8465ZM140.047 64.8221C140.525 63.6159 141.902 63.0033 143.107 63.4819C144.311 63.9606 144.923 65.339 144.445 66.5451C143.967 67.7512 142.59 68.3638 141.386 67.8852C140.162 67.4066 139.569 66.0282 140.047 64.8221ZM138.269 53.163C139.167 50.9039 141.711 49.7936 143.986 50.6742C146.243 51.574 147.352 54.1202 146.472 56.3984C145.573 58.6575 143.03 59.7679 140.754 58.8872C138.479 57.9874 137.37 55.4221 138.269 53.163Z" fill="#0F67FE"/>
<path d="M71.9502 88.318C70.6499 85.0826 77.4957 87.2268 78.165 87.3034C79.0829 87.3991 79.9625 87.3225 80.8039 86.8822C81.6644 86.4227 82.1043 85.7144 82.6397 84.9294C83.8826 83.1107 85.2021 81.7323 87.5541 81.5791C90.193 81.4068 91.9714 84.1636 94.5338 83.5893C97.1727 83.015 98.9702 76.7164 101.437 77.8842C102.451 78.3628 103.33 76.8504 102.317 76.3718C101.169 75.8166 100.194 75.7592 99.0276 76.3718C97.2301 77.3099 97.1536 79.2243 95.8342 80.4879C93.4056 82.8044 91.3595 80.239 89.0648 79.8944C87.6689 79.6838 86.2156 79.8753 84.9344 80.4304C83.6149 80.9856 82.5632 81.8854 81.7218 83.0533C80.5171 84.738 79.3124 85.5421 76.9986 85.2549C75.9851 85.1209 75.0672 84.5848 73.9963 84.5465C71.6634 84.4317 69.2348 86.2313 70.2483 88.7583C70.669 89.8113 72.3709 89.371 71.9502 88.318Z" fill="#242E49"/>
<path d="M218.523 93.7366C216.84 96.3403 215.1 90.7309 214.699 89.7737C214.335 88.893 213.876 87.9741 213.112 87.3615C212.442 86.8254 211.658 86.5957 210.817 86.5191C208.331 86.3085 206.361 86.6914 204.564 84.4515C202.843 82.3073 204.105 79.1484 202.154 77.3106C200.319 75.5875 194.008 77.3297 193.607 74.5346C193.454 73.4242 191.771 73.9028 191.924 74.9941C192.593 79.6653 197.412 76.9277 200.127 78.1146C201.848 78.8804 201.428 82.4604 202.212 84.0495C202.938 85.5427 204.162 86.7488 205.616 87.4955C207.604 88.5293 211.41 87.7252 212.729 89.6397C213.704 91.0564 213.59 93.0091 214.66 94.4258C216.018 96.2446 218.695 96.6083 220.015 94.5598C220.646 93.66 219.135 92.7794 218.523 93.7366Z" fill="#242E49"/>
<path d="M286.631 162.607C284.012 160.942 289.614 159.161 290.571 158.759C291.45 158.396 292.349 157.936 292.961 157.17C293.496 156.5 293.726 155.715 293.802 154.873C294.013 152.384 293.611 150.412 295.829 148.594C297.952 146.851 301.126 148.115 302.943 146.143C304.645 144.305 302.905 137.987 305.658 137.566C306.767 137.394 306.289 135.709 305.199 135.881C300.533 136.571 303.287 141.376 302.121 144.095C301.356 145.837 297.799 145.416 296.193 146.2C294.72 146.928 293.496 148.172 292.751 149.627C291.737 151.618 292.559 155.447 290.647 156.768C289.232 157.764 287.282 157.649 285.866 158.721C284.05 160.099 283.706 162.78 285.752 164.081C286.708 164.732 287.587 163.22 286.631 162.607Z" fill="#242E49"/>
<path d="M169.195 120.106C168.067 118.096 165.007 118.287 163.095 119.57C161.202 120.872 159.901 122.901 157.989 124.184C153.84 127.017 147.242 126.117 144.642 130.425C144.336 130.923 144.106 131.497 144.183 132.071C144.336 133.373 145.789 134.062 147.07 134.369C152.138 135.556 157.683 134.483 161.928 131.497C162.789 130.884 163.649 130.176 164.682 129.946C166.365 129.563 168.009 130.501 169.635 131.095C174.454 132.837 180.305 131.248 183.575 127.304C184.416 126.29 185.124 125.026 184.971 123.724C184.665 120.929 180.993 119.953 178.221 120.393C175.429 120.833 172.446 121.925 169.941 120.642L169.195 120.106Z" fill="#08B4BD"/>
<path d="M200.292 26.3306C199.986 26.0243 199.68 25.718 199.355 25.3925C198.571 24.6076 197.404 24.129 196.314 24.129C195.702 24.1098 195.129 24.2247 194.612 24.5119C194.058 24.6842 193.58 24.9905 193.178 25.4308C192.432 26.254 191.878 27.3261 191.916 28.4748C191.954 29.6618 192.356 30.7722 193.216 31.6145C193.522 31.9208 193.828 32.2272 194.153 32.5526C194.937 33.3375 196.104 33.8162 197.194 33.8162C197.806 33.8353 198.379 33.7204 198.896 33.4333C199.45 33.261 199.928 32.9547 200.33 32.5143C201.076 31.6911 201.63 30.619 201.592 29.4703C201.535 28.3025 201.133 27.1921 200.292 26.3306Z" fill="#242E49"/>
<path d="M269.243 82.6706C274.884 82.6706 274.941 73.9023 269.3 73.9023C263.678 73.9215 263.621 82.6706 269.243 82.6706Z" fill="#242E49"/>
<path d="M93.375 27.4592C93.375 27.7655 93.375 28.0527 93.375 28.359C93.375 29.5077 93.8531 30.6946 94.6753 31.4987C95.0769 31.9199 95.5358 32.2262 96.0904 32.3985C96.6067 32.6665 97.1421 32.7814 97.7349 32.7622C98.8823 32.724 100.087 32.3411 100.871 31.4604C101.636 30.6181 102.133 29.5651 102.133 28.4164C102.133 28.1101 102.133 27.8229 102.133 27.5166C102.133 26.368 101.655 25.181 100.833 24.3769C100.431 23.9557 99.9722 23.6494 99.4177 23.4771C98.9014 23.2091 98.366 23.0942 97.7732 23.1134C96.6258 23.1517 95.4211 23.5346 94.6371 24.4152C93.8722 25.2576 93.375 26.3105 93.375 27.4592Z" fill="#242E49"/>
<path d="M202.887 149.096C208.528 149.096 208.586 140.328 202.945 140.328C197.323 140.328 197.265 149.096 202.887 149.096Z" fill="#242E49"/>
<path d="M307.986 43.804C308.292 44.1103 308.598 44.4166 308.923 44.7421C309.707 45.527 310.874 46.0056 311.964 46.0056C312.576 46.0247 313.149 45.9099 313.666 45.6227C314.22 45.4504 314.698 45.1441 315.1 44.7038C315.846 43.8806 316.4 42.8085 316.362 41.6598C316.324 40.4728 315.922 39.3624 315.061 38.5201C314.756 38.2138 314.45 37.9074 314.144 37.582C313.36 36.7971 312.193 36.3184 311.103 36.3184C310.491 36.2993 309.918 36.4142 309.401 36.7013C308.847 36.8736 308.369 37.1799 307.967 37.6203C307.221 38.4435 306.667 39.5156 306.705 40.6643C306.743 41.8321 307.145 42.9425 307.986 43.804Z" fill="#242E49"/>
<path d="M283.948 34.038C283.948 34.0571 283.948 34.0571 283.948 34.038C283.929 34.2103 283.91 34.3634 283.891 34.5166C283.432 37.7329 281.768 40.26 279.32 41.8107C278.785 42.1553 278.211 42.4616 277.58 42.6913C276.586 43.0934 275.515 43.3614 274.349 43.4954C269.797 43.9932 265.514 44.7207 261.441 46.2331C260.829 46.4628 260.236 46.7117 259.643 46.9797C257.865 47.7647 256.125 48.741 254.423 49.928C251.975 51.6319 249.814 53.642 247.921 55.882C247.481 56.3989 247.042 56.9349 246.64 57.4901C244.307 60.5915 242.471 64.0567 241.133 67.7516C241.056 68.0005 240.942 68.2685 240.846 68.5174C240.578 69.13 240.291 69.7235 239.947 70.2979C237.958 73.7056 234.708 76.0029 230.329 75.6009C225.414 75.1414 221.532 70.853 221.379 65.9329C221.322 63.8461 221.838 61.6253 222.68 59.4237C222.909 58.8111 223.158 58.1985 223.445 57.605C224.707 54.8099 226.332 52.1105 227.728 49.928C228.493 48.7219 229.296 47.5349 230.157 46.3863C230.558 45.8311 230.979 45.295 231.419 44.759C234.383 41.0832 237.786 37.8095 241.554 34.9952C242.07 34.6123 242.605 34.2294 243.141 33.8657C246.506 31.5109 250.12 29.539 253.926 27.9692C255.054 27.5097 256.393 26.9928 257.884 26.495C258.458 26.3036 259.07 26.093 259.701 25.9207C264.252 24.5231 269.702 23.3936 274.291 23.8148C274.788 23.8531 275.285 23.9296 275.764 24.0062C280.372 24.8294 283.795 27.5288 283.967 33.6168C283.948 33.7317 283.967 33.8848 283.948 34.038ZM280.582 34.0571C280.582 21.8429 261.326 28.4861 254.997 31.1089C246.143 34.7846 238.245 40.8918 232.585 48.6453C229.659 52.6657 227.288 57.0881 225.625 61.7594C224.745 64.1716 224.248 66.5072 225.567 68.8811C226.982 71.4082 229.851 72.7101 232.681 72.0783C237.997 70.8722 238.723 63.8078 241.095 59.6917C243.58 55.3651 246.908 51.5553 250.79 48.4539C255.264 44.8738 260.638 42.4425 266.202 41.1406C269.434 40.394 273.909 40.6237 277.026 39.1687C277.312 39.0347 277.561 38.9007 277.81 38.7476C279.282 37.8478 280.334 36.3928 280.582 34.0571Z" fill="#5D6A85"/>
<path d="M280.586 34.0571C280.586 21.8237 261.329 28.486 255 31.1088C246.146 34.7846 238.249 40.8917 232.588 48.6453C229.663 52.6657 227.291 57.0881 225.628 61.7593C224.748 64.1716 224.251 66.5072 225.57 68.8811C226.986 71.4082 229.854 72.71 232.684 72.0783C238 70.8722 238.727 63.8078 241.098 59.6917C243.584 55.365 246.911 51.5553 250.793 48.4538C255.268 44.8738 260.641 42.4424 266.206 41.1406C269.437 40.394 273.912 40.6237 277.029 39.1687C277.22 38.9198 277.526 38.7667 277.813 38.7475C279.285 37.8477 280.337 36.3927 280.586 34.0571Z" fill="#5D6A85"/>
<path d="M225.106 59.6328C220.382 59.6328 216.195 57.412 213.422 53.6023C212.695 52.6067 214.359 51.6304 215.086 52.6259C217.438 55.8805 221.09 57.6992 225.106 57.6992C226.33 57.6992 226.33 59.6328 225.106 59.6328Z" fill="#5D6A85"/>
<path d="M231.171 46.6724C228.169 46.0406 225.759 43.7242 224.956 40.7759C224.631 39.5889 226.486 39.072 226.811 40.259C227.442 42.6138 229.316 44.3176 231.687 44.8154C232.892 45.0643 232.376 46.9213 231.171 46.6724Z" fill="#5D6A85"/>
<path d="M242.033 35.473C239.892 33.5203 238.515 30.9358 238.132 28.0641C237.96 26.858 239.815 26.3219 239.987 27.5472C240.331 30.1125 241.479 32.3525 243.391 34.1138C244.309 34.9561 242.951 36.3154 242.033 35.473Z" fill="#5D6A85"/>
<path d="M259.303 28.8102C257.065 26.0151 256.281 22.5691 257.142 19.0848C257.448 17.8787 259.284 18.3956 258.997 19.6017C258.308 22.3585 258.882 25.211 260.661 27.4509C261.425 28.4082 260.068 29.7675 259.303 28.8102Z" fill="#5D6A85"/>
<path d="M274.422 24.0055C272.644 21.8422 272.357 18.8365 273.886 16.4434C274.556 15.4096 276.219 16.3668 275.55 17.4198C274.518 19.0471 274.537 21.1338 275.78 22.6463C276.544 23.6035 275.206 24.9628 274.422 24.0055Z" fill="#5D6A85"/>
<path d="M239.716 67.1582C241.074 69.4555 243.693 70.6616 246.313 70.1256C247.518 69.8767 248.034 71.7337 246.829 71.9826C243.368 72.6909 239.888 71.1977 238.071 68.1345C237.44 67.0624 239.085 66.0861 239.716 67.1582Z" fill="#5D6A85"/>
<path d="M247.424 54.6759C248.17 57.4136 250.656 59.2898 253.486 59.2707C254.729 59.2515 254.729 61.1851 253.486 61.1851C249.814 61.2234 246.545 58.7346 245.569 55.1929C245.244 54.0059 247.099 53.489 247.424 54.6759Z" fill="#5D6A85"/>
<path d="M260.561 44.7011C261.69 47.0559 263.392 48.9895 265.61 50.3679C266.661 51.0188 265.686 52.6844 264.635 52.0335C262.149 50.4827 260.16 48.3194 258.898 45.6774C258.362 44.5671 260.026 43.5907 260.561 44.7011Z" fill="#5D6A85"/>
<path d="M282.228 47.3616C280.909 45.6769 279.934 43.8199 279.303 41.8288C279.054 41.0631 278.863 40.259 278.71 39.4549C278.614 38.9189 278.213 38.7274 277.811 38.7657C277.524 38.7849 277.218 38.938 277.027 39.1869C276.874 39.3783 276.798 39.6464 276.855 39.9527C277.027 40.8908 277.276 41.8097 277.563 42.6904C278.308 44.8537 279.417 46.8639 280.852 48.7018C281.636 49.6781 282.974 48.3189 282.228 47.3616Z" fill="#5D6A85"/>
<path d="M229.203 61.242C229.394 59.0787 230.35 57.1068 232.014 55.6901C232.874 54.9626 234.117 56.207 233.257 56.9345C231.957 58.0449 231.115 59.519 230.962 61.242C230.867 62.3524 229.107 62.3716 229.203 61.242Z" fill="white"/>
<path d="M235.877 60.3031C237.33 56.7614 239.548 53.7365 242.57 51.4009C243.449 50.7117 244.692 51.9561 243.812 52.6453C241.059 54.7895 238.898 57.5271 237.579 60.7817C237.139 61.7964 235.437 61.3369 235.877 60.3031Z" fill="white"/>
<path d="M240.693 45.1794C242.376 43.7627 244.039 42.3651 245.722 40.9484C246.583 40.2209 247.825 41.4653 246.965 42.1928C245.282 43.6095 243.619 45.0071 241.936 46.4238C241.075 47.1321 239.832 45.9068 240.693 45.1794Z" fill="white"/>
<path d="M251.286 42.4416C253.581 40.8143 255.856 39.2062 258.151 37.5789C259.069 36.9279 259.949 38.4404 259.031 39.0913C256.736 40.7186 254.46 42.3267 252.166 43.954C251.248 44.6049 250.387 43.0925 251.286 42.4416Z" fill="white"/>
<path d="M259.014 31.4524C261.27 30.9546 263.508 30.4569 265.764 29.9782C266.854 29.7294 267.332 31.4332 266.223 31.663C263.967 32.1607 261.729 32.6585 259.473 33.1371C258.383 33.386 257.924 31.7013 259.014 31.4524Z" fill="white"/>
<path d="M270.143 35.0712C272.399 34.4011 274.656 33.7311 276.912 33.0802C278.002 32.7547 278.461 34.4586 277.371 34.7649C275.115 35.4349 272.858 36.0859 270.602 36.7559C269.512 37.0622 269.053 35.3775 270.143 35.0712Z" fill="white"/>
<path d="M229.356 71.3115C229.968 70.4883 230.599 69.6651 231.211 68.8419C231.498 68.459 231.976 68.2675 232.415 68.5356C232.779 68.7462 233.008 69.3588 232.721 69.7417C232.11 70.5649 231.478 71.3881 230.867 72.2113C230.58 72.5942 230.102 72.7857 229.662 72.5176C229.299 72.2879 229.069 71.6753 229.356 71.3115Z" fill="white"/>
<path d="M44.3059 70.9082C45.7592 69.1852 47.2698 67.5196 48.8761 65.9306C49.794 65.0308 50.7501 64.1501 51.7063 63.3078C51.9931 63.0589 55.0144 60.7807 53.3508 61.9102C51.668 63.0589 54.8423 60.8956 55.1292 60.685C56.0662 60.0532 57.0032 59.4597 57.9784 58.8662C60.0436 57.6218 62.1854 56.5114 64.3653 55.4968C70.5992 52.5868 72.6453 43.0719 69.0312 37.52C64.8625 31.0683 57.7489 29.7282 51.0752 32.8487C41.3801 37.3669 32.4882 44.2015 25.6232 52.4145C21.2251 57.6793 20.1733 65.9689 25.7189 71.0039C30.6524 75.4646 39.5826 76.5367 44.3059 70.9082Z" fill="#08B4BD"/>
<path d="M25.8148 64.5513C20.4605 66.1786 16.4448 70.4095 14.6282 75.6743C13.7485 78.2014 13.4426 80.939 13.7676 83.6001C14.1883 86.8547 15.852 89.1521 17.2479 92.0238C21.4931 100.754 10.0388 107.052 7.03655 114.193C5.96569 116.759 5.60237 119.592 6.78796 122.196C7.419 123.574 8.45161 124.646 9.42686 125.814C11.4538 128.245 11.9701 130.638 11.5112 133.74C10.9375 137.588 9.19739 141.895 11.2052 145.629C12.5629 148.175 15.2401 149.706 18.0702 148.902C19.1602 148.596 18.6821 146.911 17.6113 147.218C13.7485 148.309 11.9893 144.116 12.0466 141.053C12.104 138.583 12.9454 136.19 13.2705 133.74C13.7294 130.332 13.1366 127.556 10.9567 124.895C9.42686 123.019 7.85881 121.43 7.78232 118.864C7.70584 116.337 8.98704 113.868 10.3447 111.819C12.5821 108.45 15.7564 105.808 17.8599 102.324C19.4853 99.6433 20.5561 96.4653 19.6765 93.3447C18.7395 89.9561 16.1388 87.4099 15.5652 83.849C14.3413 76.3826 19.0263 68.4568 26.2737 66.2551C27.3637 65.9105 26.9048 64.2258 25.8148 64.5513Z" fill="#08B4BD"/>
<path d="M27.0407 69.3196C29.8135 74.4312 27.8247 80.2895 24.0576 84.2716C20.8259 87.6793 16.6572 89.6129 12.6415 91.9103C9.35245 93.8056 6.17812 96.2752 5.24112 100.142C4.55271 103.014 5.31761 106.039 7.80353 107.762C11.6854 110.461 17.1353 109.351 17.8237 115.401C18.2444 119.096 17.9767 122.388 20.8642 125.203C22.0497 126.371 23.5222 127.213 25.1476 127.634C25.8742 127.826 26.9833 127.692 27.6526 127.998C29.9282 129.051 28.8956 130.87 29.0486 132.535C29.3163 135.656 31.8022 137.742 34.8427 137.934C35.9709 138.01 35.9709 136.249 34.8427 136.192C28.2263 135.751 33.2555 128.84 29.1251 126.639C27.6335 125.834 25.7595 126.141 24.1915 125.413C21.5717 124.169 20.1375 121.814 19.7933 119C19.4109 115.803 19.908 112.357 17.1926 110.021C14.5729 107.762 10.3851 108.221 8.01388 105.694C3.71133 101.119 9.86875 95.5477 13.5211 93.4418C17.1162 91.3742 20.845 89.5938 23.962 86.7987C29.0868 82.204 32.0508 74.9099 28.5514 68.4581C28.016 67.4435 26.5053 68.3241 27.0407 69.3196Z" fill="#08B4BD"/>
<path d="M36.8868 70.2951C42.3367 78.4507 35.4909 84.979 33.3874 92.7517C31.762 98.6865 34.8599 105.579 41.3615 106.67C46.0274 107.455 51.8215 103.262 49.3355 98.0739C47.0026 93.2303 39.3154 96.1212 42.3176 100.754C42.7383 101.405 43.6562 101.252 43.9239 100.544C44.1151 100.027 44.2872 99.5098 44.4784 98.9929C44.8609 97.9208 43.159 97.4613 42.7957 98.5334C42.6044 99.0503 42.4323 99.5672 42.2411 100.084C42.7765 100.008 43.312 99.9501 43.8474 99.8735C45.8935 97.155 47.2703 97.0018 47.997 99.414C48.1691 100.199 48.1308 100.984 47.8822 101.731C47.4042 103.166 46.2951 104.238 44.8609 104.736C42.069 105.693 38.8947 104.372 37.0016 102.286C33.4257 98.3611 34.7069 93.3835 36.7339 89.0951C39.8508 82.5285 42.9869 76.2108 38.4549 69.4145C37.7665 68.4764 36.2558 69.357 36.8868 70.2951Z" fill="#08B4BD"/>
<path d="M31.7045 48.7751C33.8845 57.4667 41.4187 63.8419 50.3107 64.6459C51.4389 64.7417 51.4198 62.9995 50.3107 62.9038C42.1836 62.1763 35.3569 56.2223 33.3873 48.3347C33.1196 47.2052 31.4368 47.6838 31.7045 48.7751Z" fill="#242E49"/>
<path d="M47.9784 38.9741C50.254 46.9574 55.8569 53.5048 63.4485 56.8743C64.462 57.3337 65.3607 55.8213 64.3281 55.3618C57.1381 52.1647 51.8029 46.0958 49.6612 38.5146C49.3552 37.4233 47.6725 37.8828 47.9784 38.9741Z" fill="#242E49"/>
<path d="M300.178 113.954C304.538 112.977 308.362 109.799 310.102 105.683C310.619 104.477 310.944 103.06 310.389 101.873C309.414 99.825 306.603 99.7293 304.346 99.9207C301.459 100.17 298.571 100.418 295.665 100.667C292.146 100.974 288.513 101.299 285.396 102.984C282.279 104.669 279.831 108.076 280.367 111.561C280.998 115.638 285.492 118.185 289.603 118.089C293.714 117.993 297.501 115.906 301.057 113.82L300.178 113.954Z" fill="#0F67FE"/>
<path d="M307.484 105.99C311.194 105.397 314.789 103.042 315.306 99.06C315.803 95.1353 313.24 92.5125 309.664 91.5361C307.217 90.8852 304.042 90.8469 302.513 88.473C300.39 85.161 303.66 83.4954 304.329 80.662C304.673 79.1687 304.023 77.886 303.182 76.6991C302.532 75.7993 301.729 75.0143 301.136 74.0763C300.619 73.253 300.371 72.717 300.409 71.7215C300.505 69.4624 302.857 67.8351 305.132 68.7923C306.165 69.2327 307.045 67.7203 306.012 67.2799C302.608 65.8441 298.535 67.6437 298.535 71.7215C298.535 73.5594 299.568 74.9378 300.658 76.3353C302.13 78.2115 302.933 79.1304 301.805 81.6958C301.404 82.6147 300.658 83.1891 300.352 84.2037C299.224 88.0327 301.767 91.249 305.304 92.3211C308.115 93.1826 312.131 93.0486 313.298 96.3414C314.847 100.668 310.831 103.693 307.045 104.286C305.916 104.459 306.375 106.163 307.484 105.99Z" fill="#242E49"/>
<path d="M315.322 102.602C318.496 100.898 322.13 98.8116 323.564 95.3081C324.501 93.049 323.239 89.9859 324.463 87.9757C325.839 85.7167 329.339 85.9656 331.595 86.1379C332.073 86.1761 332.456 85.6975 332.475 85.2572C332.494 83.5533 332.513 81.8303 332.551 80.1264C332.57 78.9969 330.811 78.9969 330.811 80.1264C330.792 81.8303 330.773 83.5533 330.735 85.2572C331.022 84.97 331.308 84.6829 331.614 84.3765C328.421 84.1277 323.87 84.2808 322.589 87.9183C321.671 90.5028 322.99 93.1065 321.441 95.6336C319.873 98.1798 317.005 99.7305 314.462 101.09C313.448 101.607 314.328 103.119 315.322 102.602Z" fill="#242E49"/>
<path d="M86.2343 118.979C86.4447 117.773 86.6742 116.892 87.2287 115.705C88.0127 114.001 89.9441 113.101 91.7225 113.714C93.367 114.269 93.6538 115.533 93.8451 116.815C94.2275 119.476 97.4401 120.683 99.4097 118.845C100.92 117.428 102.24 115.475 104.611 115.82C106.026 116.03 107.173 117.045 107.728 118.366C108.914 121.161 107.824 123.995 106.772 126.617C110.004 128.034 113.924 126.215 117.136 128.168C118.379 128.934 119.163 130.331 118.857 131.748C117.997 135.692 110.214 134.428 111.839 140.459C112.069 141.282 112.566 141.971 113.159 142.565C114.708 144.096 116.41 147.523 114.497 149.17C112.719 150.701 109.755 148.997 107.69 150.146C106.007 151.084 105.797 153.458 106.256 155.334C106.829 157.67 108.091 159.967 106.963 162.418C106.409 163.624 105.07 164.332 103.827 163.873C101.972 163.203 102.24 160.829 101.073 159.47C99.7921 157.976 97.2871 158.397 95.6999 159.565C93.5582 161.154 92.2961 163.758 89.5616 164.639C88.529 164.964 87.3626 164.849 86.502 164.179C83.4233 161.824 87.5347 156.33 83.7867 154.511C83.0791 154.166 82.276 154.109 81.5111 154.224C78.7957 154.683 75.564 154.932 73.2693 153.075C72.122 152.137 71.4336 150.701 71.6248 149.227C72.122 145.647 77.2085 145.953 77.7631 142.699C77.9352 141.703 77.5719 140.708 76.9408 139.923C74.8947 137.415 71.2423 137.319 69.5022 134.467C68.9094 133.509 68.7947 132.284 69.3875 131.327C70.3245 129.757 72.1985 129.949 73.8047 129.815C75.1816 129.7 76.8452 128.857 76.7305 127.479C76.5393 124.99 70.9173 124.684 75.8509 120.338C76.0421 120.166 76.2715 120.051 76.5201 120.013C77.9543 119.821 80.0004 120.434 81.2051 121.199C81.2434 121.219 81.2625 121.238 81.3007 121.257C83.213 122.54 85.8328 121.295 86.2343 118.979Z" fill="#5D6A85"/>
<path d="M87.0586 132.687C89.6784 132.687 89.6975 128.609 87.0586 128.609C84.4388 128.609 84.4388 132.687 87.0586 132.687Z" fill="#9EA7B8"/>
<path d="M101.077 126.523C101.287 126.733 101.498 126.944 101.689 127.135C102.454 127.901 103.831 127.939 104.577 127.135C105.322 126.312 105.38 125.048 104.577 124.244C104.366 124.034 104.156 123.823 103.965 123.632C103.2 122.866 101.823 122.828 101.077 123.632C100.331 124.455 100.274 125.719 101.077 126.523Z" fill="#9EA7B8"/>
<path d="M103.774 138.888C103.984 138.888 104.194 138.888 104.386 138.888C105.456 138.888 106.47 137.95 106.432 136.839C106.374 135.729 105.533 134.791 104.386 134.791C104.175 134.791 103.965 134.791 103.774 134.791C102.703 134.791 101.689 135.729 101.728 136.839C101.766 137.95 102.626 138.888 103.774 138.888Z" fill="#9EA7B8"/>
<path d="M97.5742 145.074C100.194 145.074 100.213 140.977 97.5742 140.977C94.9544 140.996 94.9544 145.074 97.5742 145.074Z" fill="#9EA7B8"/>
<path d="M86.4486 144.46C89.0683 144.46 89.0875 140.363 86.4486 140.363C83.8288 140.363 83.8097 144.46 86.4486 144.46Z" fill="#9EA7B8"/>
<path d="M93.8672 157.46C96.4869 157.46 96.5061 153.363 93.8672 153.363C91.2474 153.382 91.2474 157.46 93.8672 157.46Z" fill="#9EA7B8"/>
<path d="M95.7187 132.687C98.3385 132.687 98.3576 128.609 95.7187 128.609C93.099 128.609 93.099 132.687 95.7187 132.687Z" fill="#9EA7B8"/>
<path d="M236.428 113.582C236.581 112.682 236.753 112.012 237.173 111.112C237.766 109.829 239.22 109.14 240.558 109.6C241.801 110.021 242.011 110.978 242.164 111.935C242.451 113.945 244.88 114.845 246.352 113.467C247.5 112.395 248.475 110.921 250.272 111.17C251.343 111.323 252.204 112.088 252.624 113.084C253.504 115.19 252.701 117.334 251.898 119.306C254.326 120.378 257.29 119 259.719 120.474C260.656 121.048 261.249 122.101 261.019 123.173C260.369 126.141 254.498 125.203 255.722 129.74C255.894 130.352 256.258 130.888 256.717 131.329C257.883 132.477 259.164 135.062 257.73 136.306C256.392 137.474 254.154 136.172 252.605 137.034C251.324 137.742 251.171 139.523 251.515 140.939C251.936 142.701 252.892 144.443 252.051 146.281C251.63 147.181 250.617 147.717 249.68 147.391C248.265 146.893 248.475 145.094 247.614 144.079C246.639 142.95 244.765 143.275 243.56 144.156C241.954 145.343 240.998 147.315 238.933 147.985C238.149 148.233 237.269 148.138 236.619 147.64C234.305 145.86 237.403 141.705 234.573 140.346C234.037 140.097 233.426 140.04 232.852 140.135C230.806 140.48 228.358 140.671 226.637 139.274C225.777 138.565 225.241 137.474 225.394 136.364C225.757 133.664 229.601 133.894 230.022 131.444C230.156 130.697 229.869 129.931 229.391 129.357C227.861 127.462 225.107 127.404 223.788 125.241C223.348 124.513 223.252 123.594 223.692 122.867C224.4 121.68 225.815 121.833 227.019 121.718C228.071 121.622 229.314 120.991 229.219 119.957C229.066 118.081 224.84 117.851 228.549 114.577C228.683 114.443 228.874 114.348 229.046 114.328C230.136 114.175 231.666 114.635 232.565 115.228C232.584 115.247 232.603 115.266 232.622 115.266C234.171 116.262 236.141 115.343 236.428 113.582Z" fill="#5D6A85"/>
<path d="M234.531 128.726C237.15 128.726 237.169 124.629 234.531 124.629C231.911 124.629 231.892 128.726 234.531 128.726Z" fill="#9EA7B8"/>
<path d="M240.733 120.685C243.353 120.685 243.372 116.588 240.733 116.588C238.094 116.588 238.094 120.685 240.733 120.685Z" fill="#9EA7B8"/>
<path d="M249.371 125.624C251.991 125.624 252.01 121.527 249.371 121.527C246.751 121.546 246.751 125.624 249.371 125.624Z" fill="#9EA7B8"/>
<path d="M245.664 131.195C248.284 131.195 248.303 127.117 245.664 127.117C243.044 127.117 243.044 131.195 245.664 131.195Z" fill="#9EA7B8"/>
<path d="M237.441 135.35C237.441 135.561 237.441 135.771 237.441 135.963C237.441 137.035 238.378 138.05 239.488 138.011C240.597 137.954 241.534 137.112 241.534 135.963C241.534 135.752 241.534 135.542 241.534 135.35C241.534 134.278 240.597 133.264 239.488 133.302C238.378 133.359 237.441 134.202 237.441 135.35Z" fill="#9EA7B8"/>
<path d="M246.906 140.499C249.525 140.499 249.544 136.402 246.906 136.402C244.286 136.402 244.267 140.499 246.906 140.499Z" fill="#9EA7B8"/>
</svg>
